UoqMunThenKhung-Regular.ufo
<glyph name="exclam" format="2">
  <advance width="400" height="1000"/>
  <unicode hex="0021"/>
  <outline>
    <contour>
      <point x="278" y="50" type="qcurve"/>
      <point x="278" y="19"/>
      <point x="231" y="-25"/>
      <point x="200" y="-25" type="qcurve"/>
      <point x="169" y="-25"/>
      <point x="122" y="19"/>
      <point x="122" y="50" type="qcurve"/>
      <point x="122" y="82"/>
      <point x="169" y="124"/>
      <point x="200" y="124" type="qcurve"/>
      <point x="231" y="124"/>
      <point x="278" y="82"/>
    </contour>
    <contour>
      <point x="281" y="690" type="qcurve"/>
      <point x="281" y="670"/>
      <point x="274" y="630"/>
      <point x="272" y="610" type="qcurve"/>
      <point x="258" y="504"/>
      <point x="231" y="292"/>
      <point x="217" y="185" type="qcurve"/>
      <point x="182" y="185" type="line"/>
      <point x="174" y="292"/>
      <point x="147" y="505"/>
      <point x="130" y="610" type="qcurve"/>
      <point x="127" y="630"/>
      <point x="120" y="670"/>
      <point x="120" y="690" type="qcurve"/>
      <point x="120" y="720"/>
      <point x="173" y="755"/>
      <point x="200" y="755" type="qcurve"/>
      <point x="217" y="755"/>
      <point x="255" y="738"/>
      <point x="281" y="709"/>
    </contour>
  </outline>
</glyph>
<glyph name="percent" format="2">
  <advance width="886" height="1000"/>
  <unicode hex="0025"/>
  <outline>
    <contour>
      <point x="307" y="537" type="qcurve"/>
      <point x="307" y="557"/>
      <point x="305" y="614"/>
      <point x="292" y="671"/>
      <point x="261" y="709"/>
      <point x="233" y="709" type="qcurve"/>
      <point x="205" y="709"/>
      <point x="174" y="671"/>
      <point x="160" y="614"/>
      <point x="157" y="557"/>
      <point x="157" y="537" type="qcurve"/>
      <point x="157" y="520"/>
      <point x="163" y="466"/>
      <point x="179" y="412"/>
      <point x="209" y="376"/>
      <point x="233" y="376" type="qcurve"/>
      <point x="262" y="376"/>
      <point x="292" y="411"/>
      <point x="305" y="463"/>
      <point x="307" y="517"/>
    </contour>
    <contour>
      <point x="727" y="186" type="qcurve"/>
      <point x="727" y="206"/>
      <point x="724" y="263"/>
      <point x="711" y="318"/>
      <point x="679" y="355"/>
      <point x="650" y="355" type="qcurve"/>
      <point x="622" y="355"/>
      <point x="591" y="317"/>
      <point x="578" y="260"/>
      <point x="576" y="203"/>
      <point x="576" y="183" type="qcurve"/>
      <point x="576" y="166"/>
      <point x="582" y="113"/>
      <point x="598" y="59"/>
      <point x="627" y="23"/>
      <point x="650" y="23" type="qcurve"/>
      <point x="679" y="23"/>
      <point x="711" y="58"/>
      <point x="724" y="110"/>
      <point x="727" y="165"/>
    </contour>
    <contour>
      <point x="417" y="537" type="qcurve"/>
      <point x="417" y="489"/>
      <point x="366" y="400"/>
      <point x="283" y="343"/>
      <point x="233" y="343" type="qcurve"/>
      <point x="181" y="343"/>
      <point x="98" y="398"/>
      <point x="50" y="487"/>
      <point x="50" y="537" type="qcurve"/>
      <point x="50" y="573"/>
      <point x="78" y="645"/>
      <point x="128" y="704"/>
      <point x="195" y="740"/>
      <point x="233" y="740" type="qcurve"/>
      <point x="289" y="740"/>
      <point x="371" y="683"/>
      <point x="417" y="590"/>
    </contour>
    <contour>
      <point x="775" y="716" type="line"/>
      <point x="148" y="-19" type="line"/>
      <point x="113" y="7" type="line"/>
      <point x="740" y="743" type="line"/>
    </contour>
    <contour>
      <point x="836" y="183" type="qcurve"/>
      <point x="836" y="135"/>
      <point x="784" y="47"/>
      <point x="700" y="-9"/>
      <point x="650" y="-9" type="qcurve"/>
      <point x="598" y="-9"/>
      <point x="516" y="45"/>
      <point x="469" y="133"/>
      <point x="469" y="183" type="qcurve"/>
      <point x="469" y="219"/>
      <point x="497" y="290"/>
      <point x="547" y="350"/>
      <point x="613" y="386"/>
      <point x="650" y="386" type="qcurve"/>
      <point x="707" y="386"/>
      <point x="790" y="329"/>
      <point x="836" y="237"/>
    </contour>
  </outline>
</glyph>
<glyph name="ampersand" format="2">
  <advance width="758" height="1000"/>
  <unicode hex="0026"/>
  <outline>
    <contour>
      <point x="445" y="79" type="qcurve"/>
      <point x="400" y="108"/>
      <point x="310" y="205"/>
      <point x="239" y="316"/>
      <point x="220" y="365" type="qcurve"/>
      <point x="195" y="334"/>
      <point x="163" y="249"/>
      <point x="163" y="209" type="qcurve"/>
      <point x="163" y="165"/>
      <point x="197" y="89"/>
      <point x="262" y="43"/>
      <point x="309" y="43" type="qcurve"/>
      <point x="347" y="43"/>
      <point x="414" y="56"/>
    </contour>
    <contour>
      <point x="391" y="637" type="qcurve"/>
      <point x="391" y="655"/>
      <point x="366" y="696"/>
      <point x="346" y="696" type="qcurve"/>
      <point x="318" y="696"/>
      <point x="280" y="664"/>
      <point x="262" y="615"/>
      <point x="262" y="590" type="qcurve"/>
      <point x="262" y="531"/>
      <point x="289" y="477" type="qcurve"/>
      <point x="311" y="496"/>
      <point x="358" y="547"/>
      <point x="391" y="607"/>
    </contour>
    <contour>
      <point x="766" y="53" type="qcurve"/>
      <point x="766" y="30"/>
      <point x="729" y="0"/>
      <point x="680" y="-13"/>
      <point x="661" y="-13" type="qcurve"/>
      <point x="615" y="-13"/>
      <point x="520" y="21"/>
      <point x="486" y="52" type="qcurve"/>
      <point x="437" y="18"/>
      <point x="327" y="-8"/>
      <point x="268" y="-8" type="qcurve"/>
      <point x="212" y="-8"/>
      <point x="110" y="34"/>
      <point x="46" y="118"/>
      <point x="46" y="179" type="qcurve"/>
      <point x="46" y="228"/>
      <point x="87" y="315"/>
      <point x="154" y="387"/>
      <point x="192" y="414" type="qcurve"/>
      <point x="179" y="447"/>
      <point x="161" y="517"/>
      <point x="161" y="554" type="qcurve"/>
      <point x="161" y="584"/>
      <point x="183" y="641"/>
      <point x="202" y="665" type="qcurve"/>
      <point x="232" y="701"/>
      <point x="319" y="733"/>
      <point x="365" y="733" type="qcurve"/>
      <point x="397" y="733"/>
      <point x="459" y="709"/>
      <point x="499" y="660"/>
      <point x="499" y="624" type="qcurve"/>
      <point x="499" y="585"/>
      <point x="452" y="525"/>
      <point x="385" y="480"/>
      <point x="355" y="463" type="qcurve"/>
      <point x="342" y="456"/>
      <point x="318" y="440"/>
      <point x="307" y="431" type="qcurve"/>
      <point x="327" y="383"/>
      <point x="389" y="276"/>
      <point x="464" y="179"/>
      <point x="503" y="143" type="qcurve"/>
      <point x="522" y="174"/>
      <point x="533" y="249"/>
      <point x="533" y="283" type="qcurve"/>
      <point x="533" y="296"/>
      <point x="524" y="340"/>
      <point x="505" y="377"/>
      <point x="489" y="377" type="qcurve"/>
      <point x="485" y="377"/>
      <point x="476" y="376"/>
      <point x="472" y="376" type="qcurve"/>
      <point x="463" y="376"/>
      <point x="463" y="383" type="qcurve"/>
      <point x="463" y="393"/>
      <point x="470" y="417"/>
      <point x="483" y="417" type="qcurve"/>
      <point x="515" y="417"/>
      <point x="579" y="422"/>
      <point x="610" y="429" type="qcurve"/>
      <point x="634" y="435"/>
      <point x="655" y="450" type="qcurve"/>
      <point x="661" y="455"/>
      <point x="686" y="483"/>
      <point x="711" y="507"/>
      <point x="716" y="507" type="qcurve"/>
      <point x="736" y="507"/>
      <point x="736" y="488" type="qcurve"/>
      <point x="736" y="484"/>
      <point x="723" y="450"/>
      <point x="708" y="417"/>
      <point x="705" y="412" type="qcurve"/>
      <point x="700" y="404"/>
      <point x="694" y="397"/>
      <point x="684" y="394" type="qcurve"/>
      <point x="679" y="393"/>
      <point x="658" y="393"/>
      <point x="653" y="393" type="qcurve"/>
      <point x="625" y="393"/>
      <point x="570" y="389"/>
      <point x="542" y="387" type="qcurve"/>
      <point x="561" y="382"/>
      <point x="600" y="351"/>
      <point x="627" y="310"/>
      <point x="627" y="289" type="qcurve"/>
      <point x="627" y="232"/>
      <point x="592" y="142"/>
      <point x="551" y="102" type="qcurve"/>
      <point x="581" y="77"/>
      <point x="667" y="37"/>
      <point x="707" y="37" type="qcurve"/>
      <point x="723" y="37"/>
      <point x="752" y="47"/>
    </contour>
  </outline>
</glyph>
<glyph name="quotesingle" format="2">
  <advance width="280" height="1000"/>
  <unicode hex="0027"/>
  <outline>
    <contour>
      <point x="190" y="734" type="qcurve"/>
      <point x="190" y="712"/>
      <point x="180" y="648"/>
      <point x="177" y="625" type="qcurve"/>
      <point x="173" y="595"/>
      <point x="165" y="533"/>
      <point x="159" y="503" type="qcurve"/>
      <point x="157" y="496"/>
      <point x="149" y="479"/>
      <point x="139" y="479" type="qcurve"/>
      <point x="129" y="479"/>
      <point x="121" y="496"/>
      <point x="119" y="503" type="qcurve"/>
      <point x="112" y="534"/>
      <point x="103" y="600"/>
      <point x="100" y="631" type="qcurve"/>
      <point x="99" y="647"/>
      <point x="95" y="677"/>
      <point x="93" y="693" type="qcurve"/>
      <point x="92" y="703"/>
      <point x="88" y="724"/>
      <point x="88" y="734" type="qcurve"/>
      <point x="88" y="757"/>
      <point x="118" y="780"/>
      <point x="140" y="780" type="qcurve"/>
      <point x="160" y="780"/>
      <point x="190" y="755"/>
    </contour>
  </outline>
</glyph>
<glyph name="parenleft" format="2">
  <advance width="450" height="1000"/>
  <unicode hex="0028"/>
  <outline>
    <contour>
      <point x="409" y="-114" type="line"/>
      <point x="269" y="-35"/>
      <point x="128" y="209"/>
      <point x="128" y="369" type="qcurve"/>
      <point x="128" y="536"/>
      <point x="269" y="788"/>
      <point x="409" y="876" type="qcurve"/>
      <point x="423" y="848" type="line"/>
      <point x="403" y="832"/>
      <point x="369" y="794"/>
      <point x="355" y="774" type="qcurve"/>
      <point x="316" y="717"/>
      <point x="271" y="581"/>
      <point x="252" y="438"/>
      <point x="252" y="369" type="qcurve"/>
      <point x="252" y="312"/>
      <point x="268" y="184"/>
      <point x="307" y="57"/>
      <point x="373" y="-50"/>
      <point x="423" y="-86" type="qcurve"/>
    </contour>
  </outline>
</glyph>
<glyph name="parenright" format="2">
  <advance width="450" height="1000"/>
  <unicode hex="0029"/>
  <outline>
    <contour>
      <point x="327" y="369" type="qcurve"/>
      <point x="327" y="209"/>
      <point x="186" y="-35"/>
      <point x="46" y="-114" type="qcurve"/>
      <point x="32" y="-86" type="line"/>
      <point x="82" y="-51"/>
      <point x="147" y="57"/>
      <point x="186" y="183"/>
      <point x="202" y="312"/>
      <point x="202" y="369" type="qcurve"/>
      <point x="202" y="439"/>
      <point x="183" y="584"/>
      <point x="137" y="721"/>
      <point x="96" y="779" type="qcurve"/>
      <point x="83" y="798"/>
      <point x="51" y="834"/>
      <point x="32" y="848" type="qcurve"/>
      <point x="46" y="876" type="line"/>
      <point x="186" y="788"/>
      <point x="327" y="536"/>
    </contour>
  </outline>
</glyph>
<glyph name="asterisk" format="2">
  <advance width="450" height="1000"/>
  <unicode hex="002A"/>
  <outline>
    <contour>
      <point x="396" y="534" type="qcurve"/>
      <point x="396" y="518"/>
      <point x="372" y="491"/>
      <point x="355" y="491" type="qcurve"/>
      <point x="345" y="491"/>
      <point x="333" y="496" type="qcurve"/>
      <point x="330" y="498"/>
      <point x="302" y="526"/>
      <point x="265" y="564"/>
      <point x="234" y="597"/>
      <point x="228" y="602" type="qcurve"/>
      <point x="231" y="593"/>
      <point x="243" y="550"/>
      <point x="257" y="501"/>
      <point x="267" y="463"/>
      <point x="267" y="457" type="qcurve"/>
      <point x="267" y="439"/>
      <point x="243" y="417"/>
      <point x="225" y="417" type="qcurve"/>
      <point x="208" y="417"/>
      <point x="184" y="439"/>
      <point x="184" y="457" type="qcurve"/>
      <point x="184" y="461"/>
      <point x="194" y="500"/>
      <point x="207" y="550"/>
      <point x="219" y="593"/>
      <point x="221" y="601" type="qcurve"/>
      <point x="214" y="594"/>
      <point x="185" y="562"/>
      <point x="151" y="527"/>
      <point x="123" y="499"/>
      <point x="117" y="496" type="qcurve"/>
      <point x="108" y="490"/>
      <point x="95" y="490" type="qcurve"/>
      <point x="79" y="490"/>
      <point x="55" y="518"/>
      <point x="55" y="534" type="qcurve"/>
      <point x="55" y="545"/>
      <point x="67" y="562"/>
      <point x="76" y="567" type="qcurve"/>
      <point x="79" y="569"/>
      <point x="118" y="580"/>
      <point x="167" y="593"/>
      <point x="210" y="604"/>
      <point x="218" y="606" type="qcurve"/>
      <point x="211" y="608"/>
      <point x="166" y="621"/>
      <point x="113" y="635"/>
      <point x="74" y="647"/>
      <point x="71" y="648" type="qcurve"/>
      <point x="54" y="658"/>
      <point x="54" y="677" type="qcurve"/>
      <point x="54" y="694"/>
      <point x="82" y="723"/>
      <point x="100" y="723" type="qcurve"/>
      <point x="108" y="723"/>
      <point x="115" y="717" type="qcurve"/>
      <point x="124" y="710"/>
      <point x="141" y="692"/>
      <point x="149" y="684" type="qcurve"/>
      <point x="185" y="647"/>
      <point x="222" y="611" type="qcurve"/>
      <point x="219" y="623"/>
      <point x="207" y="666"/>
      <point x="194" y="715"/>
      <point x="184" y="754"/>
      <point x="184" y="761" type="qcurve"/>
      <point x="184" y="779"/>
      <point x="210" y="795"/>
      <point x="225" y="795" type="qcurve"/>
      <point x="239" y="795"/>
      <point x="267" y="777"/>
      <point x="267" y="761" type="qcurve"/>
      <point x="267" y="755"/>
      <point x="257" y="716"/>
      <point x="243" y="666"/>
      <point x="231" y="622"/>
      <point x="228" y="612" type="qcurve"/>
      <point x="235" y="618"/>
      <point x="268" y="651"/>
      <point x="305" y="689"/>
      <point x="335" y="717"/>
      <point x="339" y="719" type="qcurve"/>
      <point x="347" y="724"/>
      <point x="356" y="724" type="qcurve"/>
      <point x="374" y="724"/>
      <point x="394" y="694"/>
      <point x="394" y="677" type="qcurve"/>
      <point x="394" y="667"/>
      <point x="387" y="651"/>
      <point x="376" y="647" type="qcurve"/>
      <point x="366" y="643"/>
      <point x="342" y="637"/>
      <point x="331" y="634" type="qcurve"/>
      <point x="306" y="627"/>
      <point x="257" y="614"/>
      <point x="232" y="606" type="qcurve"/>
      <point x="241" y="603"/>
      <point x="284" y="593"/>
      <point x="332" y="581"/>
      <point x="370" y="570"/>
      <point x="375" y="567" type="qcurve"/>
      <point x="396" y="557"/>
    </contour>
  </outline>
</glyph>
<glyph name="plus" format="2">
  <advance width="750" height="1000"/>
  <unicode hex="002B"/>
  <outline>
    <contour>
      <point x="679" y="333" type="line"/>
      <point x="405" y="333" type="line"/>
      <point x="405" y="64" type="line"/>
      <point x="345" y="64" type="line"/>
      <point x="345" y="333" type="line"/>
      <point x="72" y="333" type="line"/>
      <point x="72" y="392" type="line"/>
      <point x="345" y="392" type="line"/>
      <point x="345" y="654" type="line"/>
      <point x="405" y="654" type="line"/>
      <point x="405" y="392" type="line"/>
      <point x="679" y="392" type="line"/>
    </contour>
  </outline>
</glyph>
<glyph name="comma" format="2">
  <advance width="350" height="1000"/>
  <unicode hex="002C"/>
  <outline>
    <contour>
      <point x="252" y="52" type="qcurve"/>
      <point x="252" y="23"/>
      <point x="226" y="-50"/>
      <point x="186" y="-117"/>
      <point x="165" y="-138" type="qcurve"/>
      <point x="140" y="-130" type="line"/>
      <point x="157" y="-101"/>
      <point x="185" y="-21"/>
      <point x="186" y="13" type="qcurve"/>
      <point x="175" y="6"/>
      <point x="161" y="6" type="qcurve"/>
      <point x="137" y="6"/>
      <point x="100" y="45"/>
      <point x="100" y="69" type="qcurve"/>
      <point x="100" y="103"/>
      <point x="140" y="144"/>
      <point x="174" y="144" type="qcurve"/>
      <point x="216" y="144"/>
      <point x="252" y="90"/>
    </contour>
  </outline>
</glyph>
<glyph name="hyphenminus" format="2">
  <advance width="400" height="1000"/>
  <unicode hex="002D"/>
  <outline>
    <contour>
      <point x="332" y="283" type="line"/>
      <point x="69" y="283" type="line"/>
      <point x="69" y="360" type="line"/>
      <point x="332" y="360" type="line"/>
    </contour>
  </outline>
</glyph>
<glyph name="period" format="2">
  <advance width="350" height="1000"/>
  <unicode hex="002E"/>
  <outline>
    <contour>
      <point x="251" y="82" type="qcurve"/>
      <point x="251" y="51"/>
      <point x="207" y="5"/>
      <point x="175" y="5" type="qcurve"/>
      <point x="144" y="5"/>
      <point x="99" y="51"/>
      <point x="99" y="82" type="qcurve"/>
      <point x="99" y="114"/>
      <point x="144" y="159"/>
      <point x="175" y="159" type="qcurve"/>
      <point x="207" y="159"/>
      <point x="251" y="114"/>
    </contour>
  </outline>
</glyph>
<glyph name="one" format="2">
  <advance width="590" height="1000"/>
  <unicode hex="0031"/>
  <outline>
    <contour>
      <point x="490" y="14" type="qcurve"/>
      <point x="490" y="7"/>
      <point x="482" y="-5"/>
      <point x="475" y="-5" type="qcurve"/>
      <point x="462" y="-5"/>
      <point x="434" y="-3"/>
      <point x="420" y="-2" type="qcurve"/>
      <point x="397" y="0"/>
      <point x="349" y="0"/>
      <point x="325" y="0" type="qcurve"/>
      <point x="268" y="0"/>
      <point x="211" y="-3" type="qcurve"/>
      <point x="201" y="-4"/>
      <point x="181" y="-5"/>
      <point x="171" y="-5" type="qcurve"/>
      <point x="152" y="-5"/>
      <point x="152" y="15" type="qcurve"/>
      <point x="152" y="23"/>
      <point x="166" y="33"/>
      <point x="173" y="33" type="qcurve"/>
      <point x="183" y="33"/>
      <point x="202" y="31"/>
      <point x="212" y="31" type="qcurve"/>
      <point x="226" y="31"/>
      <point x="252" y="37"/>
      <point x="252" y="56" type="qcurve"/>
      <point x="252" y="206"/>
      <point x="254" y="506"/>
      <point x="254" y="656" type="qcurve"/>
      <point x="247" y="653"/>
      <point x="208" y="640"/>
      <point x="164" y="625"/>
      <point x="128" y="614"/>
      <point x="124" y="614" type="qcurve"/>
      <point x="114" y="614"/>
      <point x="100" y="625"/>
      <point x="100" y="635" type="qcurve"/>
      <point x="100" y="645"/>
      <point x="105" y="657"/>
      <point x="115" y="661" type="qcurve"/>
      <point x="125" y="665"/>
      <point x="145" y="669"/>
      <point x="155" y="672" type="qcurve"/>
      <point x="178" y="678"/>
      <point x="222" y="691"/>
      <point x="244" y="698" type="qcurve"/>
      <point x="250" y="700"/>
      <point x="290" y="714"/>
      <point x="336" y="730"/>
      <point x="371" y="742"/>
      <point x="373" y="742" type="qcurve"/>
      <point x="383" y="742"/>
      <point x="396" y="735"/>
      <point x="396" y="724" type="qcurve"/>
      <point x="396" y="558"/>
      <point x="393" y="224"/>
      <point x="393" y="57" type="qcurve"/>
      <point x="393" y="47"/>
      <point x="410" y="31"/>
      <point x="419" y="31" type="qcurve"/>
      <point x="433" y="31"/>
      <point x="461" y="33"/>
      <point x="475" y="33" type="qcurve"/>
      <point x="482" y="33"/>
      <point x="490" y="20"/>
    </contour>
  </outline>
</glyph>
<glyph name="two" format="2">
  <advance width="590" height="1000"/>
  <unicode hex="0032"/>
  <outline>
    <contour>
      <point x="545" y="170" type="qcurve"/>
      <point x="545" y="167"/>
      <point x="535" y="124"/>
      <point x="522" y="69"/>
      <point x="510" y="24"/>
      <point x="508" y="18" type="qcurve"/>
      <point x="504" y="5"/>
      <point x="491" y="0"/>
      <point x="479" y="0" type="qcurve"/>
      <point x="449" y="0"/>
      <point x="390" y="4"/>
      <point x="361" y="4" type="qcurve"/>
      <point x="335" y="4"/>
      <point x="281" y="3"/>
      <point x="255" y="3" type="qcurve"/>
      <point x="203" y="3"/>
      <point x="98" y="2"/>
      <point x="45" y="0" type="qcurve"/>
      <point x="47" y="53"/>
      <point x="86" y="128"/>
      <point x="118" y="168" type="qcurve"/>
      <point x="158" y="219"/>
      <point x="250" y="310"/>
      <point x="294" y="357" type="qcurve"/>
      <point x="332" y="396"/>
      <point x="379" y="491"/>
      <point x="379" y="546" type="qcurve"/>
      <point x="379" y="566"/>
      <point x="372" y="615"/>
      <point x="353" y="662"/>
      <point x="320" y="692"/>
      <point x="294" y="692" type="qcurve"/>
      <point x="265" y="692"/>
      <point x="218" y="661"/>
      <point x="204" y="636" type="qcurve"/>
      <point x="191" y="614"/>
      <point x="182" y="551"/>
      <point x="182" y="525" type="qcurve"/>
      <point x="182" y="511"/>
      <point x="155" y="494"/>
      <point x="121" y="487"/>
      <point x="110" y="487" type="qcurve"/>
      <point x="91" y="487"/>
      <point x="54" y="523"/>
      <point x="54" y="542" type="qcurve"/>
      <point x="54" y="590"/>
      <point x="104" y="659"/>
      <point x="182" y="703"/>
      <point x="272" y="724"/>
      <point x="312" y="724" type="qcurve"/>
      <point x="364" y="724"/>
      <point x="459" y="685"/>
      <point x="521" y="608"/>
      <point x="521" y="551" type="qcurve"/>
      <point x="521" y="479"/>
      <point x="451" y="367"/>
      <point x="397" y="323" type="qcurve"/>
      <point x="360" y="293"/>
      <point x="281" y="241"/>
      <point x="206" y="186"/>
      <point x="142" y="119"/>
      <point x="119" y="73" type="qcurve"/>
      <point x="177" y="73"/>
      <point x="292" y="76"/>
      <point x="350" y="77" type="qcurve"/>
      <point x="379" y="78"/>
      <point x="433" y="90"/>
      <point x="458" y="106" type="qcurve"/>
      <point x="477" y="119"/>
      <point x="502" y="152"/>
      <point x="514" y="171" type="qcurve"/>
      <point x="518" y="177"/>
      <point x="526" y="186"/>
      <point x="533" y="186" type="qcurve"/>
      <point x="545" y="186"/>
    </contour>
  </outline>
</glyph>
<glyph name="four" format="2">
  <advance width="590" height="1000"/>
  <unicode hex="0034"/>
  <outline>
    <contour>
      <point x="303" y="589" type="line"/>
      <point x="298" y="580"/>
      <point x="263" y="525"/>
      <point x="216" y="448"/>
      <point x="166" y="366"/>
      <point x="123" y="295"/>
      <point x="96" y="249"/>
      <point x="96" y="248" type="qcurve"/>
      <point x="96" y="245"/>
      <point x="100" y="245" type="qcurve"/>
      <point x="303" y="245" type="line"/>
      <point x="303" y="305"/>
      <point x="303" y="425"/>
      <point x="303" y="485" type="qcurve"/>
    </contour>
    <contour>
      <point x="568" y="311" type="qcurve"/>
      <point x="568" y="305"/>
      <point x="562" y="261"/>
      <point x="556" y="215"/>
      <point x="555" y="205" type="qcurve"/>
      <point x="554" y="198"/>
      <point x="545" y="196"/>
      <point x="540" y="196" type="qcurve"/>
      <point x="436" y="196" type="line"/>
      <point x="437" y="165"/>
      <point x="436" y="104"/>
      <point x="436" y="74" type="qcurve"/>
      <point x="436" y="61"/>
      <point x="444" y="33"/>
      <point x="461" y="33" type="qcurve"/>
      <point x="475" y="33"/>
      <point x="501" y="36"/>
      <point x="514" y="36" type="qcurve"/>
      <point x="522" y="36"/>
      <point x="530" y="24"/>
      <point x="530" y="17" type="qcurve"/>
      <point x="530" y="10"/>
      <point x="522" y="-2"/>
      <point x="514" y="-2" type="qcurve"/>
      <point x="500" y="-2"/>
      <point x="471" y="-1"/>
      <point x="457" y="0" type="qcurve"/>
      <point x="435" y="1"/>
      <point x="391" y="1"/>
      <point x="368" y="1" type="qcurve"/>
      <point x="345" y="1"/>
      <point x="299" y="0"/>
      <point x="276" y="-1" type="qcurve"/>
      <point x="264" y="-2"/>
      <point x="240" y="-3"/>
      <point x="227" y="-3" type="qcurve"/>
      <point x="220" y="-3"/>
      <point x="208" y="6"/>
      <point x="208" y="14" type="qcurve"/>
      <point x="208" y="28"/>
      <point x="224" y="34"/>
      <point x="235" y="34" type="qcurve"/>
      <point x="243" y="34"/>
      <point x="260" y="33"/>
      <point x="268" y="33" type="qcurve"/>
      <point x="289" y="33"/>
      <point x="303" y="51"/>
      <point x="303" y="70" type="qcurve"/>
      <point x="303" y="102"/>
      <point x="302" y="165"/>
      <point x="302" y="196" type="qcurve"/>
      <point x="41" y="196" type="line"/>
      <point x="23" y="196"/>
      <point x="23" y="211" type="qcurve"/>
      <point x="23" y="220"/>
      <point x="29" y="227" type="qcurve"/>
      <point x="52" y="268"/>
      <point x="102" y="347"/>
      <point x="127" y="387" type="qcurve"/>
      <point x="178" y="470"/>
      <point x="277" y="638"/>
      <point x="328" y="720" type="qcurve"/>
      <point x="339" y="738"/>
      <point x="360" y="738" type="qcurve"/>
      <point x="372" y="738"/>
      <point x="397" y="739"/>
      <point x="410" y="739" type="qcurve"/>
      <point x="419" y="739"/>
      <point x="437" y="734"/>
      <point x="437" y="722" type="qcurve"/>
      <point x="437" y="245" type="line"/>
      <point x="480" y="245" type="line"/>
      <point x="506" y="245"/>
      <point x="537" y="290"/>
      <point x="547" y="309" type="qcurve"/>
      <point x="549" y="314"/>
      <point x="553" y="321"/>
      <point x="559" y="321" type="qcurve"/>
      <point x="568" y="321"/>
    </contour>
  </outline>
</glyph>
<glyph name="five" format="2">
  <advance width="590" height="1000"/>
  <unicode hex="0035"/>
  <outline>
    <contour>
      <point x="539" y="252" type="qcurve"/>
      <point x="539" y="174"/>
      <point x="466" y="60"/>
      <point x="342" y="-2"/>
      <point x="267" y="-2" type="qcurve"/>
      <point x="226" y="-2"/>
      <point x="128" y="15"/>
      <point x="95" y="42" type="qcurve"/>
      <point x="75" y="59"/>
      <point x="51" y="96"/>
      <point x="51" y="124" type="qcurve"/>
      <point x="51" y="138"/>
      <point x="74" y="158"/>
      <point x="106" y="168"/>
      <point x="117" y="168" type="qcurve"/>
      <point x="140" y="168"/>
      <point x="179" y="146"/>
      <point x="179" y="120" type="qcurve"/>
      <point x="179" y="86"/>
      <point x="209" y="35"/>
      <point x="248" y="35" type="qcurve"/>
      <point x="292" y="35"/>
      <point x="349" y="77"/>
      <point x="382" y="145"/>
      <point x="396" y="223"/>
      <point x="396" y="258" type="qcurve"/>
      <point x="396" y="284"/>
      <point x="388" y="341"/>
      <point x="366" y="391"/>
      <point x="324" y="423"/>
      <point x="291" y="423" type="qcurve"/>
      <point x="274" y="423"/>
      <point x="234" y="405"/>
      <point x="221" y="393" type="qcurve"/>
      <point x="205" y="377"/>
      <point x="193" y="332"/>
      <point x="191" y="309" type="qcurve"/>
      <point x="191" y="307"/>
      <point x="191" y="298"/>
      <point x="189" y="296" type="qcurve"/>
      <point x="184" y="287"/>
      <point x="173" y="287" type="qcurve"/>
      <point x="168" y="287"/>
      <point x="138" y="294"/>
      <point x="104" y="304"/>
      <point x="80" y="316"/>
      <point x="80" y="322" type="qcurve"/>
      <point x="80" y="331"/>
      <point x="86" y="352"/>
      <point x="87" y="361" type="qcurve"/>
      <point x="97" y="424"/>
      <point x="99" y="552"/>
      <point x="99" y="616" type="qcurve"/>
      <point x="99" y="670"/>
      <point x="93" y="722" type="qcurve"/>
      <point x="128" y="718"/>
      <point x="197" y="712"/>
      <point x="231" y="712" type="qcurve"/>
      <point x="357" y="712" type="line"/>
      <point x="392" y="712"/>
      <point x="455" y="721"/>
      <point x="484" y="740" type="qcurve"/>
      <point x="489" y="743"/>
      <point x="493" y="743" type="qcurve"/>
      <point x="496" y="743"/>
      <point x="503" y="740"/>
      <point x="503" y="735" type="qcurve"/>
      <point x="503" y="733"/>
      <point x="494" y="706"/>
      <point x="484" y="677"/>
      <point x="482" y="673" type="qcurve"/>
      <point x="475" y="656"/>
      <point x="458" y="651"/>
      <point x="440" y="651" type="qcurve"/>
      <point x="390" y="651"/>
      <point x="289" y="655"/>
      <point x="239" y="654" type="qcurve"/>
      <point x="185" y="654" type="line"/>
      <point x="184" y="595"/>
      <point x="178" y="476"/>
      <point x="175" y="417" type="qcurve"/>
      <point x="214" y="443"/>
      <point x="291" y="460"/>
      <point x="337" y="460" type="qcurve"/>
      <point x="392" y="460"/>
      <point x="483" y="401"/>
      <point x="539" y="306"/>
    </contour>
  </outline>
</glyph>
<glyph name="six" format="2">
  <advance width="590" height="1000"/>
  <unicode hex="0036"/>
  <outline>
    <contour>
      <point x="409" y="214" type="qcurve"/>
      <point x="409" y="240"/>
      <point x="404" y="308"/>
      <point x="386" y="373"/>
      <point x="346" y="416"/>
      <point x="310" y="416" type="qcurve"/>
      <point x="276" y="416"/>
      <point x="218" y="380"/>
      <point x="198" y="354" type="qcurve"/>
      <point x="192" y="332"/>
      <point x="191" y="284"/>
      <point x="191" y="261" type="qcurve"/>
      <point x="191" y="239"/>
      <point x="193" y="178"/>
      <point x="202" y="114"/>
      <point x="224" y="58"/>
      <point x="264" y="23"/>
      <point x="296" y="23" type="qcurve"/>
      <point x="333" y="23"/>
      <point x="378" y="61"/>
      <point x="401" y="120"/>
      <point x="409" y="186"/>
    </contour>
    <contour>
      <point x="547" y="238" type="qcurve"/>
      <point x="547" y="159"/>
      <point x="477" y="50"/>
      <point x="358" y="-6"/>
      <point x="282" y="-6" type="qcurve"/>
      <point x="224" y="-6"/>
      <point x="131" y="46"/>
      <point x="70" y="134"/>
      <point x="58" y="189" type="qcurve"/>
      <point x="53" y="215"/>
      <point x="49" y="269"/>
      <point x="49" y="296" type="qcurve"/>
      <point x="49" y="329"/>
      <point x="66" y="406"/>
      <point x="76" y="437" type="qcurve"/>
      <point x="124" y="572"/>
      <point x="309" y="741"/>
      <point x="447" y="779" type="qcurve"/>
      <point x="458" y="782"/>
      <point x="479" y="786"/>
      <point x="490" y="786" type="qcurve"/>
      <point x="498" y="786"/>
      <point x="498" y="778" type="qcurve"/>
      <point x="498" y="774"/>
      <point x="483" y="768"/>
      <point x="480" y="766" type="qcurve"/>
      <point x="437" y="746"/>
      <point x="358" y="697"/>
      <point x="326" y="662" type="qcurve"/>
      <point x="279" y="612"/>
      <point x="219" y="487"/>
      <point x="202" y="421" type="qcurve"/>
      <point x="237" y="438"/>
      <point x="290" y="452"/>
      <point x="328" y="452" type="qcurve"/>
      <point x="391" y="452"/>
      <point x="490" y="398"/>
      <point x="547" y="301"/>
    </contour>
  </outline>
</glyph>
<glyph name="eight" format="2">
  <advance width="590" height="1000"/>
  <unicode hex="0038"/>
  <outline>
    <contour>
      <point x="417" y="191" type="qcurve"/>
      <point x="417" y="274"/>
      <point x="327" y="359"/>
      <point x="254" y="381" type="qcurve"/>
      <point x="205" y="350"/>
      <point x="156" y="251"/>
      <point x="156" y="194" type="qcurve"/>
      <point x="156" y="152"/>
      <point x="181" y="74"/>
      <point x="239" y="25"/>
      <point x="288" y="25" type="qcurve"/>
      <point x="315" y="25"/>
      <point x="340" y="39" type="qcurve"/>
      <point x="383" y="62"/>
      <point x="417" y="146"/>
    </contour>
    <contour>
      <point x="398" y="577" type="qcurve"/>
      <point x="398" y="632"/>
      <point x="348" y="711"/>
      <point x="287" y="711" type="qcurve"/>
      <point x="253" y="711"/>
      <point x="213" y="671"/>
      <point x="197" y="612"/>
      <point x="197" y="583" type="qcurve"/>
      <point x="197" y="522"/>
      <point x="258" y="453"/>
      <point x="312" y="431" type="qcurve"/>
      <point x="353" y="451"/>
      <point x="398" y="534"/>
    </contour>
    <contour>
      <point x="553" y="228" type="qcurve"/>
      <point x="553" y="153"/>
      <point x="484" y="49"/>
      <point x="367" y="-6"/>
      <point x="296" y="-6" type="qcurve"/>
      <point x="250" y="-6"/>
      <point x="158" y="15"/>
      <point x="82" y="61"/>
      <point x="37" y="136"/>
      <point x="37" y="190" type="qcurve"/>
      <point x="37" y="228"/>
      <point x="71" y="303"/>
      <point x="99" y="328" type="qcurve"/>
      <point x="122" y="349"/>
      <point x="178" y="382"/>
      <point x="205" y="397" type="qcurve"/>
      <point x="174" y="410"/>
      <point x="112" y="453"/>
      <point x="72" y="512"/>
      <point x="72" y="550" type="qcurve"/>
      <point x="72" y="598"/>
      <point x="113" y="669"/>
      <point x="181" y="716"/>
      <point x="265" y="739"/>
      <point x="308" y="739" type="qcurve"/>
      <point x="343" y="739"/>
      <point x="415" y="722"/>
      <point x="475" y="686"/>
      <point x="512" y="628"/>
      <point x="512" y="587" type="qcurve"/>
      <point x="512" y="523"/>
      <point x="434" y="434"/>
      <point x="376" y="413" type="qcurve"/>
      <point x="418" y="399"/>
      <point x="499" y="350"/>
      <point x="553" y="278"/>
    </contour>
  </outline>
</glyph>
<glyph name="nine" format="2">
  <advance width="590" height="1000"/>
  <unicode hex="0039"/>
  <outline>
    <contour>
      <point x="399" y="446" type="qcurve"/>
      <point x="399" y="469"/>
      <point x="398" y="532"/>
      <point x="389" y="601"/>
      <point x="368" y="660"/>
      <point x="327" y="697"/>
      <point x="294" y="697" type="qcurve"/>
      <point x="257" y="697"/>
      <point x="212" y="659"/>
      <point x="189" y="600"/>
      <point x="181" y="534"/>
      <point x="181" y="506" type="qcurve"/>
      <point x="181" y="481"/>
      <point x="186" y="412"/>
      <point x="204" y="347"/>
      <point x="244" y="304"/>
      <point x="280" y="304" type="qcurve"/>
      <point x="315" y="304"/>
      <point x="372" y="341"/>
      <point x="392" y="366" type="qcurve"/>
      <point x="397" y="386"/>
      <point x="399" y="426"/>
    </contour>
    <contour>
      <point x="541" y="424" type="qcurve"/>
      <point x="541" y="390"/>
      <point x="525" y="315"/>
      <point x="514" y="283" type="qcurve"/>
      <point x="466" y="148"/>
      <point x="281" y="-21"/>
      <point x="143" y="-59" type="qcurve"/>
      <point x="133" y="-62"/>
      <point x="111" y="-66"/>
      <point x="100" y="-66" type="qcurve"/>
      <point x="92" y="-66"/>
      <point x="92" y="-58" type="qcurve"/>
      <point x="92" y="-54"/>
      <point x="107" y="-47"/>
      <point x="110" y="-46" type="qcurve"/>
      <point x="154" y="-26"/>
      <point x="232" y="23"/>
      <point x="264" y="58" type="qcurve"/>
      <point x="311" y="108"/>
      <point x="372" y="233"/>
      <point x="388" y="299" type="qcurve"/>
      <point x="354" y="283"/>
      <point x="300" y="268"/>
      <point x="262" y="268" type="qcurve"/>
      <point x="200" y="268"/>
      <point x="100" y="323"/>
      <point x="43" y="419"/>
      <point x="43" y="482" type="qcurve"/>
      <point x="43" y="561"/>
      <point x="113" y="670"/>
      <point x="233" y="726"/>
      <point x="308" y="726" type="qcurve"/>
      <point x="366" y="726"/>
      <point x="459" y="674"/>
      <point x="521" y="586"/>
      <point x="532" y="531" type="qcurve"/>
      <point x="537" y="505"/>
      <point x="541" y="451"/>
    </contour>
  </outline>
</glyph>
<glyph name="colon" format="2">
  <advance width="390" height="1000"/>
  <unicode hex="003A"/>
  <outline>
    <contour>
      <point x="273" y="84" type="qcurve"/>
      <point x="273" y="50"/>
      <point x="229" y="10"/>
      <point x="195" y="10" type="qcurve"/>
      <point x="161" y="10"/>
      <point x="117" y="50"/>
      <point x="117" y="84" type="qcurve"/>
      <point x="117" y="119"/>
      <point x="161" y="158"/>
      <point x="195" y="158" type="qcurve"/>
      <point x="229" y="158"/>
      <point x="273" y="119"/>
    </contour>
    <contour>
      <point x="273" y="442" type="qcurve"/>
      <point x="273" y="408"/>
      <point x="229" y="368"/>
      <point x="195" y="368" type="qcurve"/>
      <point x="161" y="368"/>
      <point x="117" y="408"/>
      <point x="117" y="442" type="qcurve"/>
      <point x="117" y="477"/>
      <point x="161" y="517"/>
      <point x="195" y="517" type="qcurve"/>
      <point x="229" y="517"/>
      <point x="273" y="477"/>
    </contour>
  </outline>
</glyph>
<glyph name="semicolon" format="2">
  <advance width="390" height="1000"/>
  <unicode hex="003B"/>
  <outline>
    <contour>
      <point x="273" y="49" type="qcurve"/>
      <point x="273" y="20"/>
      <point x="248" y="-52"/>
      <point x="209" y="-117"/>
      <point x="188" y="-137" type="qcurve"/>
      <point x="159" y="-128" type="line"/>
      <point x="170" y="-111"/>
      <point x="192" y="-60"/>
      <point x="206" y="-7"/>
      <point x="205" y="13" type="qcurve"/>
      <point x="197" y="8"/>
      <point x="178" y="5"/>
      <point x="168" y="5" type="qcurve"/>
      <point x="149" y="5"/>
      <point x="118" y="42"/>
      <point x="118" y="61" type="qcurve"/>
      <point x="118" y="96"/>
      <point x="160" y="141"/>
      <point x="196" y="141" type="qcurve"/>
      <point x="239" y="141"/>
      <point x="273" y="87"/>
    </contour>
    <contour>
      <point x="272" y="441" type="qcurve"/>
      <point x="272" y="407"/>
      <point x="228" y="367"/>
      <point x="194" y="367" type="qcurve"/>
      <point x="161" y="367"/>
      <point x="117" y="407"/>
      <point x="117" y="441" type="qcurve"/>
      <point x="117" y="476"/>
      <point x="161" y="516"/>
      <point x="194" y="516" type="qcurve"/>
      <point x="228" y="516"/>
      <point x="272" y="476"/>
    </contour>
  </outline>
</glyph>
<glyph name="equal" format="2">
  <advance width="750" height="1000"/>
  <unicode hex="003D"/>
  <outline>
    <contour>
      <point x="678" y="257" type="line"/>
      <point x="73" y="257" type="line"/>
      <point x="73" y="312" type="line"/>
      <point x="678" y="312" type="line"/>
    </contour>
    <contour>
      <point x="678" y="414" type="line"/>
      <point x="73" y="414" type="line"/>
      <point x="73" y="469" type="line"/>
      <point x="678" y="469" type="line"/>
    </contour>
  </outline>
</glyph>
<glyph name="greater" format="2">
  <advance width="780" height="1000"/>
  <unicode hex="003E"/>
  <outline>
    <contour>
      <point x="685" y="359" type="line"/>
      <point x="66" y="42" type="line"/>
      <point x="66" y="121" type="line"/>
      <point x="561" y="359" type="line"/>
      <point x="66" y="594" type="line"/>
      <point x="66" y="674" type="line"/>
    </contour>
  </outline>
</glyph>
<glyph name="C" format="2">
  <advance width="725" height="1000"/>
  <unicode hex="0043"/>
  <outline>
    <contour>
      <point x="708" y="168" type="qcurve"/>
      <point x="708" y="163"/>
      <point x="698" y="145"/>
      <point x="696" y="140" type="qcurve"/>
      <point x="683" y="117"/>
      <point x="629" y="67"/>
      <point x="606" y="51" type="qcurve"/>
      <point x="559" y="18"/>
      <point x="455" y="-2"/>
      <point x="399" y="-2" type="qcurve"/>
      <point x="290" y="-2"/>
      <point x="136" y="89"/>
      <point x="55" y="252"/>
      <point x="55" y="359" type="qcurve"/>
      <point x="55" y="465"/>
      <point x="133" y="635"/>
      <point x="286" y="736"/>
      <point x="397" y="736" type="qcurve"/>
      <point x="447" y="736"/>
      <point x="517" y="712"/>
      <point x="561" y="696" type="qcurve"/>
      <point x="582" y="689"/>
      <point x="624" y="682"/>
      <point x="646" y="680" type="qcurve"/>
      <point x="647" y="658"/>
      <point x="651" y="613"/>
      <point x="654" y="590" type="qcurve"/>
      <point x="656" y="571"/>
      <point x="666" y="531"/>
      <point x="666" y="511" type="qcurve"/>
      <point x="666" y="492"/>
      <point x="639" y="474"/>
      <point x="622" y="474" type="qcurve"/>
      <point x="594" y="474"/>
      <point x="583" y="497" type="qcurve"/>
      <point x="580" y="505"/>
      <point x="578" y="524"/>
      <point x="576" y="531" type="qcurve"/>
      <point x="569" y="563"/>
      <point x="534" y="638"/>
      <point x="510" y="660" type="qcurve"/>
      <point x="491" y="677"/>
      <point x="425" y="704"/>
      <point x="399" y="704" type="qcurve"/>
      <point x="374" y="704"/>
      <point x="331" y="682"/>
      <point x="311" y="666" type="qcurve"/>
      <point x="268" y="630"/>
      <point x="218" y="530"/>
      <point x="198" y="417"/>
      <point x="198" y="363" type="qcurve"/>
      <point x="198" y="327"/>
      <point x="207" y="256"/>
      <point x="217" y="221" type="qcurve"/>
      <point x="231" y="174"/>
      <point x="284" y="91"/>
      <point x="363" y="40"/>
      <point x="415" y="40" type="qcurve"/>
      <point x="489" y="40"/>
      <point x="610" y="114"/>
      <point x="650" y="174" type="qcurve"/>
      <point x="656" y="184"/>
      <point x="669" y="199"/>
      <point x="682" y="199" type="qcurve"/>
      <point x="695" y="199"/>
      <point x="708" y="179"/>
    </contour>
  </outline>
</glyph>
<glyph name="J" format="2">
  <advance width="456" height="1000"/>
  <unicode hex="004A"/>
  <outline>
    <contour>
      <point x="428" y="714" type="qcurve"/>
      <point x="428" y="707"/>
      <point x="417" y="695"/>
      <point x="409" y="695" type="qcurve"/>
      <point x="399" y="695"/>
      <point x="377" y="696"/>
      <point x="366" y="696" type="qcurve"/>
      <point x="349" y="696"/>
      <point x="335" y="674"/>
      <point x="334" y="645"/>
      <point x="334" y="632" type="qcurve"/>
      <point x="333" y="499"/>
      <point x="334" y="232"/>
      <point x="334" y="98" type="qcurve"/>
      <point x="334" y="20"/>
      <point x="292" y="-106"/>
      <point x="191" y="-181"/>
      <point x="103" y="-181" type="qcurve"/>
      <point x="82" y="-181"/>
      <point x="38" y="-180"/>
      <point x="17" y="-176" type="qcurve"/>
      <point x="1" y="-172"/>
      <point x="-39" y="-152"/>
      <point x="-69" y="-121"/>
      <point x="-69" y="-103" type="qcurve"/>
      <point x="-69" y="-73"/>
      <point x="-19" y="-47"/>
      <point x="6" y="-47" type="qcurve"/>
      <point x="27" y="-47"/>
      <point x="72" y="-67"/>
      <point x="72" y="-93" type="qcurve"/>
      <point x="64" y="-97"/>
      <point x="46" y="-112"/>
      <point x="46" y="-123" type="qcurve"/>
      <point x="46" y="-134"/>
      <point x="66" y="-147"/>
      <point x="93" y="-151"/>
      <point x="101" y="-151" type="qcurve"/>
      <point x="137" y="-151"/>
      <point x="175" y="-116"/>
      <point x="189" y="-61"/>
      <point x="190" y="0"/>
      <point x="190" y="25" type="qcurve"/>
      <point x="190" y="632" type="line"/>
      <point x="190" y="642"/>
      <point x="189" y="671"/>
      <point x="180" y="695"/>
      <point x="167" y="697" type="qcurve"/>
      <point x="164" y="698"/>
      <point x="157" y="698"/>
      <point x="153" y="698" type="qcurve"/>
      <point x="140" y="698"/>
      <point x="115" y="695"/>
      <point x="101" y="695" type="qcurve"/>
      <point x="94" y="695"/>
      <point x="85" y="707"/>
      <point x="85" y="714" type="qcurve"/>
      <point x="85" y="721"/>
      <point x="93" y="734"/>
      <point x="101" y="734" type="qcurve"/>
      <point x="113" y="734"/>
      <point x="138" y="733"/>
      <point x="150" y="732" type="qcurve"/>
      <point x="177" y="731"/>
      <point x="231" y="730"/>
      <point x="259" y="730" type="qcurve"/>
      <point x="297" y="730"/>
      <point x="372" y="734"/>
      <point x="409" y="734" type="qcurve"/>
      <point x="428" y="734"/>
    </contour>
  </outline>
</glyph>
<glyph name="K" format="2">
  <advance width="722" height="1000"/>
  <unicode hex="004B"/>
  <outline>
    <contour>
      <point x="721" y="16" type="qcurve"/>
      <point x="721" y="15"/>
      <point x="721" y="10"/>
      <point x="720" y="8" type="qcurve"/>
      <point x="716" y="0"/>
      <point x="704" y="0" type="qcurve"/>
      <point x="682" y="0"/>
      <point x="639" y="0"/>
      <point x="617" y="0" type="qcurve"/>
      <point x="553" y="0" type="line"/>
      <point x="525" y="0"/>
      <point x="498" y="18"/>
      <point x="483" y="40" type="qcurve"/>
      <point x="426" y="122"/>
      <point x="312" y="285"/>
      <point x="254" y="367" type="qcurve"/>
      <point x="241" y="357" type="line"/>
      <point x="242" y="282"/>
      <point x="242" y="132"/>
      <point x="242" y="58" type="qcurve"/>
      <point x="242" y="49"/>
      <point x="251" y="32"/>
      <point x="261" y="32" type="qcurve"/>
      <point x="274" y="32"/>
      <point x="300" y="34"/>
      <point x="313" y="34" type="qcurve"/>
      <point x="320" y="34"/>
      <point x="327" y="22"/>
      <point x="327" y="16" type="qcurve"/>
      <point x="327" y="11"/>
      <point x="319" y="-2"/>
      <point x="313" y="-2" type="qcurve"/>
      <point x="289" y="-2"/>
      <point x="242" y="1"/>
      <point x="219" y="1" type="qcurve"/>
      <point x="185" y="1"/>
      <point x="118" y="2"/>
      <point x="85" y="0" type="qcurve"/>
      <point x="72" y="-1"/>
      <point x="46" y="-2"/>
      <point x="32" y="-2" type="qcurve"/>
      <point x="23" y="-2"/>
      <point x="15" y="10"/>
      <point x="15" y="18" type="qcurve"/>
      <point x="15" y="34"/>
      <point x="32" y="34" type="qcurve"/>
      <point x="44" y="34"/>
      <point x="67" y="32"/>
      <point x="78" y="32" type="qcurve"/>
      <point x="98" y="32"/>
      <point x="106" y="54"/>
      <point x="106" y="70" type="qcurve"/>
      <point x="106" y="645" type="line"/>
      <point x="106" y="679"/>
      <point x="95" y="702"/>
      <point x="65" y="703"/>
      <point x="36" y="703" type="qcurve"/>
      <point x="30" y="703"/>
      <point x="17" y="710"/>
      <point x="17" y="717" type="qcurve"/>
      <point x="17" y="724"/>
      <point x="23" y="736"/>
      <point x="31" y="736" type="qcurve"/>
      <point x="53" y="736"/>
      <point x="96" y="733"/>
      <point x="118" y="733" type="qcurve"/>
      <point x="153" y="733"/>
      <point x="223" y="733"/>
      <point x="257" y="733" type="qcurve"/>
      <point x="271" y="733"/>
      <point x="300" y="736"/>
      <point x="314" y="736" type="qcurve"/>
      <point x="320" y="736"/>
      <point x="327" y="725"/>
      <point x="327" y="720" type="qcurve"/>
      <point x="327" y="715"/>
      <point x="320" y="703"/>
      <point x="314" y="703" type="qcurve"/>
      <point x="301" y="703"/>
      <point x="275" y="704"/>
      <point x="262" y="704" type="qcurve"/>
      <point x="252" y="704"/>
      <point x="242" y="688"/>
      <point x="242" y="679" type="qcurve"/>
      <point x="242" y="643"/>
      <point x="241" y="570"/>
      <point x="241" y="534" type="qcurve"/>
      <point x="241" y="399" type="line"/>
      <point x="312" y="467"/>
      <point x="445" y="607"/>
      <point x="505" y="684" type="qcurve"/>
      <point x="516" y="697"/>
      <point x="520" y="715" type="qcurve"/>
      <point x="524" y="729"/>
      <point x="532" y="735"/>
      <point x="546" y="735" type="qcurve"/>
      <point x="576" y="734" type="line"/>
      <point x="599" y="734"/>
      <point x="645" y="736"/>
      <point x="668" y="736" type="qcurve"/>
      <point x="685" y="736"/>
      <point x="685" y="719" type="qcurve"/>
      <point x="685" y="706"/>
      <point x="669" y="701"/>
      <point x="659" y="701" type="qcurve"/>
      <point x="639" y="701"/>
      <point x="602" y="684"/>
      <point x="587" y="670" type="qcurve"/>
      <point x="349" y="443" type="line"/>
      <point x="420" y="343"/>
      <point x="569" y="149"/>
      <point x="645" y="54" type="qcurve"/>
      <point x="659" y="37"/>
      <point x="695" y="29"/>
      <point x="721" y="26"/>
    </contour>
  </outline>
</glyph>
<glyph name="L" format="2">
  <advance width="670" height="1000"/>
  <unicode hex="004C"/>
  <outline>
    <contour>
      <point x="653" y="230" type="qcurve"/>
      <point x="653" y="214"/>
      <point x="649" y="182"/>
      <point x="647" y="165" type="qcurve"/>
      <point x="643" y="130"/>
      <point x="633" y="60"/>
      <point x="630" y="25" type="qcurve"/>
      <point x="630" y="15"/>
      <point x="626" y="8" type="qcurve"/>
      <point x="621" y="1"/>
      <point x="601" y="-2"/>
      <point x="593" y="-2" type="qcurve"/>
      <point x="581" y="-2"/>
      <point x="557" y="-1"/>
      <point x="544" y="-1" type="qcurve"/>
      <point x="481" y="0"/>
      <point x="355" y="0"/>
      <point x="292" y="0" type="qcurve"/>
      <point x="178" y="0" type="line"/>
      <point x="156" y="0"/>
      <point x="113" y="0"/>
      <point x="91" y="-1" type="qcurve"/>
      <point x="80" y="-2"/>
      <point x="58" y="-3"/>
      <point x="47" y="-3" type="qcurve"/>
      <point x="38" y="-3"/>
      <point x="25" y="7"/>
      <point x="25" y="16" type="qcurve"/>
      <point x="25" y="26"/>
      <point x="38" y="36"/>
      <point x="46" y="36" type="qcurve"/>
      <point x="54" y="36"/>
      <point x="71" y="34"/>
      <point x="79" y="34" type="qcurve"/>
      <point x="95" y="34"/>
      <point x="113" y="43"/>
      <point x="113" y="61" type="qcurve"/>
      <point x="113" y="216"/>
      <point x="113" y="527"/>
      <point x="112" y="681" type="qcurve"/>
      <point x="112" y="693"/>
      <point x="103" y="700"/>
      <point x="92" y="700" type="qcurve"/>
      <point x="81" y="700"/>
      <point x="58" y="698"/>
      <point x="46" y="698" type="qcurve"/>
      <point x="39" y="698"/>
      <point x="27" y="708"/>
      <point x="27" y="716" type="qcurve"/>
      <point x="27" y="735"/>
      <point x="47" y="735" type="qcurve"/>
      <point x="58" y="735"/>
      <point x="82" y="733"/>
      <point x="94" y="732" type="qcurve"/>
      <point x="118" y="731"/>
      <point x="165" y="730"/>
      <point x="189" y="730" type="qcurve"/>
      <point x="209" y="730"/>
      <point x="248" y="730"/>
      <point x="267" y="731" type="qcurve"/>
      <point x="281" y="732"/>
      <point x="307" y="735"/>
      <point x="320" y="735" type="qcurve"/>
      <point x="336" y="735"/>
      <point x="336" y="718" type="qcurve"/>
      <point x="336" y="711"/>
      <point x="328" y="698"/>
      <point x="320" y="698" type="qcurve"/>
      <point x="307" y="698"/>
      <point x="282" y="700"/>
      <point x="268" y="700" type="qcurve"/>
      <point x="257" y="700"/>
      <point x="252" y="689"/>
      <point x="252" y="679" type="qcurve"/>
      <point x="252" y="642"/>
      <point x="251" y="570"/>
      <point x="251" y="533" type="qcurve"/>
      <point x="251" y="417"/>
      <point x="252" y="183"/>
      <point x="252" y="67" type="qcurve"/>
      <point x="252" y="57"/>
      <point x="262" y="39"/>
      <point x="272" y="36" type="qcurve"/>
      <point x="285" y="33"/>
      <point x="313" y="33"/>
      <point x="326" y="33" type="qcurve"/>
      <point x="401" y="33"/>
      <point x="511" y="63"/>
      <point x="588" y="144"/>
      <point x="613" y="221" type="qcurve"/>
      <point x="616" y="230"/>
      <point x="626" y="245"/>
      <point x="636" y="245" type="qcurve"/>
      <point x="642" y="245"/>
      <point x="653" y="237"/>
    </contour>
  </outline>
</glyph>
<glyph name="P" format="2">
  <advance width="624" height="1000"/>
  <unicode hex="0050"/>
  <outline>
    <contour>
      <point x="465" y="549" type="qcurve"/>
      <point x="465" y="591"/>
      <point x="437" y="661"/>
      <point x="378" y="702"/>
      <point x="333" y="702" type="qcurve"/>
      <point x="323" y="702"/>
      <point x="303" y="703"/>
      <point x="293" y="703" type="qcurve"/>
      <point x="268" y="703"/>
      <point x="254" y="694"/>
      <point x="254" y="666" type="qcurve"/>
      <point x="254" y="598"/>
      <point x="254" y="460"/>
      <point x="255" y="392" type="qcurve"/>
      <point x="270" y="379"/>
      <point x="310" y="372"/>
      <point x="329" y="372" type="qcurve"/>
      <point x="381" y="372"/>
      <point x="440" y="423"/>
      <point x="465" y="505"/>
    </contour>
    <contour>
      <point x="609" y="552" type="qcurve"/>
      <point x="609" y="486"/>
      <point x="563" y="403"/>
      <point x="484" y="357"/>
      <point x="383" y="340"/>
      <point x="327" y="340" type="qcurve"/>
      <point x="309" y="340"/>
      <point x="273" y="344"/>
      <point x="255" y="346" type="qcurve"/>
      <point x="255" y="273"/>
      <point x="255" y="128"/>
      <point x="255" y="55" type="qcurve"/>
      <point x="255" y="47"/>
      <point x="262" y="29"/>
      <point x="272" y="29" type="qcurve"/>
      <point x="285" y="29"/>
      <point x="310" y="31"/>
      <point x="323" y="31" type="qcurve"/>
      <point x="330" y="31"/>
      <point x="339" y="15"/>
      <point x="339" y="10" type="qcurve"/>
      <point x="339" y="3"/>
      <point x="329" y="-5"/>
      <point x="323" y="-5" type="qcurve"/>
      <point x="310" y="-5"/>
      <point x="284" y="-3"/>
      <point x="270" y="-2" type="qcurve"/>
      <point x="250" y="0"/>
      <point x="208" y="0"/>
      <point x="188" y="0" type="qcurve"/>
      <point x="140" y="0"/>
      <point x="93" y="-3" type="qcurve"/>
      <point x="82" y="-4"/>
      <point x="61" y="-5"/>
      <point x="50" y="-5" type="qcurve"/>
      <point x="40" y="-5"/>
      <point x="34" y="8"/>
      <point x="34" y="15" type="qcurve"/>
      <point x="34" y="23"/>
      <point x="46" y="30"/>
      <point x="53" y="30" type="qcurve"/>
      <point x="62" y="30"/>
      <point x="80" y="28"/>
      <point x="90" y="28" type="qcurve"/>
      <point x="92" y="28"/>
      <point x="98" y="28"/>
      <point x="100" y="28" type="qcurve"/>
      <point x="114" y="29"/>
      <point x="119" y="59"/>
      <point x="119" y="69" type="qcurve"/>
      <point x="119" y="658" type="line"/>
      <point x="119" y="666"/>
      <point x="115" y="697"/>
      <point x="103" y="698" type="qcurve"/>
      <point x="100" y="698"/>
      <point x="95" y="698"/>
      <point x="93" y="698" type="qcurve"/>
      <point x="83" y="698"/>
      <point x="63" y="696"/>
      <point x="53" y="696" type="qcurve"/>
      <point x="46" y="696"/>
      <point x="33" y="708"/>
      <point x="33" y="715" type="qcurve"/>
      <point x="33" y="722"/>
      <point x="46" y="734"/>
      <point x="53" y="734" type="qcurve"/>
      <point x="64" y="734"/>
      <point x="87" y="732"/>
      <point x="98" y="731" type="qcurve"/>
      <point x="121" y="730"/>
      <point x="166" y="729"/>
      <point x="188" y="729" type="qcurve"/>
      <point x="234" y="729"/>
      <point x="325" y="734"/>
      <point x="371" y="734" type="qcurve"/>
      <point x="415" y="734"/>
      <point x="500" y="715"/>
      <point x="568" y="673"/>
      <point x="609" y="603"/>
    </contour>
  </outline>
</glyph>
<glyph name="Q" format="2">
  <advance width="820" height="1000"/>
  <unicode hex="0051"/>
  <outline>
    <contour>
      <point x="434" y="26" type="qcurve"/>
      <point x="418" y="58"/>
      <point x="391" y="122"/>
      <point x="377" y="155" type="qcurve"/>
      <point x="373" y="163"/>
      <point x="364" y="179"/>
      <point x="358" y="185" type="qcurve"/>
      <point x="347" y="196"/>
      <point x="333" y="196" type="qcurve"/>
      <point x="316" y="196"/>
      <point x="290" y="167"/>
      <point x="274" y="129"/>
      <point x="271" y="115" type="qcurve"/>
      <point x="283" y="94"/>
      <point x="333" y="53"/>
      <point x="392" y="25"/>
      <point x="416" y="25" type="qcurve"/>
      <point x="421" y="25"/>
      <point x="430" y="26"/>
    </contour>
    <contour>
      <point x="612" y="358" type="qcurve"/>
      <point x="612" y="406"/>
      <point x="594" y="518"/>
      <point x="552" y="623"/>
      <point x="478" y="698"/>
      <point x="422" y="708" type="qcurve"/>
      <point x="418" y="709"/>
      <point x="411" y="709"/>
      <point x="407" y="709" type="qcurve"/>
      <point x="403" y="709"/>
      <point x="397" y="709"/>
      <point x="393" y="708" type="qcurve"/>
      <point x="339" y="698"/>
      <point x="268" y="622"/>
      <point x="225" y="516"/>
      <point x="207" y="404"/>
      <point x="207" y="358" type="qcurve"/>
      <point x="207" y="329"/>
      <point x="212" y="259"/>
      <point x="228" y="191"/>
      <point x="242" y="165" type="qcurve"/>
      <point x="253" y="179"/>
      <point x="290" y="214"/>
      <point x="333" y="240"/>
      <point x="352" y="240" type="qcurve"/>
      <point x="396" y="240"/>
      <point x="447" y="212"/>
      <point x="472" y="175" type="qcurve"/>
      <point x="488" y="151"/>
      <point x="512" y="100"/>
      <point x="524" y="74" type="qcurve"/>
      <point x="563" y="110"/>
      <point x="601" y="204"/>
      <point x="612" y="308"/>
    </contour>
    <contour>
      <point x="796" y="-45" type="qcurve"/>
      <point x="796" y="-48"/>
      <point x="794" y="-52" type="qcurve"/>
      <point x="769" y="-88"/>
      <point x="699" y="-121"/>
      <point x="655" y="-121" type="qcurve"/>
      <point x="620" y="-121"/>
      <point x="556" y="-110"/>
      <point x="527" y="-88" type="qcurve"/>
      <point x="505" y="-71"/>
      <point x="466" y="-25"/>
      <point x="450" y="-2" type="qcurve"/>
      <point x="441" y="-3"/>
      <point x="422" y="-3"/>
      <point x="413" y="-3" type="qcurve"/>
      <point x="334" y="-3"/>
      <point x="206" y="52"/>
      <point x="114" y="151"/>
      <point x="65" y="284"/>
      <point x="65" y="361" type="qcurve"/>
      <point x="65" y="440"/>
      <point x="112" y="578"/>
      <point x="203" y="682"/>
      <point x="333" y="740"/>
      <point x="415" y="740" type="qcurve"/>
      <point x="532" y="740"/>
      <point x="684" y="640"/>
      <point x="759" y="468"/>
      <point x="759" y="358" type="qcurve"/>
      <point x="759" y="290"/>
      <point x="711" y="162"/>
      <point x="623" y="59"/>
      <point x="562" y="27" type="qcurve"/>
      <point x="578" y="7"/>
      <point x="622" y="-40"/>
      <point x="674" y="-72"/>
      <point x="701" y="-72" type="qcurve"/>
      <point x="721" y="-72"/>
      <point x="752" y="-51"/>
      <point x="775" y="-31"/>
      <point x="782" y="-31" type="qcurve"/>
      <point x="787" y="-31"/>
      <point x="796" y="-39"/>
    </contour>
  </outline>
</glyph>
<glyph name="X" format="2">
  <advance width="765" height="1000"/>
  <unicode hex="0058"/>
  <outline>
    <contour>
      <point x="763" y="19" type="qcurve"/>
      <point x="763" y="5"/>
      <point x="747" y="-1"/>
      <point x="735" y="-1" type="qcurve"/>
      <point x="703" y="-1"/>
      <point x="637" y="0"/>
      <point x="604" y="0" type="qcurve"/>
      <point x="570" y="0"/>
      <point x="500" y="-2"/>
      <point x="465" y="-2" type="qcurve"/>
      <point x="458" y="-2"/>
      <point x="447" y="4"/>
      <point x="447" y="12" type="qcurve"/>
      <point x="447" y="29"/>
      <point x="477" y="29"/>
      <point x="488" y="29" type="qcurve"/>
      <point x="494" y="29"/>
      <point x="509" y="33"/>
      <point x="509" y="40" type="qcurve"/>
      <point x="509" y="48"/>
      <point x="481" y="101"/>
      <point x="439" y="172"/>
      <point x="395" y="244"/>
      <point x="359" y="300"/>
      <point x="353" y="310" type="qcurve"/>
      <point x="346" y="299"/>
      <point x="306" y="239"/>
      <point x="254" y="162"/>
      <point x="205" y="88"/>
      <point x="172" y="36"/>
      <point x="172" y="32" type="qcurve"/>
      <point x="172" y="28"/>
      <point x="179" y="25"/>
      <point x="183" y="25" type="qcurve"/>
      <point x="199" y="25"/>
      <point x="229" y="28"/>
      <point x="245" y="28" type="qcurve"/>
      <point x="260" y="28"/>
      <point x="260" y="13" type="qcurve"/>
      <point x="260" y="-4"/>
      <point x="243" y="-4" type="qcurve"/>
      <point x="233" y="-4"/>
      <point x="213" y="-3"/>
      <point x="203" y="-3" type="qcurve"/>
      <point x="182" y="-2"/>
      <point x="141" y="-2"/>
      <point x="120" y="-2" type="qcurve"/>
      <point x="95" y="-2"/>
      <point x="44" y="-5"/>
      <point x="18" y="-5" type="qcurve"/>
      <point x="13" y="-5"/>
      <point x="2" y="8"/>
      <point x="2" y="12" type="qcurve"/>
      <point x="2" y="29"/>
      <point x="31" y="28"/>
      <point x="41" y="28" type="qcurve"/>
      <point x="58" y="28"/>
      <point x="85" y="34"/>
      <point x="98" y="45" type="qcurve"/>
      <point x="111" y="56"/>
      <point x="132" y="81"/>
      <point x="142" y="94" type="qcurve"/>
      <point x="187" y="150"/>
      <point x="284" y="286"/>
      <point x="321" y="347" type="qcurve"/>
      <point x="286" y="403"/>
      <point x="217" y="513"/>
      <point x="182" y="568" type="qcurve"/>
      <point x="164" y="596"/>
      <point x="129" y="653"/>
      <point x="109" y="680" type="qcurve"/>
      <point x="105" y="686"/>
      <point x="94" y="689"/>
      <point x="86" y="689" type="qcurve"/>
      <point x="74" y="689"/>
      <point x="51" y="685"/>
      <point x="39" y="685" type="qcurve"/>
      <point x="21" y="685"/>
      <point x="21" y="705" type="qcurve"/>
      <point x="21" y="724"/>
      <point x="43" y="724" type="qcurve"/>
      <point x="71" y="724"/>
      <point x="128" y="731"/>
      <point x="156" y="734" type="qcurve"/>
      <point x="170" y="736"/>
      <point x="200" y="742"/>
      <point x="213" y="742" type="qcurve"/>
      <point x="225" y="742"/>
      <point x="234" y="734"/>
      <point x="239" y="724" type="qcurve"/>
      <point x="255" y="696"/>
      <point x="284" y="639"/>
      <point x="300" y="610" type="qcurve"/>
      <point x="324" y="567"/>
      <point x="375" y="481"/>
      <point x="400" y="437" type="qcurve"/>
      <point x="407" y="449"/>
      <point x="440" y="502"/>
      <point x="479" y="566"/>
      <point x="515" y="630"/>
      <point x="539" y="679"/>
      <point x="539" y="688" type="qcurve"/>
      <point x="539" y="697"/>
      <point x="532" y="698" type="qcurve"/>
      <point x="522" y="701"/>
      <point x="498" y="700"/>
      <point x="487" y="700" type="qcurve"/>
      <point x="478" y="700"/>
      <point x="462" y="704"/>
      <point x="462" y="716" type="qcurve"/>
      <point x="462" y="733"/>
      <point x="478" y="733" type="qcurve"/>
      <point x="495" y="733"/>
      <point x="530" y="731"/>
      <point x="547" y="731" type="qcurve"/>
      <point x="577" y="731"/>
      <point x="638" y="732"/>
      <point x="668" y="733" type="qcurve"/>
      <point x="678" y="734"/>
      <point x="697" y="735"/>
      <point x="707" y="735" type="qcurve"/>
      <point x="723" y="735"/>
      <point x="723" y="717" type="qcurve"/>
      <point x="723" y="704"/>
      <point x="704" y="696"/>
      <point x="676" y="696"/>
      <point x="648" y="694"/>
      <point x="639" y="686" type="qcurve"/>
      <point x="633" y="682"/>
      <point x="622" y="672"/>
      <point x="618" y="666" type="qcurve"/>
      <point x="572" y="600"/>
      <point x="480" y="468"/>
      <point x="433" y="403" type="qcurve"/>
      <point x="467" y="350"/>
      <point x="536" y="245"/>
      <point x="572" y="193" type="qcurve"/>
      <point x="595" y="160"/>
      <point x="640" y="93"/>
      <point x="665" y="62" type="qcurve"/>
      <point x="682" y="40"/>
      <point x="720" y="35"/>
      <point x="745" y="35" type="qcurve"/>
      <point x="763" y="35"/>
    </contour>
  </outline>
</glyph>
<glyph name="Z" format="2">
  <advance width="645" height="1000"/>
  <unicode hex="005A"/>
  <outline>
    <contour>
      <point x="621" y="229" type="qcurve"/>
      <point x="621" y="219"/>
      <point x="618" y="198"/>
      <point x="617" y="187" type="qcurve"/>
      <point x="615" y="168"/>
      <point x="609" y="130"/>
      <point x="607" y="111" type="qcurve"/>
      <point x="604" y="89"/>
      <point x="602" y="46"/>
      <point x="600" y="24" type="qcurve"/>
      <point x="599" y="13"/>
      <point x="591" y="-4"/>
      <point x="577" y="-4" type="qcurve"/>
      <point x="567" y="-4"/>
      <point x="549" y="0"/>
      <point x="540" y="1" type="qcurve"/>
      <point x="533" y="1"/>
      <point x="520" y="2"/>
      <point x="513" y="2" type="qcurve"/>
      <point x="416" y="2"/>
      <point x="221" y="-1"/>
      <point x="123" y="-1" type="qcurve"/>
      <point x="107" y="-1"/>
      <point x="75" y="-1"/>
      <point x="59" y="-3" type="qcurve"/>
      <point x="55" y="-4"/>
      <point x="46" y="-5"/>
      <point x="41" y="-5" type="qcurve"/>
      <point x="29" y="-5"/>
      <point x="18" y="13"/>
      <point x="18" y="23" type="qcurve"/>
      <point x="18" y="34"/>
      <point x="22" y="42" type="qcurve"/>
      <point x="26" y="50"/>
      <point x="38" y="67"/>
      <point x="43" y="74" type="qcurve"/>
      <point x="92" y="145"/>
      <point x="189" y="285"/>
      <point x="233" y="358" type="qcurve"/>
      <point x="242" y="372"/>
      <point x="281" y="436"/>
      <point x="330" y="515"/>
      <point x="375" y="593"/>
      <point x="404" y="653"/>
      <point x="404" y="665" type="qcurve"/>
      <point x="404" y="685"/>
      <point x="373" y="694"/>
      <point x="358" y="694" type="qcurve"/>
      <point x="317" y="694" type="line"/>
      <point x="294" y="694"/>
      <point x="246" y="693"/>
      <point x="223" y="689" type="qcurve"/>
      <point x="189" y="683"/>
      <point x="128" y="625"/>
      <point x="114" y="593" type="qcurve"/>
      <point x="109" y="580"/>
      <point x="101" y="556"/>
      <point x="97" y="543" type="qcurve"/>
      <point x="91" y="518"/>
      <point x="68" y="518" type="qcurve"/>
      <point x="59" y="518"/>
      <point x="46" y="530"/>
      <point x="46" y="538" type="qcurve"/>
      <point x="46" y="554"/>
      <point x="49" y="584"/>
      <point x="50" y="599" type="qcurve"/>
      <point x="52" y="628"/>
      <point x="52" y="687"/>
      <point x="54" y="716" type="qcurve"/>
      <point x="55" y="725"/>
      <point x="61" y="732"/>
      <point x="70" y="732" type="qcurve"/>
      <point x="83" y="732"/>
      <point x="107" y="730"/>
      <point x="119" y="729" type="qcurve"/>
      <point x="157" y="726"/>
      <point x="236" y="725"/>
      <point x="275" y="725" type="qcurve"/>
      <point x="353" y="725"/>
      <point x="510" y="730"/>
      <point x="589" y="730" type="qcurve"/>
      <point x="594" y="730"/>
      <point x="604" y="718"/>
      <point x="604" y="713" type="qcurve"/>
      <point x="604" y="700"/>
      <point x="597" y="688"/>
      <point x="590" y="679" type="qcurve"/>
      <point x="212" y="107" type="line"/>
      <point x="205" y="96"/>
      <point x="194" y="72"/>
      <point x="194" y="59" type="qcurve"/>
      <point x="194" y="43"/>
      <point x="221" y="37"/>
      <point x="233" y="37" type="qcurve"/>
      <point x="280" y="37"/>
      <point x="372" y="43"/>
      <point x="418" y="47" type="qcurve"/>
      <point x="438" y="49"/>
      <point x="482" y="63"/>
      <point x="497" y="77" type="qcurve"/>
      <point x="525" y="103"/>
      <point x="567" y="185"/>
      <point x="578" y="221" type="qcurve"/>
      <point x="581" y="231"/>
      <point x="589" y="246"/>
      <point x="601" y="246" type="qcurve"/>
      <point x="609" y="246"/>
      <point x="621" y="237"/>
    </contour>
  </outline>
</glyph>
<glyph name="bracketleft" format="2">
  <advance width="450" height="1000"/>
  <unicode hex="005B"/>
  <outline>
    <contour>
      <point x="432" y="-99" type="line"/>
      <point x="162" y="-99" type="line"/>
      <point x="162" y="854" type="line"/>
      <point x="432" y="854" type="line"/>
      <point x="432" y="814" type="line"/>
      <point x="253" y="814" type="line"/>
      <point x="253" y="-60" type="line"/>
      <point x="432" y="-60" type="line"/>
    </contour>
  </outline>
</glyph>
<glyph name="backslash" format="2">
  <advance width="500" height="1000"/>
  <unicode hex="005C"/>
  <outline>
    <contour>
      <point x="459" y="-64" type="line"/>
      <point x="419" y="-80" type="line"/>
      <point x="42" y="777" type="line"/>
      <point x="83" y="793" type="line"/>
    </contour>
  </outline>
</glyph>
<glyph name="c" format="2">
  <advance width="540" height="1000"/>
  <unicode hex="0063"/>
  <outline>
    <contour>
      <point x="529" y="133" type="qcurve"/>
      <point x="529" y="129"/>
      <point x="525" y="120"/>
      <point x="523" y="116" type="qcurve"/>
      <point x="502" y="77"/>
      <point x="431" y="24"/>
      <point x="345" y="-4"/>
      <point x="302" y="-4" type="qcurve"/>
      <point x="265" y="-4"/>
      <point x="177" y="20"/>
      <point x="145" y="42" type="qcurve"/>
      <point x="93" y="80"/>
      <point x="44" y="192"/>
      <point x="44" y="255" type="qcurve"/>
      <point x="44" y="333"/>
      <point x="104" y="462"/>
      <point x="219" y="540"/>
      <point x="301" y="540" type="qcurve"/>
      <point x="331" y="540"/>
      <point x="358" y="531" type="qcurve"/>
      <point x="366" y="529"/>
      <point x="401" y="512"/>
      <point x="435" y="498"/>
      <point x="439" y="498" type="qcurve"/>
      <point x="450" y="498"/>
      <point x="471" y="515"/>
      <point x="477" y="515" type="qcurve"/>
      <point x="483" y="515"/>
      <point x="483" y="507" type="qcurve"/>
      <point x="485" y="497"/>
      <point x="485" y="474"/>
      <point x="486" y="463" type="qcurve"/>
      <point x="487" y="439"/>
      <point x="492" y="391"/>
      <point x="492" y="367" type="qcurve"/>
      <point x="492" y="354"/>
      <point x="484" y="334"/>
      <point x="469" y="334" type="qcurve"/>
      <point x="459" y="334"/>
      <point x="449" y="344"/>
      <point x="447" y="352" type="qcurve"/>
      <point x="435" y="388"/>
      <point x="410" y="457"/>
      <point x="381" y="483" type="qcurve"/>
      <point x="370" y="494"/>
      <point x="329" y="513"/>
      <point x="313" y="513" type="qcurve"/>
      <point x="271" y="513"/>
      <point x="217" y="459"/>
      <point x="185" y="379"/>
      <point x="172" y="294"/>
      <point x="172" y="262" type="qcurve"/>
      <point x="172" y="232"/>
      <point x="186" y="153"/>
      <point x="218" y="80"/>
      <point x="270" y="31"/>
      <point x="309" y="31" type="qcurve"/>
      <point x="346" y="31"/>
      <point x="422" y="63"/>
      <point x="448" y="89" type="qcurve"/>
      <point x="456" y="97"/>
      <point x="473" y="115"/>
      <point x="480" y="125" type="qcurve"/>
      <point x="483" y="130"/>
      <point x="489" y="139"/>
      <point x="493" y="143" type="qcurve"/>
      <point x="501" y="151"/>
      <point x="509" y="151" type="qcurve"/>
      <point x="517" y="151"/>
      <point x="529" y="141"/>
    </contour>
  </outline>
</glyph>
<glyph name="f" format="2">
  <advance width="390" height="1000"/>
  <unicode hex="0066"/>
  <outline>
    <contour>
      <point x="417" y="629" type="qcurve"/>
      <point x="417" y="604"/>
      <point x="390" y="604" type="qcurve"/>
      <point x="377" y="604"/>
      <point x="363" y="628"/>
      <point x="353" y="664"/>
      <point x="339" y="700"/>
      <point x="311" y="724"/>
      <point x="285" y="724" type="qcurve"/>
      <point x="262" y="724"/>
      <point x="236" y="696"/>
      <point x="226" y="657"/>
      <point x="226" y="638" type="qcurve"/>
      <point x="226" y="604"/>
      <point x="229" y="537"/>
      <point x="230" y="503" type="qcurve"/>
      <point x="343" y="503" type="line"/>
      <point x="351" y="503"/>
      <point x="359" y="493"/>
      <point x="359" y="486" type="qcurve"/>
      <point x="359" y="479"/>
      <point x="351" y="467"/>
      <point x="343" y="467" type="qcurve"/>
      <point x="234" y="467" type="line"/>
      <point x="234" y="313" type="line"/>
      <point x="234" y="254"/>
      <point x="235" y="134"/>
      <point x="235" y="75" type="qcurve"/>
      <point x="235" y="65"/>
      <point x="242" y="31"/>
      <point x="255" y="31" type="qcurve"/>
      <point x="267" y="31"/>
      <point x="292" y="32"/>
      <point x="304" y="32" type="qcurve"/>
      <point x="310" y="32"/>
      <point x="320" y="17"/>
      <point x="320" y="12" type="qcurve"/>
      <point x="320" y="3"/>
      <point x="306" y="-4"/>
      <point x="299" y="-4" type="qcurve"/>
      <point x="263" y="-4"/>
      <point x="192" y="-1"/>
      <point x="157" y="-1" type="qcurve"/>
      <point x="127" y="-1"/>
      <point x="67" y="-3"/>
      <point x="37" y="-3" type="qcurve"/>
      <point x="20" y="-3"/>
      <point x="20" y="14" type="qcurve"/>
      <point x="20" y="29"/>
      <point x="34" y="31" type="qcurve"/>
      <point x="46" y="32"/>
      <point x="70" y="30"/>
      <point x="82" y="30" type="qcurve"/>
      <point x="99" y="30"/>
      <point x="105" y="63"/>
      <point x="105" y="75" type="qcurve"/>
      <point x="105" y="469" type="line"/>
      <point x="53" y="469" type="line"/>
      <point x="43" y="469"/>
      <point x="33" y="454"/>
      <point x="26" y="454" type="qcurve"/>
      <point x="14" y="454"/>
      <point x="14" y="468" type="qcurve"/>
      <point x="14" y="471"/>
      <point x="20" y="492"/>
      <point x="21" y="495" type="qcurve"/>
      <point x="25" y="506"/>
      <point x="45" y="503"/>
      <point x="54" y="503" type="qcurve"/>
      <point x="105" y="503" type="line"/>
      <point x="105" y="578" type="line"/>
      <point x="105" y="675"/>
      <point x="201" y="751"/>
      <point x="292" y="751" type="qcurve"/>
      <point x="321" y="751"/>
      <point x="379" y="726"/>
      <point x="401" y="726" type="qcurve"/>
      <point x="406" y="726"/>
      <point x="409" y="727" type="qcurve"/>
      <point x="411" y="703"/>
      <point x="417" y="653"/>
    </contour>
  </outline>
</glyph>
<glyph name="h" format="2">
  <advance width="636" height="1000"/>
  <unicode hex="0068"/>
  <outline>
    <contour>
      <point x="615" y="14" type="qcurve"/>
      <point x="615" y="-4"/>
      <point x="598" y="-4" type="qcurve"/>
      <point x="584" y="-4"/>
      <point x="555" y="-1"/>
      <point x="541" y="0" type="qcurve"/>
      <point x="521" y="1"/>
      <point x="480" y="0"/>
      <point x="460" y="0" type="qcurve"/>
      <point x="436" y="0"/>
      <point x="389" y="-5"/>
      <point x="366" y="-5" type="qcurve"/>
      <point x="360" y="-5"/>
      <point x="349" y="6"/>
      <point x="349" y="11" type="qcurve"/>
      <point x="349" y="28"/>
      <point x="366" y="28" type="qcurve"/>
      <point x="376" y="28"/>
      <point x="394" y="26"/>
      <point x="404" y="26" type="qcurve"/>
      <point x="419" y="26"/>
      <point x="419" y="42" type="qcurve"/>
      <point x="419" y="119"/>
      <point x="420" y="272"/>
      <point x="420" y="348" type="qcurve"/>
      <point x="420" y="375"/>
      <point x="416" y="440"/>
      <point x="406" y="465" type="qcurve"/>
      <point x="397" y="488"/>
      <point x="369" y="504"/>
      <point x="345" y="504" type="qcurve"/>
      <point x="323" y="504"/>
      <point x="276" y="472"/>
      <point x="240" y="427"/>
      <point x="231" y="408" type="qcurve"/>
      <point x="231" y="38" type="line"/>
      <point x="231" y="27"/>
      <point x="245" y="27" type="qcurve"/>
      <point x="255" y="27"/>
      <point x="273" y="30"/>
      <point x="283" y="30" type="qcurve"/>
      <point x="288" y="30"/>
      <point x="299" y="19"/>
      <point x="299" y="14" type="qcurve"/>
      <point x="299" y="-4"/>
      <point x="282" y="-4" type="qcurve"/>
      <point x="268" y="-4"/>
      <point x="239" y="-1"/>
      <point x="225" y="-1" type="qcurve"/>
      <point x="215" y="-1"/>
      <point x="195" y="-1"/>
      <point x="184" y="-1" type="qcurve"/>
      <point x="131" y="-1" type="line"/>
      <point x="112" y="-1"/>
      <point x="74" y="-5"/>
      <point x="55" y="-5" type="qcurve"/>
      <point x="39" y="-5"/>
      <point x="39" y="13" type="qcurve"/>
      <point x="39" y="29"/>
      <point x="56" y="29" type="qcurve"/>
      <point x="66" y="29"/>
      <point x="84" y="27"/>
      <point x="94" y="27" type="qcurve"/>
      <point x="106" y="27"/>
      <point x="106" y="38" type="qcurve"/>
      <point x="106" y="675" type="line"/>
      <point x="106" y="685"/>
      <point x="101" y="714"/>
      <point x="87" y="714" type="qcurve"/>
      <point x="74" y="714"/>
      <point x="47" y="710"/>
      <point x="34" y="710" type="qcurve"/>
      <point x="29" y="710"/>
      <point x="21" y="720"/>
      <point x="21" y="725" type="qcurve"/>
      <point x="21" y="735"/>
      <point x="34" y="737" type="qcurve"/>
      <point x="75" y="746"/>
      <point x="158" y="757"/>
      <point x="198" y="769" type="qcurve"/>
      <point x="206" y="772"/>
      <point x="214" y="772" type="qcurve"/>
      <point x="228" y="772"/>
      <point x="228" y="759" type="qcurve"/>
      <point x="228" y="469" type="line"/>
      <point x="257" y="496"/>
      <point x="335" y="538"/>
      <point x="375" y="538" type="qcurve"/>
      <point x="443" y="538"/>
      <point x="518" y="504"/>
      <point x="549" y="426"/>
      <point x="549" y="359" type="qcurve"/>
      <point x="549" y="42" type="line"/>
      <point x="549" y="27"/>
      <point x="563" y="27" type="qcurve"/>
      <point x="572" y="27"/>
      <point x="590" y="30"/>
      <point x="599" y="30" type="qcurve"/>
      <point x="606" y="30"/>
      <point x="615" y="20"/>
    </contour>
  </outline>
</glyph>
<glyph name="k" format="2">
  <advance width="592" height="1000"/>
  <unicode hex="006B"/>
  <outline>
    <contour>
      <point x="595" y="15" type="qcurve"/>
      <point x="595" y="7"/>
      <point x="584" y="2"/>
      <point x="578" y="1" type="qcurve"/>
      <point x="554" y="-1"/>
      <point x="506" y="-2"/>
      <point x="483" y="-2" type="qcurve"/>
      <point x="470" y="-2"/>
      <point x="441" y="0"/>
      <point x="429" y="4" type="qcurve"/>
      <point x="416" y="8"/>
      <point x="398" y="30"/>
      <point x="391" y="42" type="qcurve"/>
      <point x="354" y="107"/>
      <point x="278" y="235"/>
      <point x="243" y="301" type="qcurve"/>
      <point x="218" y="284" type="line"/>
      <point x="218" y="54" type="line"/>
      <point x="218" y="36"/>
      <point x="233" y="26"/>
      <point x="258" y="29"/>
      <point x="273" y="29" type="qcurve"/>
      <point x="287" y="29"/>
      <point x="287" y="13" type="qcurve"/>
      <point x="287" y="-3"/>
      <point x="271" y="-3" type="qcurve"/>
      <point x="242" y="-3"/>
      <point x="185" y="1"/>
      <point x="156" y="1" type="qcurve"/>
      <point x="127" y="1"/>
      <point x="69" y="-4"/>
      <point x="40" y="-4" type="qcurve"/>
      <point x="34" y="-4"/>
      <point x="27" y="7"/>
      <point x="27" y="13" type="qcurve"/>
      <point x="27" y="28"/>
      <point x="43" y="28" type="qcurve"/>
      <point x="53" y="28"/>
      <point x="71" y="27"/>
      <point x="81" y="27" type="qcurve"/>
      <point x="93" y="27"/>
      <point x="97" y="43"/>
      <point x="97" y="53" type="qcurve"/>
      <point x="98" y="67"/>
      <point x="99" y="95"/>
      <point x="99" y="108" type="qcurve"/>
      <point x="99" y="593" type="line"/>
      <point x="99" y="615"/>
      <point x="98" y="657"/>
      <point x="97" y="679" type="qcurve"/>
      <point x="96" y="690"/>
      <point x="91" y="716"/>
      <point x="76" y="716" type="qcurve"/>
      <point x="66" y="716"/>
      <point x="47" y="714"/>
      <point x="37" y="714" type="qcurve"/>
      <point x="21" y="714"/>
      <point x="21" y="728" type="qcurve"/>
      <point x="21" y="738"/>
      <point x="32" y="741" type="qcurve"/>
      <point x="44" y="744"/>
      <point x="70" y="746"/>
      <point x="82" y="748" type="qcurve"/>
      <point x="110" y="753"/>
      <point x="165" y="767"/>
      <point x="193" y="774" type="qcurve"/>
      <point x="196" y="775"/>
      <point x="201" y="776"/>
      <point x="204" y="776" type="qcurve"/>
      <point x="219" y="776"/>
      <point x="219" y="763" type="qcurve"/>
      <point x="219" y="651"/>
      <point x="217" y="428"/>
      <point x="217" y="317" type="qcurve"/>
      <point x="252" y="344"/>
      <point x="324" y="399"/>
      <point x="356" y="430" type="qcurve"/>
      <point x="371" y="445"/>
      <point x="403" y="476"/>
      <point x="415" y="493" type="qcurve"/>
      <point x="423" y="504"/>
      <point x="426" y="525"/>
      <point x="433" y="539"/>
      <point x="446" y="539" type="qcurve"/>
      <point x="472" y="539"/>
      <point x="524" y="538"/>
      <point x="549" y="538" type="qcurve"/>
      <point x="564" y="538"/>
      <point x="564" y="525" type="qcurve"/>
      <point x="564" y="514"/>
      <point x="550" y="510"/>
      <point x="542" y="510" type="qcurve"/>
      <point x="527" y="510"/>
      <point x="494" y="498"/>
      <point x="483" y="490" type="qcurve"/>
      <point x="445" y="461"/>
      <point x="372" y="398"/>
      <point x="335" y="366" type="qcurve"/>
      <point x="345" y="349"/>
      <point x="386" y="279"/>
      <point x="438" y="193"/>
      <point x="492" y="111"/>
      <point x="537" y="50"/>
      <point x="550" y="40" type="qcurve"/>
      <point x="559" y="33"/>
      <point x="575" y="29"/>
      <point x="585" y="26" type="qcurve"/>
      <point x="595" y="23"/>
    </contour>
  </outline>
</glyph>
<glyph name="n" format="2">
  <advance width="632" height="1000"/>
  <unicode hex="006E"/>
  <outline>
    <contour>
      <point x="609" y="14" type="qcurve"/>
      <point x="609" y="-2"/>
      <point x="593" y="-2" type="qcurve"/>
      <point x="564" y="-2"/>
      <point x="505" y="1"/>
      <point x="476" y="1" type="qcurve"/>
      <point x="448" y="1"/>
      <point x="390" y="-2"/>
      <point x="361" y="-2" type="qcurve"/>
      <point x="354" y="-2"/>
      <point x="348" y="9"/>
      <point x="348" y="15" type="qcurve"/>
      <point x="348" y="30"/>
      <point x="364" y="30" type="qcurve"/>
      <point x="373" y="30"/>
      <point x="391" y="29"/>
      <point x="400" y="29" type="qcurve"/>
      <point x="415" y="29"/>
      <point x="415" y="42" type="qcurve"/>
      <point x="415" y="126"/>
      <point x="416" y="294"/>
      <point x="416" y="378" type="qcurve"/>
      <point x="416" y="405"/>
      <point x="407" y="463"/>
      <point x="376" y="503"/>
      <point x="341" y="503" type="qcurve"/>
      <point x="319" y="503"/>
      <point x="272" y="471"/>
      <point x="235" y="427"/>
      <point x="227" y="408" type="qcurve"/>
      <point x="227" y="54" type="line"/>
      <point x="227" y="45"/>
      <point x="232" y="29"/>
      <point x="243" y="29" type="qcurve"/>
      <point x="251" y="29"/>
      <point x="268" y="30"/>
      <point x="276" y="30" type="qcurve"/>
      <point x="281" y="30"/>
      <point x="291" y="22"/>
      <point x="291" y="17" type="qcurve"/>
      <point x="291" y="-2"/>
      <point x="275" y="-2" type="qcurve"/>
      <point x="247" y="-2"/>
      <point x="192" y="3"/>
      <point x="163" y="3" type="qcurve"/>
      <point x="133" y="3"/>
      <point x="72" y="-2"/>
      <point x="41" y="-2" type="qcurve"/>
      <point x="34" y="-2"/>
      <point x="28" y="9"/>
      <point x="28" y="15" type="qcurve"/>
      <point x="28" y="30"/>
      <point x="44" y="30" type="qcurve"/>
      <point x="53" y="30"/>
      <point x="71" y="29"/>
      <point x="81" y="29" type="qcurve"/>
      <point x="95" y="29"/>
      <point x="99" y="41"/>
      <point x="99" y="54" type="qcurve"/>
      <point x="99" y="199" type="line"/>
      <point x="99" y="260"/>
      <point x="99" y="382"/>
      <point x="99" y="443" type="qcurve"/>
      <point x="99" y="454"/>
      <point x="93" y="481"/>
      <point x="78" y="481" type="qcurve"/>
      <point x="68" y="481"/>
      <point x="49" y="479"/>
      <point x="39" y="479" type="qcurve"/>
      <point x="33" y="479"/>
      <point x="18" y="484"/>
      <point x="18" y="492" type="qcurve"/>
      <point x="18" y="498"/>
      <point x="26" y="504"/>
      <point x="31" y="505" type="qcurve"/>
      <point x="41" y="508"/>
      <point x="63" y="510"/>
      <point x="73" y="512" type="qcurve"/>
      <point x="99" y="517"/>
      <point x="150" y="530"/>
      <point x="175" y="537" type="qcurve"/>
      <point x="179" y="539"/>
      <point x="187" y="542"/>
      <point x="191" y="542" type="qcurve"/>
      <point x="199" y="542"/>
      <point x="212" y="512"/>
      <point x="221" y="478"/>
      <point x="222" y="471" type="qcurve"/>
      <point x="251" y="497"/>
      <point x="333" y="538"/>
      <point x="373" y="538" type="qcurve"/>
      <point x="440" y="538"/>
      <point x="515" y="504"/>
      <point x="547" y="425"/>
      <point x="547" y="359" type="qcurve"/>
      <point x="547" y="281"/>
      <point x="545" y="125"/>
      <point x="545" y="47" type="qcurve"/>
      <point x="545" y="37"/>
      <point x="558" y="28"/>
      <point x="568" y="28" type="qcurve"/>
      <point x="575" y="28"/>
      <point x="588" y="30"/>
      <point x="595" y="30" type="qcurve"/>
      <point x="609" y="30"/>
    </contour>
  </outline>
</glyph>
<glyph name="p" format="2">
  <advance width="608" height="1000"/>
  <unicode hex="0070"/>
  <outline>
    <contour>
      <point x="435" y="266" type="qcurve"/>
      <point x="435" y="287"/>
      <point x="433" y="346"/>
      <point x="424" y="409"/>
      <point x="403" y="464"/>
      <point x="365" y="498"/>
      <point x="335" y="498" type="qcurve"/>
      <point x="295" y="498"/>
      <point x="244" y="452"/>
      <point x="228" y="417" type="qcurve"/>
      <point x="228" y="156" type="line"/>
      <point x="228" y="131"/>
      <point x="247" y="72"/>
      <point x="287" y="31"/>
      <point x="317" y="31" type="qcurve"/>
      <point x="361" y="31"/>
      <point x="410" y="80"/>
      <point x="431" y="154"/>
      <point x="435" y="235"/>
    </contour>
    <contour>
      <point x="572" y="280" type="qcurve"/>
      <point x="572" y="199"/>
      <point x="518" y="74"/>
      <point x="406" y="3"/>
      <point x="320" y="3" type="qcurve"/>
      <point x="298" y="3"/>
      <point x="245" y="24"/>
      <point x="227" y="35" type="qcurve"/>
      <point x="227" y="13"/>
      <point x="226" y="-32"/>
      <point x="227" y="-55" type="qcurve"/>
      <point x="227" y="-136" type="line"/>
      <point x="227" y="-145"/>
      <point x="234" y="-163"/>
      <point x="245" y="-163" type="qcurve"/>
      <point x="253" y="-163"/>
      <point x="270" y="-162"/>
      <point x="278" y="-162" type="qcurve"/>
      <point x="292" y="-162"/>
      <point x="292" y="-177" type="qcurve"/>
      <point x="292" y="-193"/>
      <point x="277" y="-193" type="qcurve"/>
      <point x="249" y="-193"/>
      <point x="193" y="-189"/>
      <point x="164" y="-189" type="qcurve"/>
      <point x="135" y="-189"/>
      <point x="75" y="-193"/>
      <point x="46" y="-193" type="qcurve"/>
      <point x="39" y="-193"/>
      <point x="33" y="-182"/>
      <point x="33" y="-177" type="qcurve"/>
      <point x="33" y="-162"/>
      <point x="48" y="-162" type="qcurve"/>
      <point x="56" y="-162"/>
      <point x="72" y="-163"/>
      <point x="79" y="-163" type="qcurve"/>
      <point x="90" y="-163"/>
      <point x="100" y="-148"/>
      <point x="100" y="-138" type="qcurve"/>
      <point x="100" y="8"/>
      <point x="101" y="301"/>
      <point x="101" y="447" type="qcurve"/>
      <point x="101" y="458"/>
      <point x="95" y="484"/>
      <point x="80" y="484" type="qcurve"/>
      <point x="70" y="484"/>
      <point x="51" y="482"/>
      <point x="41" y="482" type="qcurve"/>
      <point x="35" y="482"/>
      <point x="20" y="487"/>
      <point x="20" y="495" type="qcurve"/>
      <point x="20" y="501"/>
      <point x="28" y="507"/>
      <point x="33" y="508" type="qcurve"/>
      <point x="44" y="512"/>
      <point x="68" y="514"/>
      <point x="79" y="516" type="qcurve"/>
      <point x="130" y="525"/>
      <point x="177" y="540" type="qcurve"/>
      <point x="181" y="542"/>
      <point x="189" y="545"/>
      <point x="193" y="545" type="qcurve"/>
      <point x="200" y="545"/>
      <point x="211" y="521"/>
      <point x="218" y="493"/>
      <point x="220" y="487" type="qcurve"/>
      <point x="234" y="495"/>
      <point x="286" y="516"/>
      <point x="339" y="533"/>
      <point x="354" y="533" type="qcurve"/>
      <point x="405" y="533"/>
      <point x="485" y="489"/>
      <point x="542" y="416"/>
      <point x="572" y="326"/>
    </contour>
  </outline>
</glyph>
<glyph name="r" format="2">
  <advance width="444" height="1000"/>
  <unicode hex="0072"/>
  <outline>
    <contour>
      <point x="443" y="419" type="qcurve"/>
      <point x="443" y="409"/>
      <point x="432" y="392"/>
      <point x="421" y="392" type="qcurve"/>
      <point x="404" y="392"/>
      <point x="398" y="406" type="qcurve"/>
      <point x="392" y="419"/>
      <point x="379" y="454"/>
      <point x="358" y="480"/>
      <point x="339" y="480" type="qcurve"/>
      <point x="329" y="480"/>
      <point x="311" y="472"/>
      <point x="303" y="466" type="qcurve"/>
      <point x="271" y="444"/>
      <point x="232" y="363"/>
      <point x="226" y="324" type="qcurve"/>
      <point x="226" y="325" type="line"/>
      <point x="226" y="288"/>
      <point x="226" y="214"/>
      <point x="226" y="177" type="qcurve"/>
      <point x="226" y="54" type="line"/>
      <point x="226" y="37"/>
      <point x="245" y="27"/>
      <point x="272" y="30"/>
      <point x="283" y="30" type="qcurve"/>
      <point x="297" y="30"/>
      <point x="297" y="15" type="qcurve"/>
      <point x="297" y="-1"/>
      <point x="281" y="-1" type="qcurve"/>
      <point x="251" y="-1"/>
      <point x="191" y="1"/>
      <point x="161" y="1" type="qcurve"/>
      <point x="130" y="1"/>
      <point x="68" y="-2"/>
      <point x="36" y="-2" type="qcurve"/>
      <point x="29" y="-2"/>
      <point x="23" y="9"/>
      <point x="23" y="14" type="qcurve"/>
      <point x="23" y="29"/>
      <point x="39" y="29" type="qcurve"/>
      <point x="49" y="29"/>
      <point x="68" y="28"/>
      <point x="78" y="28" type="qcurve"/>
      <point x="90" y="28"/>
      <point x="98" y="44"/>
      <point x="98" y="54" type="qcurve"/>
      <point x="98" y="125"/>
      <point x="98" y="269"/>
      <point x="98" y="340" type="qcurve"/>
      <point x="98" y="359"/>
      <point x="98" y="397"/>
      <point x="98" y="416" type="qcurve"/>
      <point x="98" y="427"/>
      <point x="94" y="457"/>
      <point x="81" y="481"/>
      <point x="66" y="481" type="qcurve"/>
      <point x="56" y="481"/>
      <point x="37" y="476"/>
      <point x="26" y="476" type="qcurve"/>
      <point x="11" y="476"/>
      <point x="11" y="491" type="qcurve"/>
      <point x="11" y="502"/>
      <point x="22" y="506" type="qcurve"/>
      <point x="36" y="511"/>
      <point x="66" y="514"/>
      <point x="80" y="517" type="qcurve"/>
      <point x="93" y="520"/>
      <point x="135" y="531"/>
      <point x="176" y="540"/>
      <point x="187" y="540" type="qcurve"/>
      <point x="202" y="540"/>
      <point x="209" y="529" type="qcurve"/>
      <point x="212" y="524"/>
      <point x="218" y="487"/>
      <point x="222" y="449"/>
      <point x="222" y="441" type="qcurve"/>
      <point x="253" y="480"/>
      <point x="329" y="544"/>
      <point x="383" y="544" type="qcurve"/>
      <point x="397" y="544"/>
      <point x="428" y="533"/>
      <point x="432" y="517" type="qcurve"/>
      <point x="437" y="498"/>
      <point x="443" y="439"/>
    </contour>
  </outline>
</glyph>
<glyph name="s" format="2">
  <advance width="446" height="1000"/>
  <unicode hex="0073"/>
  <outline>
    <contour>
      <point x="422" y="147" type="qcurve"/>
      <point x="422" y="100"/>
      <point x="382" y="41"/>
      <point x="316" y="9"/>
      <point x="239" y="-3"/>
      <point x="201" y="-3" type="qcurve"/>
      <point x="176" y="-3"/>
      <point x="128" y="7"/>
      <point x="104" y="13" type="qcurve"/>
      <point x="94" y="15"/>
      <point x="72" y="20"/>
      <point x="61" y="20" type="qcurve"/>
      <point x="57" y="34"/>
      <point x="42" y="89"/>
      <point x="29" y="142"/>
      <point x="29" y="153" type="qcurve"/>
      <point x="29" y="164"/>
      <point x="43" y="170"/>
      <point x="51" y="170" type="qcurve"/>
      <point x="63" y="170"/>
      <point x="69" y="161" type="qcurve"/>
      <point x="84" y="140"/>
      <point x="102" y="94"/>
      <point x="121" y="74" type="qcurve"/>
      <point x="135" y="59"/>
      <point x="188" y="28"/>
      <point x="209" y="28" type="qcurve"/>
      <point x="254" y="28"/>
      <point x="299" y="70"/>
      <point x="299" y="116" type="qcurve"/>
      <point x="299" y="147"/>
      <point x="261" y="189"/>
      <point x="202" y="223"/>
      <point x="136" y="256"/>
      <point x="77" y="296"/>
      <point x="39" y="353"/>
      <point x="39" y="394" type="qcurve"/>
      <point x="39" y="445"/>
      <point x="95" y="509"/>
      <point x="182" y="539"/>
      <point x="226" y="539" type="qcurve"/>
      <point x="246" y="539"/>
      <point x="284" y="533"/>
      <point x="303" y="525" type="qcurve"/>
      <point x="312" y="522"/>
      <point x="343" y="513"/>
      <point x="352" y="513" type="qcurve"/>
      <point x="365" y="513"/>
      <point x="377" y="516" type="qcurve"/>
      <point x="379" y="488"/>
      <point x="388" y="432"/>
      <point x="389" y="404" type="qcurve"/>
      <point x="389" y="401" type="line"/>
      <point x="390" y="391"/>
      <point x="377" y="378"/>
      <point x="368" y="378" type="qcurve"/>
      <point x="358" y="378"/>
      <point x="349" y="386"/>
      <point x="345" y="394" type="qcurve"/>
      <point x="332" y="423"/>
      <point x="307" y="476"/>
      <point x="266" y="510"/>
      <point x="228" y="510" type="qcurve"/>
      <point x="188" y="510"/>
      <point x="150" y="448"/>
      <point x="150" y="413" type="qcurve"/>
      <point x="150" y="385"/>
      <point x="192" y="345"/>
      <point x="214" y="333" type="qcurve"/>
      <point x="241" y="319"/>
      <point x="312" y="285"/>
      <point x="378" y="241"/>
      <point x="422" y="184"/>
    </contour>
  </outline>
</glyph>
<glyph name="t" format="2">
  <advance width="372" height="1000"/>
  <unicode hex="0074"/>
  <outline>
    <contour>
      <point x="371" y="48" type="qcurve"/>
      <point x="371" y="34"/>
      <point x="342" y="13"/>
      <point x="299" y="0"/>
      <point x="255" y="-6"/>
      <point x="240" y="-6" type="qcurve"/>
      <point x="165" y="-6"/>
      <point x="107" y="55"/>
      <point x="107" y="126" type="qcurve"/>
      <point x="107" y="212"/>
      <point x="109" y="384"/>
      <point x="109" y="470" type="qcurve"/>
      <point x="63" y="470" type="line"/>
      <point x="53" y="470"/>
      <point x="39" y="457"/>
      <point x="33" y="457" type="qcurve"/>
      <point x="23" y="457"/>
      <point x="23" y="467" type="qcurve"/>
      <point x="23" y="471"/>
      <point x="31" y="493"/>
      <point x="33" y="496" type="qcurve"/>
      <point x="36" y="502"/>
      <point x="42" y="504"/>
      <point x="48" y="504" type="qcurve"/>
      <point x="110" y="504" type="line"/>
      <point x="110" y="611" type="line"/>
      <point x="135" y="625"/>
      <point x="195" y="679"/>
      <point x="211" y="702" type="qcurve"/>
      <point x="214" y="707"/>
      <point x="224" y="718"/>
      <point x="231" y="718" type="qcurve"/>
      <point x="247" y="718"/>
      <point x="246" y="704" type="qcurve"/>
      <point x="243" y="504" type="line"/>
      <point x="346" y="504" type="line"/>
      <point x="354" y="504"/>
      <point x="367" y="497"/>
      <point x="367" y="488" type="qcurve"/>
      <point x="367" y="469"/>
      <point x="346" y="469" type="qcurve"/>
      <point x="243" y="469" type="line"/>
      <point x="241" y="83" type="line"/>
      <point x="241" y="67"/>
      <point x="254" y="38"/>
      <point x="273" y="38" type="qcurve"/>
      <point x="290" y="38"/>
      <point x="325" y="44"/>
      <point x="340" y="51" type="qcurve"/>
      <point x="345" y="53"/>
      <point x="354" y="58"/>
      <point x="359" y="58" type="qcurve"/>
      <point x="371" y="58"/>
    </contour>
  </outline>
</glyph>
<glyph name="w" format="2">
  <advance width="852" height="1000"/>
  <unicode hex="0077"/>
  <outline>
    <contour>
      <point x="849" y="524" type="qcurve"/>
      <point x="849" y="512"/>
      <point x="836" y="509"/>
      <point x="828" y="509" type="qcurve"/>
      <point x="815" y="509"/>
      <point x="788" y="504"/>
      <point x="781" y="489" type="qcurve"/>
      <point x="777" y="479"/>
      <point x="771" y="456"/>
      <point x="768" y="445" type="qcurve"/>
      <point x="737" y="333"/>
      <point x="671" y="110"/>
      <point x="637" y="-1" type="qcurve"/>
      <point x="527" y="-5" type="line"/>
      <point x="502" y="88"/>
      <point x="442" y="271"/>
      <point x="415" y="364" type="qcurve"/>
      <point x="386" y="272"/>
      <point x="319" y="91"/>
      <point x="290" y="-1" type="qcurve"/>
      <point x="195" y="-5" type="line"/>
      <point x="175" y="73"/>
      <point x="134" y="229"/>
      <point x="113" y="308" type="qcurve"/>
      <point x="103" y="348"/>
      <point x="83" y="428"/>
      <point x="71" y="468" type="qcurve"/>
      <point x="67" y="482"/>
      <point x="53" y="495"/>
      <point x="39" y="495" type="qcurve"/>
      <point x="32" y="495"/>
      <point x="19" y="493"/>
      <point x="12" y="493" type="qcurve"/>
      <point x="-1" y="493"/>
      <point x="-1" y="506" type="qcurve"/>
      <point x="-1" y="519"/>
      <point x="12" y="522" type="qcurve"/>
      <point x="13" y="522"/>
      <point x="45" y="526"/>
      <point x="91" y="531"/>
      <point x="138" y="537"/>
      <point x="172" y="540"/>
      <point x="174" y="540" type="qcurve"/>
      <point x="182" y="540"/>
      <point x="187" y="532"/>
      <point x="188" y="526" type="qcurve"/>
      <point x="197" y="492"/>
      <point x="212" y="423"/>
      <point x="219" y="388" type="qcurve"/>
      <point x="235" y="318"/>
      <point x="265" y="178"/>
      <point x="280" y="107" type="qcurve"/>
      <point x="309" y="208"/>
      <point x="374" y="410"/>
      <point x="405" y="510" type="qcurve"/>
      <point x="410" y="524"/>
      <point x="418" y="537"/>
      <point x="434" y="538" type="qcurve"/>
      <point x="441" y="539"/>
      <point x="456" y="540"/>
      <point x="463" y="540" type="qcurve"/>
      <point x="485" y="540"/>
      <point x="493" y="522" type="qcurve"/>
      <point x="498" y="511"/>
      <point x="502" y="486"/>
      <point x="505" y="475" type="qcurve"/>
      <point x="512" y="452"/>
      <point x="525" y="405"/>
      <point x="532" y="382" type="qcurve"/>
      <point x="553" y="310"/>
      <point x="596" y="167"/>
      <point x="618" y="95" type="qcurve"/>
      <point x="643" y="184"/>
      <point x="690" y="361"/>
      <point x="710" y="450" type="qcurve"/>
      <point x="712" y="463"/>
      <point x="719" y="488"/>
      <point x="719" y="501" type="qcurve"/>
      <point x="719" y="508"/>
      <point x="696" y="512"/>
      <point x="669" y="511"/>
      <point x="664" y="511" type="qcurve"/>
      <point x="648" y="511"/>
      <point x="648" y="524" type="qcurve"/>
      <point x="648" y="538"/>
      <point x="662" y="538" type="qcurve"/>
      <point x="835" y="538" type="line"/>
      <point x="849" y="538"/>
    </contour>
  </outline>
</glyph>
<glyph name="x" format="2">
  <advance width="572" height="1000"/>
  <unicode hex="0078"/>
  <outline>
    <contour>
      <point x="576" y="14" type="qcurve"/>
      <point x="576" y="-2"/>
      <point x="560" y="-2" type="qcurve"/>
      <point x="539" y="-2"/>
      <point x="497" y="0"/>
      <point x="476" y="0" type="qcurve"/>
      <point x="457" y="0"/>
      <point x="420" y="-2"/>
      <point x="402" y="-2" type="qcurve"/>
      <point x="392" y="-2"/>
      <point x="387" y="4"/>
      <point x="383" y="11" type="qcurve"/>
      <point x="372" y="34"/>
      <point x="347" y="78"/>
      <point x="334" y="100" type="qcurve"/>
      <point x="317" y="132"/>
      <point x="280" y="196"/>
      <point x="261" y="227" type="qcurve"/>
      <point x="230" y="181"/>
      <point x="169" y="91"/>
      <point x="140" y="44" type="qcurve"/>
      <point x="135" y="36"/>
      <point x="128" y="20"/>
      <point x="124" y="11" type="qcurve"/>
      <point x="119" y="0"/>
      <point x="105" y="0" type="qcurve"/>
      <point x="92" y="0"/>
      <point x="64" y="1"/>
      <point x="50" y="1" type="qcurve"/>
      <point x="40" y="1"/>
      <point x="21" y="-1"/>
      <point x="10" y="-1" type="qcurve"/>
      <point x="6" y="-1"/>
      <point x="-1" y="8"/>
      <point x="-1" y="12" type="qcurve"/>
      <point x="-1" y="23"/>
      <point x="16" y="25"/>
      <point x="24" y="25" type="qcurve"/>
      <point x="38" y="25"/>
      <point x="56" y="29"/>
      <point x="67" y="38" type="qcurve"/>
      <point x="82" y="50"/>
      <point x="130" y="107"/>
      <point x="182" y="175"/>
      <point x="226" y="237"/>
      <point x="236" y="255" type="qcurve"/>
      <point x="211" y="297"/>
      <point x="157" y="381"/>
      <point x="130" y="421" type="qcurve"/>
      <point x="120" y="438"/>
      <point x="98" y="470"/>
      <point x="85" y="486" type="qcurve"/>
      <point x="80" y="492"/>
      <point x="68" y="495"/>
      <point x="60" y="495" type="qcurve"/>
      <point x="50" y="495"/>
      <point x="30" y="492"/>
      <point x="20" y="492" type="qcurve"/>
      <point x="15" y="492"/>
      <point x="6" y="501"/>
      <point x="6" y="506" type="qcurve"/>
      <point x="6" y="518"/>
      <point x="17" y="521" type="qcurve"/>
      <point x="28" y="524"/>
      <point x="38" y="524" type="qcurve"/>
      <point x="71" y="528"/>
      <point x="148" y="541"/>
      <point x="179" y="541" type="qcurve"/>
      <point x="194" y="541"/>
      <point x="201" y="529" type="qcurve"/>
      <point x="206" y="522"/>
      <point x="214" y="503"/>
      <point x="218" y="495" type="qcurve"/>
      <point x="241" y="452"/>
      <point x="292" y="367"/>
      <point x="316" y="324" type="qcurve"/>
      <point x="324" y="335"/>
      <point x="359" y="386"/>
      <point x="397" y="445"/>
      <point x="425" y="494"/>
      <point x="425" y="502" type="qcurve"/>
      <point x="425" y="509"/>
      <point x="422" y="513"/>
      <point x="415" y="513" type="qcurve"/>
      <point x="408" y="513"/>
      <point x="393" y="512"/>
      <point x="385" y="512" type="qcurve"/>
      <point x="369" y="512"/>
      <point x="369" y="529" type="qcurve"/>
      <point x="369" y="534"/>
      <point x="378" y="540"/>
      <point x="382" y="540" type="qcurve"/>
      <point x="404" y="540"/>
      <point x="447" y="538"/>
      <point x="469" y="538" type="qcurve"/>
      <point x="490" y="538"/>
      <point x="534" y="539"/>
      <point x="555" y="539" type="qcurve"/>
      <point x="568" y="539"/>
      <point x="568" y="525" type="qcurve"/>
      <point x="568" y="512"/>
      <point x="548" y="511"/>
      <point x="538" y="511" type="qcurve"/>
      <point x="531" y="511"/>
      <point x="513" y="509"/>
      <point x="507" y="505" type="qcurve"/>
      <point x="495" y="497"/>
      <point x="486" y="486" type="qcurve"/>
      <point x="449" y="440"/>
      <point x="371" y="342"/>
      <point x="339" y="295" type="qcurve"/>
      <point x="361" y="260"/>
      <point x="406" y="189"/>
      <point x="428" y="154" type="qcurve"/>
      <point x="444" y="129"/>
      <point x="478" y="83"/>
      <point x="495" y="60" type="qcurve"/>
      <point x="503" y="50"/>
      <point x="518" y="35"/>
      <point x="530" y="31" type="qcurve"/>
      <point x="538" y="29"/>
      <point x="560" y="29"/>
      <point x="576" y="24"/>
    </contour>
  </outline>
</glyph>
<glyph name="braceleft" format="2">
  <advance width="450" height="1000"/>
  <unicode hex="007B"/>
  <outline>
    <contour>
      <point x="352" y="-98" type="line"/>
      <point x="315" y="-93"/>
      <point x="235" y="-56"/>
      <point x="180" y="7"/>
      <point x="180" y="51" type="qcurve"/>
      <point x="180" y="103"/>
      <point x="182" y="207"/>
      <point x="182" y="259" type="qcurve"/>
      <point x="182" y="348"/>
      <point x="99" y="378" type="qcurve"/>
      <point x="182" y="410"/>
      <point x="182" y="498" type="qcurve"/>
      <point x="182" y="551"/>
      <point x="180" y="656"/>
      <point x="180" y="708" type="qcurve"/>
      <point x="180" y="752"/>
      <point x="235" y="815"/>
      <point x="315" y="853"/>
      <point x="352" y="858" type="qcurve"/>
      <point x="352" y="842" type="line"/>
      <point x="317" y="831"/>
      <point x="283" y="782"/>
      <point x="272" y="720"/>
      <point x="272" y="687" type="qcurve"/>
      <point x="272" y="638"/>
      <point x="272" y="542"/>
      <point x="272" y="494" type="qcurve"/>
      <point x="272" y="468"/>
      <point x="227" y="418"/>
      <point x="207" y="405" type="qcurve"/>
      <point x="197" y="398"/>
      <point x="178" y="391"/>
      <point x="167" y="386" type="qcurve"/>
      <point x="163" y="384"/>
      <point x="154" y="380"/>
      <point x="149" y="378" type="qcurve"/>
      <point x="154" y="377"/>
      <point x="163" y="373"/>
      <point x="167" y="371" type="qcurve"/>
      <point x="186" y="364"/>
      <point x="235" y="330"/>
      <point x="272" y="287"/>
      <point x="272" y="263" type="qcurve"/>
      <point x="272" y="216"/>
      <point x="272" y="120"/>
      <point x="272" y="72" type="qcurve"/>
      <point x="272" y="39"/>
      <point x="283" y="-23"/>
      <point x="317" y="-70"/>
      <point x="352" y="-82" type="qcurve"/>
    </contour>
  </outline>
</glyph>
<glyph name="exclamdown" format="2">
  <advance width="400" height="1000"/>
  <unicode hex="00A1"/>
  <outline>
    <contour>
      <point x="280" y="-148" type="qcurve"/>
      <point x="280" y="-178"/>
      <point x="227" y="-213"/>
      <point x="200" y="-213" type="qcurve"/>
      <point x="184" y="-213"/>
      <point x="146" y="-196"/>
      <point x="120" y="-167"/>
      <point x="120" y="-148" type="qcurve"/>
      <point x="120" y="-128"/>
      <point x="126" y="-88"/>
      <point x="129" y="-68" type="qcurve"/>
      <point x="143" y="36"/>
      <point x="171" y="243"/>
      <point x="184" y="347" type="qcurve"/>
      <point x="219" y="347" type="line"/>
      <point x="227" y="243"/>
      <point x="254" y="35"/>
      <point x="270" y="-68" type="qcurve"/>
      <point x="273" y="-88"/>
      <point x="280" y="-128"/>
    </contour>
    <contour>
      <point x="278" y="482" type="qcurve"/>
      <point x="278" y="451"/>
      <point x="232" y="408"/>
      <point x="201" y="408" type="qcurve"/>
      <point x="170" y="408"/>
      <point x="123" y="451"/>
      <point x="123" y="482" type="qcurve"/>
      <point x="123" y="514"/>
      <point x="170" y="557"/>
      <point x="201" y="557" type="qcurve"/>
      <point x="232" y="557"/>
      <point x="278" y="514"/>
    </contour>
  </outline>
</glyph>
<glyph name="currency" format="2">
  <advance width="550" height="1000"/>
  <unicode hex="00A4"/>
  <outline>
    <contour>
      <point x="442" y="317" type="qcurve"/>
      <point x="442" y="362"/>
      <point x="400" y="442"/>
      <point x="327" y="492"/>
      <point x="281" y="492" type="qcurve"/>
      <point x="235" y="492"/>
      <point x="162" y="442"/>
      <point x="120" y="362"/>
      <point x="120" y="317" type="qcurve"/>
      <point x="120" y="273"/>
      <point x="162" y="192"/>
      <point x="236" y="141"/>
      <point x="282" y="141" type="qcurve"/>
      <point x="328" y="141"/>
      <point x="400" y="193"/>
      <point x="442" y="274"/>
    </contour>
    <contour>
      <point x="507" y="525" type="line"/>
      <point x="447" y="461" type="line"/>
      <point x="473" y="427"/>
      <point x="498" y="361"/>
      <point x="498" y="317" type="qcurve"/>
      <point x="498" y="272"/>
      <point x="473" y="207"/>
      <point x="447" y="171" type="qcurve"/>
      <point x="507" y="110" type="line"/>
      <point x="471" y="71" type="line"/>
      <point x="408" y="137" type="line"/>
      <point x="377" y="118"/>
      <point x="318" y="97"/>
      <point x="282" y="97" type="qcurve"/>
      <point x="241" y="97"/>
      <point x="175" y="121"/>
      <point x="142" y="146" type="qcurve"/>
      <point x="81" y="82" type="line"/>
      <point x="44" y="121" type="line"/>
      <point x="106" y="185" type="line"/>
      <point x="85" y="216"/>
      <point x="62" y="279"/>
      <point x="62" y="317" type="qcurve"/>
      <point x="62" y="357"/>
      <point x="84" y="417"/>
      <point x="106" y="449" type="qcurve"/>
      <point x="43" y="514" type="line"/>
      <point x="80" y="551" type="line"/>
      <point x="142" y="488" type="line"/>
      <point x="175" y="514"/>
      <point x="239" y="536"/>
      <point x="281" y="536" type="qcurve"/>
      <point x="349" y="536"/>
      <point x="408" y="497" type="qcurve"/>
      <point x="471" y="563" type="line"/>
    </contour>
  </outline>
</glyph>
<glyph name="yen" format="2">
  <advance width="700" height="1000"/>
  <unicode hex="00A5"/>
  <outline>
    <contour>
      <point x="678" y="715" type="qcurve"/>
      <point x="678" y="703"/>
      <point x="660" y="697"/>
      <point x="634" y="697"/>
      <point x="608" y="695"/>
      <point x="600" y="686" type="qcurve"/>
      <point x="593" y="679"/>
      <point x="572" y="647"/>
      <point x="554" y="616"/>
      <point x="549" y="607" type="qcurve"/>
      <point x="519" y="560"/>
      <point x="462" y="463"/>
      <point x="431" y="416" type="qcurve"/>
      <point x="628" y="416" type="line"/>
      <point x="628" y="376" type="line"/>
      <point x="409" y="376" type="line"/>
      <point x="409" y="274" type="line"/>
      <point x="628" y="274" type="line"/>
      <point x="628" y="233" type="line"/>
      <point x="409" y="233" type="line"/>
      <point x="409" y="56" type="line"/>
      <point x="409" y="42"/>
      <point x="432" y="32"/>
      <point x="443" y="32" type="qcurve"/>
      <point x="452" y="32"/>
      <point x="470" y="34"/>
      <point x="478" y="34" type="qcurve"/>
      <point x="487" y="34"/>
      <point x="502" y="23"/>
      <point x="502" y="14" type="qcurve"/>
      <point x="502" y="4"/>
      <point x="483" y="-3"/>
      <point x="475" y="-3" type="qcurve"/>
      <point x="463" y="-3"/>
      <point x="438" y="0"/>
      <point x="425" y="0" type="qcurve"/>
      <point x="412" y="1"/>
      <point x="385" y="1"/>
      <point x="371" y="1" type="qcurve"/>
      <point x="346" y="1"/>
      <point x="294" y="1"/>
      <point x="268" y="-1" type="qcurve"/>
      <point x="256" y="-1"/>
      <point x="232" y="-3"/>
      <point x="219" y="-3" type="qcurve"/>
      <point x="213" y="-3"/>
      <point x="200" y="10"/>
      <point x="200" y="16" type="qcurve"/>
      <point x="200" y="24"/>
      <point x="213" y="34"/>
      <point x="220" y="34" type="qcurve"/>
      <point x="228" y="34"/>
      <point x="245" y="33"/>
      <point x="253" y="33" type="qcurve"/>
      <point x="280" y="33"/>
      <point x="290" y="50"/>
      <point x="290" y="75" type="qcurve"/>
      <point x="290" y="233" type="line"/>
      <point x="79" y="233" type="line"/>
      <point x="79" y="274" type="line"/>
      <point x="290" y="274" type="line"/>
      <point x="290" y="376" type="line"/>
      <point x="79" y="376" type="line"/>
      <point x="79" y="416" type="line"/>
      <point x="274" y="416" type="line"/>
      <point x="240" y="484"/>
      <point x="161" y="613"/>
      <point x="119" y="676" type="qcurve"/>
      <point x="112" y="686"/>
      <point x="100" y="700"/>
      <point x="87" y="700" type="qcurve"/>
      <point x="78" y="700"/>
      <point x="61" y="699"/>
      <point x="53" y="699" type="qcurve"/>
      <point x="46" y="699"/>
      <point x="35" y="708"/>
      <point x="35" y="715" type="qcurve"/>
      <point x="35" y="723"/>
      <point x="50" y="732"/>
      <point x="57" y="732" type="qcurve"/>
      <point x="94" y="732"/>
      <point x="168" y="731"/>
      <point x="205" y="731" type="qcurve"/>
      <point x="213" y="731"/>
      <point x="227" y="728"/>
      <point x="232" y="720" type="qcurve"/>
      <point x="234" y="717"/>
      <point x="237" y="711"/>
      <point x="238" y="708" type="qcurve"/>
      <point x="270" y="635"/>
      <point x="340" y="493"/>
      <point x="376" y="422" type="qcurve"/>
      <point x="383" y="432"/>
      <point x="416" y="488"/>
      <point x="458" y="559"/>
      <point x="497" y="629"/>
      <point x="522" y="680"/>
      <point x="522" y="687" type="qcurve"/>
      <point x="522" y="697"/>
      <point x="514" y="702"/>
      <point x="505" y="702" type="qcurve"/>
      <point x="494" y="702"/>
      <point x="473" y="701"/>
      <point x="462" y="701" type="qcurve"/>
      <point x="452" y="701"/>
      <point x="441" y="705"/>
      <point x="441" y="717" type="qcurve"/>
      <point x="441" y="727"/>
      <point x="455" y="732"/>
      <point x="463" y="732" type="qcurve"/>
      <point x="489" y="732"/>
      <point x="540" y="731"/>
      <point x="565" y="731" type="qcurve"/>
      <point x="589" y="731"/>
      <point x="636" y="734"/>
      <point x="660" y="734" type="qcurve"/>
      <point x="678" y="734"/>
    </contour>
  </outline>
</glyph>
<glyph name="section" format="2">
  <advance width="650" height="1000"/>
  <unicode hex="00A7"/>
  <outline>
    <contour>
      <point x="447" y="349" type="qcurve"/>
      <point x="447" y="387"/>
      <point x="399" y="434"/>
      <point x="333" y="465"/>
      <point x="305" y="477" type="qcurve"/>
      <point x="279" y="474"/>
      <point x="227" y="454"/>
      <point x="192" y="417"/>
      <point x="192" y="386" type="qcurve"/>
      <point x="192" y="356"/>
      <point x="228" y="313"/>
      <point x="282" y="283"/>
      <point x="341" y="262"/>
      <point x="363" y="254" type="qcurve"/>
      <point x="401" y="263"/>
      <point x="447" y="307"/>
    </contour>
    <contour>
      <point x="545" y="362" type="qcurve"/>
      <point x="545" y="325"/>
      <point x="501" y="275"/>
      <point x="437" y="242"/>
      <point x="407" y="232" type="qcurve"/>
      <point x="441" y="217"/>
      <point x="501" y="172"/>
      <point x="539" y="111"/>
      <point x="539" y="70" type="qcurve"/>
      <point x="539" y="30"/>
      <point x="501" y="-26"/>
      <point x="439" y="-61"/>
      <point x="367" y="-76"/>
      <point x="333" y="-76" type="qcurve"/>
      <point x="295" y="-76"/>
      <point x="214" y="-67"/>
      <point x="144" y="-33"/>
      <point x="121" y="2" type="qcurve"/>
      <point x="115" y="12"/>
      <point x="105" y="35"/>
      <point x="105" y="47" type="qcurve"/>
      <point x="105" y="72"/>
      <point x="126" y="105"/>
      <point x="154" y="105" type="qcurve"/>
      <point x="172" y="105"/>
      <point x="200" y="87"/>
      <point x="204" y="69" type="qcurve"/>
      <point x="206" y="59"/>
      <point x="207" y="40"/>
      <point x="210" y="30" type="qcurve"/>
      <point x="218" y="7"/>
      <point x="258" y="-28"/>
      <point x="308" y="-47"/>
      <point x="331" y="-47" type="qcurve"/>
      <point x="379" y="-47"/>
      <point x="446" y="15"/>
      <point x="446" y="64" type="qcurve"/>
      <point x="446" y="96"/>
      <point x="407" y="145"/>
      <point x="381" y="162" type="qcurve"/>
      <point x="354" y="179"/>
      <point x="323" y="193" type="qcurve"/>
      <point x="293" y="207"/>
      <point x="222" y="233"/>
      <point x="160" y="270"/>
      <point x="120" y="324"/>
      <point x="120" y="366" type="qcurve"/>
      <point x="120" y="400"/>
      <point x="158" y="457"/>
      <point x="218" y="495"/>
      <point x="250" y="500" type="qcurve"/>
      <point x="218" y="514"/>
      <point x="162" y="553"/>
      <point x="128" y="609"/>
      <point x="128" y="647" type="qcurve"/>
      <point x="128" y="694"/>
      <point x="183" y="758"/>
      <point x="267" y="791"/>
      <point x="308" y="791" type="qcurve"/>
      <point x="337" y="791"/>
      <point x="401" y="780"/>
      <point x="459" y="754"/>
      <point x="478" y="730" type="qcurve"/>
      <point x="489" y="717"/>
      <point x="508" y="682"/>
      <point x="508" y="664" type="qcurve"/>
      <point x="508" y="637"/>
      <point x="471" y="609"/>
      <point x="445" y="609" type="qcurve"/>
      <point x="435" y="609"/>
      <point x="412" y="623"/>
      <point x="409" y="633" type="qcurve"/>
      <point x="407" y="639"/>
      <point x="405" y="653"/>
      <point x="404" y="660" type="qcurve"/>
      <point x="400" y="698"/>
      <point x="354" y="758"/>
      <point x="312" y="758" type="qcurve"/>
      <point x="269" y="758"/>
      <point x="213" y="696"/>
      <point x="213" y="654" type="qcurve"/>
      <point x="213" y="619"/>
      <point x="261" y="574"/>
      <point x="337" y="540"/>
      <point x="421" y="509"/>
      <point x="497" y="468"/>
      <point x="545" y="408"/>
    </contour>
  </outline>
</glyph>
<glyph name="copyright" format="2">
  <advance width="740" height="1000"/>
  <unicode hex="00A9"/>
  <outline>
    <contour>
      <point x="545" y="256" type="qcurve"/>
      <point x="545" y="253"/>
      <point x="542" y="247" type="qcurve"/>
      <point x="526" y="222"/>
      <point x="471" y="183"/>
      <point x="407" y="161"/>
      <point x="377" y="161" type="qcurve"/>
      <point x="320" y="161"/>
      <point x="233" y="209"/>
      <point x="185" y="295"/>
      <point x="185" y="351" type="qcurve"/>
      <point x="185" y="409"/>
      <point x="231" y="501"/>
      <point x="317" y="556"/>
      <point x="377" y="556" type="qcurve"/>
      <point x="394" y="556"/>
      <point x="429" y="548"/>
      <point x="445" y="541" type="qcurve"/>
      <point x="448" y="540"/>
      <point x="458" y="536"/>
      <point x="463" y="534" type="qcurve"/>
      <point x="475" y="529"/>
      <point x="479" y="529" type="qcurve"/>
      <point x="484" y="529"/>
      <point x="505" y="538"/>
      <point x="512" y="543" type="qcurve"/>
      <point x="514" y="521"/>
      <point x="516" y="483"/>
      <point x="517" y="464" type="qcurve"/>
      <point x="518" y="456"/>
      <point x="519" y="438"/>
      <point x="519" y="430" type="qcurve"/>
      <point x="519" y="418"/>
      <point x="502" y="408"/>
      <point x="492" y="408" type="qcurve"/>
      <point x="477" y="408"/>
      <point x="471" y="419" type="qcurve"/>
      <point x="469" y="423"/>
      <point x="469" y="426" type="qcurve"/>
      <point x="469" y="428"/>
      <point x="468" y="432"/>
      <point x="468" y="433" type="qcurve"/>
      <point x="463" y="453"/>
      <point x="441" y="498"/>
      <point x="409" y="529"/>
      <point x="385" y="529" type="qcurve"/>
      <point x="356" y="529"/>
      <point x="316" y="494"/>
      <point x="291" y="440"/>
      <point x="279" y="380"/>
      <point x="279" y="356" type="qcurve"/>
      <point x="279" y="332"/>
      <point x="290" y="278"/>
      <point x="314" y="229"/>
      <point x="353" y="198"/>
      <point x="381" y="198" type="qcurve"/>
      <point x="413" y="198"/>
      <point x="463" y="221"/>
      <point x="481" y="234" type="qcurve"/>
      <point x="499" y="249"/>
      <point x="510" y="260" type="qcurve"/>
      <point x="524" y="272"/>
      <point x="528" y="272" type="qcurve"/>
      <point x="533" y="272"/>
      <point x="545" y="264"/>
    </contour>
    <contour>
      <point x="665" y="375" type="qcurve"/>
      <point x="665" y="436"/>
      <point x="619" y="542"/>
      <point x="537" y="622"/>
      <point x="430" y="667"/>
      <point x="370" y="667" type="qcurve"/>
      <point x="309" y="667"/>
      <point x="202" y="622"/>
      <point x="121" y="542"/>
      <point x="75" y="436"/>
      <point x="75" y="375" type="qcurve"/>
      <point x="75" y="314"/>
      <point x="121" y="208"/>
      <point x="202" y="128"/>
      <point x="309" y="83"/>
      <point x="370" y="83" type="qcurve"/>
      <point x="430" y="83"/>
      <point x="537" y="128"/>
      <point x="619" y="208"/>
      <point x="665" y="314"/>
    </contour>
    <contour>
      <point x="696" y="374" type="qcurve"/>
      <point x="696" y="307"/>
      <point x="645" y="190"/>
      <point x="555" y="101"/>
      <point x="437" y="51"/>
      <point x="370" y="51" type="qcurve"/>
      <point x="303" y="51"/>
      <point x="185" y="101"/>
      <point x="95" y="189"/>
      <point x="44" y="307"/>
      <point x="44" y="374" type="qcurve"/>
      <point x="44" y="442"/>
      <point x="95" y="559"/>
      <point x="185" y="647"/>
      <point x="303" y="697"/>
      <point x="370" y="697" type="qcurve"/>
      <point x="437" y="697"/>
      <point x="555" y="647"/>
      <point x="645" y="559"/>
      <point x="696" y="442"/>
    </contour>
  </outline>
</glyph>
<glyph name="ordfeminine" format="2">
  <advance width="390" height="1000"/>
  <unicode hex="00AA"/>
  <outline>
    <contour>
      <point x="242" y="473" type="qcurve"/>
      <point x="241" y="502"/>
      <point x="240" y="558"/>
      <point x="239" y="586" type="qcurve"/>
      <point x="215" y="585"/>
      <point x="164" y="561"/>
      <point x="130" y="520"/>
      <point x="130" y="493" type="qcurve"/>
      <point x="130" y="471"/>
      <point x="151" y="434"/>
      <point x="176" y="434" type="qcurve"/>
      <point x="194" y="434"/>
      <point x="232" y="459"/>
    </contour>
    <contour>
      <point x="367" y="432" type="qcurve"/>
      <point x="367" y="431"/>
      <point x="366" y="429"/>
      <point x="366" y="429" type="qcurve"/>
      <point x="359" y="414"/>
      <point x="324" y="398"/>
      <point x="309" y="398" type="qcurve"/>
      <point x="257" y="398"/>
      <point x="245" y="446" type="qcurve"/>
      <point x="226" y="425"/>
      <point x="181" y="400"/>
      <point x="152" y="400" type="qcurve"/>
      <point x="114" y="400"/>
      <point x="58" y="440"/>
      <point x="58" y="481" type="qcurve"/>
      <point x="58" y="518"/>
      <point x="106" y="568"/>
      <point x="137" y="581" type="qcurve"/>
      <point x="161" y="592"/>
      <point x="214" y="603"/>
      <point x="239" y="609" type="qcurve"/>
      <point x="239" y="629"/>
      <point x="236" y="668"/>
      <point x="228" y="686" type="qcurve"/>
      <point x="223" y="698"/>
      <point x="207" y="722"/>
      <point x="192" y="722" type="qcurve"/>
      <point x="170" y="722"/>
      <point x="139" y="688"/>
      <point x="137" y="667" type="qcurve"/>
      <point x="136" y="663"/>
      <point x="137" y="656"/>
      <point x="136" y="652" type="qcurve"/>
      <point x="134" y="645"/>
      <point x="116" y="641"/>
      <point x="110" y="641" type="qcurve"/>
      <point x="98" y="641"/>
      <point x="75" y="655"/>
      <point x="75" y="668" type="qcurve"/>
      <point x="75" y="672"/>
      <point x="76" y="678"/>
      <point x="77" y="682" type="qcurve"/>
      <point x="82" y="698"/>
      <point x="119" y="726"/>
      <point x="133" y="732" type="qcurve"/>
      <point x="164" y="743"/>
      <point x="199" y="743" type="qcurve"/>
      <point x="251" y="743"/>
      <point x="311" y="683"/>
      <point x="311" y="631" type="qcurve"/>
      <point x="311" y="496" type="line"/>
      <point x="311" y="483"/>
      <point x="311" y="459"/>
      <point x="312" y="446" type="qcurve"/>
      <point x="313" y="438"/>
      <point x="316" y="421"/>
      <point x="327" y="421" type="qcurve"/>
      <point x="338" y="421"/>
      <point x="356" y="438"/>
      <point x="360" y="438" type="qcurve"/>
      <point x="367" y="438"/>
    </contour>
  </outline>
</glyph>
<glyph name="logicalnot" format="2">
  <advance width="580" height="1000"/>
  <unicode hex="00AC"/>
  <outline>
    <contour>
      <point x="512" y="127" type="line"/>
      <point x="457" y="127" type="line"/>
      <point x="457" y="334" type="line"/>
      <point x="50" y="334" type="line"/>
      <point x="50" y="375" type="line"/>
      <point x="512" y="375" type="line"/>
    </contour>
  </outline>
</glyph>
<glyph name="registered" format="2">
  <advance width="740" height="1000"/>
  <unicode hex="00AE"/>
  <outline>
    <contour>
      <point x="441" y="469" type="qcurve"/>
      <point x="441" y="503"/>
      <point x="416" y="533"/>
      <point x="372" y="542"/>
      <point x="343" y="542" type="qcurve"/>
      <point x="336" y="542"/>
      <point x="310" y="540"/>
      <point x="310" y="530" type="qcurve"/>
      <point x="310" y="496"/>
      <point x="308" y="429"/>
      <point x="308" y="395" type="qcurve"/>
      <point x="323" y="392"/>
      <point x="338" y="392" type="qcurve"/>
      <point x="364" y="392"/>
      <point x="411" y="405"/>
      <point x="441" y="439"/>
    </contour>
    <contour>
      <point x="572" y="189" type="qcurve"/>
      <point x="572" y="181"/>
      <point x="561" y="174"/>
      <point x="554" y="172" type="qcurve"/>
      <point x="550" y="171"/>
      <point x="543" y="171"/>
      <point x="540" y="171" type="qcurve"/>
      <point x="536" y="171"/>
      <point x="530" y="171"/>
      <point x="528" y="171" type="qcurve"/>
      <point x="521" y="171"/>
      <point x="509" y="171"/>
      <point x="503" y="171" type="qcurve"/>
      <point x="497" y="171"/>
      <point x="486" y="172"/>
      <point x="481" y="173" type="qcurve"/>
      <point x="471" y="176"/>
      <point x="453" y="189"/>
      <point x="445" y="202" type="qcurve"/>
      <point x="420" y="243"/>
      <point x="371" y="326"/>
      <point x="348" y="368" type="qcurve"/>
      <point x="310" y="368" type="line"/>
      <point x="310" y="208" type="line"/>
      <point x="310" y="201"/>
      <point x="324" y="198"/>
      <point x="329" y="198" type="qcurve"/>
      <point x="335" y="198"/>
      <point x="347" y="199"/>
      <point x="352" y="199" type="qcurve"/>
      <point x="359" y="199"/>
      <point x="362" y="190"/>
      <point x="362" y="185" type="qcurve"/>
      <point x="362" y="173"/>
      <point x="349" y="173" type="qcurve"/>
      <point x="205" y="173" type="line"/>
      <point x="201" y="173"/>
      <point x="195" y="185"/>
      <point x="195" y="187" type="qcurve"/>
      <point x="195" y="193"/>
      <point x="203" y="198"/>
      <point x="207" y="199" type="qcurve"/>
      <point x="209" y="199"/>
      <point x="214" y="200"/>
      <point x="216" y="199" type="qcurve"/>
      <point x="218" y="199"/>
      <point x="223" y="199"/>
      <point x="224" y="199" type="qcurve"/>
      <point x="227" y="199"/>
      <point x="235" y="200"/>
      <point x="238" y="201" type="qcurve"/>
      <point x="244" y="203"/>
      <point x="244" y="209" type="qcurve"/>
      <point x="244" y="531" type="line"/>
      <point x="244" y="540"/>
      <point x="232" y="542" type="qcurve"/>
      <point x="229" y="542"/>
      <point x="223" y="542"/>
      <point x="220" y="542" type="qcurve"/>
      <point x="217" y="542"/>
      <point x="211" y="542"/>
      <point x="209" y="542" type="qcurve"/>
      <point x="202" y="542"/>
      <point x="198" y="552"/>
      <point x="198" y="556" type="qcurve"/>
      <point x="198" y="563"/>
      <point x="203" y="566" type="qcurve"/>
      <point x="205" y="567"/>
      <point x="211" y="567"/>
      <point x="213" y="567" type="qcurve"/>
      <point x="230" y="567"/>
      <point x="263" y="565"/>
      <point x="279" y="565" type="qcurve"/>
      <point x="304" y="565"/>
      <point x="352" y="570"/>
      <point x="377" y="570" type="qcurve"/>
      <point x="405" y="570"/>
      <point x="467" y="553"/>
      <point x="511" y="512"/>
      <point x="511" y="477" type="qcurve"/>
      <point x="511" y="429"/>
      <point x="450" y="383"/>
      <point x="408" y="374" type="qcurve"/>
      <point x="432" y="335"/>
      <point x="483" y="258"/>
      <point x="511" y="223" type="qcurve"/>
      <point x="519" y="213"/>
      <point x="537" y="201"/>
      <point x="549" y="199" type="qcurve"/>
      <point x="551" y="198"/>
      <point x="558" y="199"/>
      <point x="562" y="198" type="qcurve"/>
      <point x="565" y="197"/>
      <point x="572" y="194"/>
    </contour>
    <contour>
      <point x="665" y="375" type="qcurve"/>
      <point x="665" y="436"/>
      <point x="619" y="542"/>
      <point x="537" y="622"/>
      <point x="430" y="667"/>
      <point x="370" y="667" type="qcurve"/>
      <point x="309" y="667"/>
      <point x="202" y="622"/>
      <point x="121" y="542"/>
      <point x="75" y="436"/>
      <point x="75" y="375" type="qcurve"/>
      <point x="75" y="314"/>
      <point x="121" y="208"/>
      <point x="202" y="128"/>
      <point x="309" y="83"/>
      <point x="370" y="83" type="qcurve"/>
      <point x="430" y="83"/>
      <point x="537" y="128"/>
      <point x="619" y="208"/>
      <point x="665" y="314"/>
    </contour>
    <contour>
      <point x="696" y="374" type="qcurve"/>
      <point x="696" y="307"/>
      <point x="645" y="190"/>
      <point x="555" y="101"/>
      <point x="437" y="51"/>
      <point x="370" y="51" type="qcurve"/>
      <point x="303" y="51"/>
      <point x="185" y="101"/>
      <point x="95" y="189"/>
      <point x="44" y="307"/>
      <point x="44" y="374" type="qcurve"/>
      <point x="44" y="442"/>
      <point x="95" y="559"/>
      <point x="185" y="647"/>
      <point x="303" y="697"/>
      <point x="370" y="697" type="qcurve"/>
      <point x="437" y="697"/>
      <point x="555" y="647"/>
      <point x="645" y="559"/>
      <point x="696" y="442"/>
    </contour>
  </outline>
</glyph>
<glyph name="degree" format="2">
  <advance width="350" height="1000"/>
  <unicode hex="00B0"/>
  <outline>
    <contour>
      <point x="262" y="688" type="qcurve"/>
      <point x="262" y="724"/>
      <point x="210" y="774"/>
      <point x="175" y="774" type="qcurve"/>
      <point x="139" y="774"/>
      <point x="88" y="724"/>
      <point x="88" y="688" type="qcurve"/>
      <point x="88" y="652"/>
      <point x="139" y="602"/>
      <point x="175" y="602" type="qcurve"/>
      <point x="210" y="602"/>
      <point x="262" y="652"/>
    </contour>
    <contour>
      <point x="293" y="688" type="qcurve"/>
      <point x="293" y="656"/>
      <point x="261" y="603"/>
      <point x="207" y="572"/>
      <point x="175" y="572" type="qcurve"/>
      <point x="143" y="572"/>
      <point x="90" y="603"/>
      <point x="58" y="656"/>
      <point x="58" y="688" type="qcurve"/>
      <point x="58" y="720"/>
      <point x="89" y="773"/>
      <point x="143" y="805"/>
      <point x="175" y="805" type="qcurve"/>
      <point x="207" y="805"/>
      <point x="261" y="774"/>
      <point x="293" y="721"/>
    </contour>
  </outline>
</glyph>
<glyph name="threesuperior" format="2">
  <advance width="390" height="1000"/>
  <unicode hex="00B3"/>
  <outline>
    <contour>
      <point x="345" y="515" type="qcurve"/>
      <point x="345" y="463"/>
      <point x="293" y="399"/>
      <point x="210" y="371"/>
      <point x="164" y="371" type="qcurve"/>
      <point x="134" y="371"/>
      <point x="74" y="389"/>
      <point x="57" y="417" type="qcurve"/>
      <point x="53" y="425"/>
      <point x="48" y="441"/>
      <point x="48" y="450" type="qcurve"/>
      <point x="48" y="464"/>
      <point x="73" y="485"/>
      <point x="86" y="485" type="qcurve"/>
      <point x="101" y="485"/>
      <point x="113" y="467"/>
      <point x="120" y="441"/>
      <point x="130" y="414"/>
      <point x="155" y="396"/>
      <point x="180" y="396" type="qcurve"/>
      <point x="210" y="396"/>
      <point x="248" y="432"/>
      <point x="266" y="486"/>
      <point x="266" y="512" type="qcurve"/>
      <point x="266" y="544"/>
      <point x="228" y="597"/>
      <point x="194" y="597" type="qcurve"/>
      <point x="180" y="597"/>
      <point x="154" y="591"/>
      <point x="140" y="591" type="qcurve"/>
      <point x="135" y="591"/>
      <point x="122" y="600"/>
      <point x="122" y="605" type="qcurve"/>
      <point x="122" y="616"/>
      <point x="141" y="622"/>
      <point x="164" y="621"/>
      <point x="170" y="621" type="qcurve"/>
      <point x="209" y="621"/>
      <point x="247" y="671"/>
      <point x="247" y="707" type="qcurve"/>
      <point x="247" y="725"/>
      <point x="235" y="764"/>
      <point x="209" y="790"/>
      <point x="188" y="790" type="qcurve"/>
      <point x="163" y="790"/>
      <point x="128" y="753"/>
      <point x="123" y="730" type="qcurve"/>
      <point x="122" y="723"/>
      <point x="121" y="710"/>
      <point x="119" y="703" type="qcurve"/>
      <point x="117" y="695"/>
      <point x="106" y="683"/>
      <point x="96" y="683" type="qcurve"/>
      <point x="82" y="683"/>
      <point x="51" y="705"/>
      <point x="51" y="721" type="qcurve"/>
      <point x="51" y="732"/>
      <point x="61" y="753"/>
      <point x="68" y="761" type="qcurve"/>
      <point x="92" y="791"/>
      <point x="164" y="813"/>
      <point x="200" y="813" type="qcurve"/>
      <point x="232" y="813"/>
      <point x="289" y="792"/>
      <point x="324" y="748"/>
      <point x="324" y="712" type="qcurve"/>
      <point x="324" y="675"/>
      <point x="272" y="624"/>
      <point x="241" y="612" type="qcurve"/>
      <point x="284" y="609"/>
      <point x="345" y="562"/>
    </contour>
  </outline>
</glyph>
<glyph name="paragraph" format="2">
  <advance width="800" height="1000"/>
  <unicode hex="00B6"/>
  <outline>
    <contour>
      <point x="635" y="761" type="line"/>
      <point x="563" y="761" type="line"/>
      <point x="563" y="-44" type="line"/>
      <point x="499" y="-44" type="line"/>
      <point x="499" y="761" type="line"/>
      <point x="428" y="761" type="line"/>
      <point x="428" y="-44" type="line"/>
      <point x="366" y="-44" type="line"/>
      <point x="366" y="439" type="line"/>
      <point x="314" y="444"/>
      <point x="222" y="480"/>
      <point x="165" y="553"/>
      <point x="165" y="613" type="qcurve"/>
      <point x="165" y="659"/>
      <point x="208" y="728"/>
      <point x="245" y="752" type="qcurve"/>
      <point x="275" y="772"/>
      <point x="355" y="796"/>
      <point x="390" y="796" type="qcurve"/>
      <point x="635" y="796" type="line"/>
    </contour>
  </outline>
</glyph>
<glyph name="cedilla" format="2">
  <advance width="500" height="1000"/>
  <unicode hex="00B8"/>
  <outline>
    <contour>
      <point x="367" y="-98" type="qcurve"/>
      <point x="367" y="-125"/>
      <point x="336" y="-157"/>
      <point x="289" y="-172"/>
      <point x="239" y="-177"/>
      <point x="219" y="-177" type="qcurve"/>
      <point x="198" y="-177"/>
      <point x="151" y="-163"/>
      <point x="131" y="-154" type="qcurve"/>
      <point x="124" y="-151"/>
      <point x="93" y="-131"/>
      <point x="93" y="-123" type="qcurve"/>
      <point x="93" y="-117"/>
      <point x="103" y="-112"/>
      <point x="108" y="-112" type="qcurve"/>
      <point x="115" y="-112"/>
      <point x="135" y="-120"/>
      <point x="142" y="-122" type="qcurve"/>
      <point x="180" y="-133"/>
      <point x="217" y="-133" type="qcurve"/>
      <point x="227" y="-133"/>
      <point x="263" y="-127"/>
      <point x="292" y="-112"/>
      <point x="292" y="-99" type="qcurve"/>
      <point x="292" y="-88"/>
      <point x="273" y="-75"/>
      <point x="248" y="-70"/>
      <point x="239" y="-70" type="qcurve"/>
      <point x="217" y="-70"/>
      <point x="168" y="-84"/>
      <point x="147" y="-91" type="qcurve"/>
      <point x="163" y="-60"/>
      <point x="192" y="2"/>
      <point x="205" y="33" type="qcurve"/>
      <point x="256" y="26" type="line"/>
      <point x="246" y="9"/>
      <point x="225" y="-26"/>
      <point x="214" y="-43" type="qcurve"/>
      <point x="238" y="-40"/>
      <point x="262" y="-40" type="qcurve"/>
      <point x="282" y="-40"/>
      <point x="331" y="-47"/>
      <point x="367" y="-72"/>
    </contour>
  </outline>
</glyph>
<glyph name="onesuperior" format="2">
  <advance width="390" height="1000"/>
  <unicode hex="00B9"/>
  <outline>
    <contour>
      <point x="335" y="386" type="qcurve"/>
      <point x="335" y="375"/>
      <point x="323" y="375" type="qcurve"/>
      <point x="295" y="375" type="line"/>
      <point x="276" y="375"/>
      <point x="240" y="376"/>
      <point x="221" y="376" type="qcurve"/>
      <point x="203" y="376"/>
      <point x="168" y="375"/>
      <point x="150" y="375" type="qcurve"/>
      <point x="124" y="375" type="line"/>
      <point x="113" y="375"/>
      <point x="113" y="386" type="qcurve"/>
      <point x="113" y="400"/>
      <point x="125" y="400" type="qcurve"/>
      <point x="135" y="400"/>
      <point x="155" y="399"/>
      <point x="165" y="399" type="qcurve"/>
      <point x="176" y="399"/>
      <point x="185" y="415"/>
      <point x="185" y="425" type="qcurve"/>
      <point x="185" y="763" type="line"/>
      <point x="182" y="762"/>
      <point x="154" y="753"/>
      <point x="121" y="743"/>
      <point x="97" y="736"/>
      <point x="96" y="736" type="qcurve"/>
      <point x="92" y="736"/>
      <point x="85" y="746"/>
      <point x="85" y="750" type="qcurve"/>
      <point x="85" y="758"/>
      <point x="90" y="766"/>
      <point x="98" y="768" type="qcurve"/>
      <point x="130" y="776"/>
      <point x="203" y="799"/>
      <point x="232" y="812" type="qcurve"/>
      <point x="242" y="817"/>
      <point x="252" y="817" type="qcurve"/>
      <point x="259" y="817"/>
      <point x="262" y="809"/>
      <point x="262" y="804" type="qcurve"/>
      <point x="262" y="755"/>
      <point x="260" y="657"/>
      <point x="260" y="608" type="qcurve"/>
      <point x="260" y="425" type="line"/>
      <point x="260" y="412"/>
      <point x="268" y="399"/>
      <point x="282" y="399" type="qcurve"/>
      <point x="292" y="399"/>
      <point x="312" y="400"/>
      <point x="322" y="400" type="qcurve"/>
      <point x="335" y="400"/>
    </contour>
  </outline>
</glyph>
<glyph name="onehalf" format="2">
  <advance width="1000" height="1000"/>
  <unicode hex="00BD"/>
  <outline>
    <contour>
      <point x="381" y="359" type="qcurve"/>
      <point x="381" y="346"/>
      <point x="368" y="346" type="qcurve"/>
      <point x="343" y="346"/>
      <point x="293" y="349"/>
      <point x="267" y="349" type="qcurve"/>
      <point x="242" y="349"/>
      <point x="192" y="346"/>
      <point x="167" y="346" type="qcurve"/>
      <point x="156" y="346"/>
      <point x="156" y="359" type="qcurve"/>
      <point x="156" y="371"/>
      <point x="168" y="371" type="qcurve"/>
      <point x="178" y="371"/>
      <point x="198" y="370"/>
      <point x="208" y="370" type="qcurve"/>
      <point x="219" y="370"/>
      <point x="228" y="387"/>
      <point x="228" y="396" type="qcurve"/>
      <point x="228" y="743" type="line"/>
      <point x="220" y="742"/>
      <point x="180" y="728"/>
      <point x="143" y="715"/>
      <point x="139" y="715" type="qcurve"/>
      <point x="132" y="715"/>
      <point x="128" y="730"/>
      <point x="128" y="735" type="qcurve"/>
      <point x="128" y="741"/>
      <point x="136" y="746"/>
      <point x="141" y="747" type="qcurve"/>
      <point x="166" y="753"/>
      <point x="216" y="768"/>
      <point x="240" y="777" type="qcurve"/>
      <point x="250" y="781"/>
      <point x="289" y="796"/>
      <point x="298" y="796" type="qcurve"/>
      <point x="305" y="796"/>
      <point x="308" y="788"/>
      <point x="308" y="783" type="qcurve"/>
      <point x="308" y="700" type="line"/>
      <point x="308" y="672"/>
      <point x="306" y="616"/>
      <point x="306" y="587" type="qcurve"/>
      <point x="306" y="396" type="line"/>
      <point x="306" y="383"/>
      <point x="314" y="370"/>
      <point x="328" y="370" type="qcurve"/>
      <point x="338" y="370"/>
      <point x="358" y="371"/>
      <point x="368" y="371" type="qcurve"/>
      <point x="381" y="371"/>
    </contour>
    <contour>
      <point x="845" y="808" type="line"/>
      <point x="214" y="-103" type="line"/>
      <point x="178" y="-76" type="line"/>
      <point x="810" y="832" type="line"/>
    </contour>
    <contour>
      <point x="930" y="55" type="qcurve"/>
      <point x="930" y="47"/>
      <point x="916" y="9"/>
      <point x="914" y="-2" type="qcurve"/>
      <point x="911" y="-12"/>
      <point x="907" y="-34"/>
      <point x="905" y="-45" type="qcurve"/>
      <point x="899" y="-49"/>
      <point x="893" y="-49" type="qcurve"/>
      <point x="880" y="-49"/>
      <point x="853" y="-47"/>
      <point x="839" y="-47" type="qcurve"/>
      <point x="802" y="-47"/>
      <point x="727" y="-50"/>
      <point x="689" y="-50" type="qcurve"/>
      <point x="673" y="-50"/>
      <point x="642" y="-52"/>
      <point x="626" y="-52" type="qcurve"/>
      <point x="622" y="-52"/>
      <point x="610" y="-45"/>
      <point x="610" y="-41" type="qcurve"/>
      <point x="610" y="-13"/>
      <point x="646" y="46"/>
      <point x="700" y="104"/>
      <point x="755" y="154"/>
      <point x="774" y="172" type="qcurve"/>
      <point x="796" y="194"/>
      <point x="829" y="248"/>
      <point x="829" y="280" type="qcurve"/>
      <point x="829" y="298"/>
      <point x="819" y="339"/>
      <point x="793" y="368"/>
      <point x="770" y="368" type="qcurve"/>
      <point x="764" y="368"/>
      <point x="743" y="362"/>
      <point x="737" y="360" type="qcurve"/>
      <point x="716" y="351"/>
      <point x="699" y="321"/>
      <point x="694" y="288"/>
      <point x="691" y="259"/>
      <point x="677" y="240"/>
      <point x="658" y="240" type="qcurve"/>
      <point x="642" y="240"/>
      <point x="616" y="261"/>
      <point x="616" y="277" type="qcurve"/>
      <point x="616" y="307"/>
      <point x="648" y="351"/>
      <point x="699" y="378"/>
      <point x="756" y="391"/>
      <point x="781" y="391" type="qcurve"/>
      <point x="814" y="391"/>
      <point x="875" y="367"/>
      <point x="913" y="318"/>
      <point x="913" y="282" type="qcurve"/>
      <point x="913" y="242"/>
      <point x="884" y="187"/>
      <point x="836" y="148"/>
      <point x="779" y="114"/>
      <point x="752" y="94" type="qcurve"/>
      <point x="743" y="87"/>
      <point x="705" y="55"/>
      <point x="672" y="21"/>
      <point x="668" y="11" type="qcurve"/>
      <point x="666" y="3"/>
      <point x="665" y="0" type="qcurve"/>
      <point x="702" y="0"/>
      <point x="775" y="1"/>
      <point x="812" y="3" type="qcurve"/>
      <point x="846" y="5"/>
      <point x="878" y="24"/>
      <point x="891" y="48"/>
      <point x="900" y="65"/>
      <point x="912" y="65" type="qcurve"/>
      <point x="916" y="65"/>
      <point x="930" y="60"/>
    </contour>
  </outline>
</glyph>
<glyph name="threequarters" format="2">
  <advance width="1000" height="1000"/>
  <unicode hex="00BE"/>
  <outline>
    <contour>
      <point x="772" y="102" type="line"/>
      <point x="772" y="298" type="line"/>
      <point x="636" y="102" type="line"/>
    </contour>
    <contour>
      <point x="408" y="484" type="qcurve"/>
      <point x="408" y="435"/>
      <point x="355" y="367"/>
      <point x="272" y="332"/>
      <point x="227" y="332" type="qcurve"/>
      <point x="197" y="332"/>
      <point x="123" y="355"/>
      <point x="105" y="382" type="qcurve"/>
      <point x="101" y="389"/>
      <point x="92" y="408"/>
      <point x="92" y="416" type="qcurve"/>
      <point x="92" y="433"/>
      <point x="121" y="459"/>
      <point x="137" y="459" type="qcurve"/>
      <point x="148" y="459"/>
      <point x="155" y="444"/>
      <point x="156" y="436" type="qcurve"/>
      <point x="158" y="427"/>
      <point x="162" y="410"/>
      <point x="166" y="402" type="qcurve"/>
      <point x="175" y="384"/>
      <point x="211" y="361"/>
      <point x="230" y="361" type="qcurve"/>
      <point x="263" y="361"/>
      <point x="305" y="397"/>
      <point x="325" y="452"/>
      <point x="325" y="481" type="qcurve"/>
      <point x="325" y="515"/>
      <point x="281" y="567"/>
      <point x="245" y="567" type="qcurve"/>
      <point x="231" y="567"/>
      <point x="202" y="561"/>
      <point x="188" y="561" type="qcurve"/>
      <point x="183" y="561"/>
      <point x="173" y="570"/>
      <point x="173" y="576" type="qcurve"/>
      <point x="173" y="581"/>
      <point x="182" y="591"/>
      <point x="187" y="591" type="qcurve"/>
      <point x="221" y="591" type="line"/>
      <point x="261" y="591"/>
      <point x="305" y="641"/>
      <point x="305" y="680" type="qcurve"/>
      <point x="305" y="709"/>
      <point x="273" y="763"/>
      <point x="239" y="763" type="qcurve"/>
      <point x="213" y="763"/>
      <point x="172" y="727"/>
      <point x="167" y="702" type="qcurve"/>
      <point x="165" y="694"/>
      <point x="163" y="671"/>
      <point x="154" y="654"/>
      <point x="140" y="654" type="qcurve"/>
      <point x="127" y="654"/>
      <point x="94" y="679"/>
      <point x="94" y="693" type="qcurve"/>
      <point x="94" y="715"/>
      <point x="111" y="734" type="qcurve"/>
      <point x="137" y="765"/>
      <point x="213" y="788"/>
      <point x="250" y="788" type="qcurve"/>
      <point x="283" y="788"/>
      <point x="345" y="767"/>
      <point x="385" y="722"/>
      <point x="385" y="684" type="qcurve"/>
      <point x="385" y="646"/>
      <point x="327" y="594"/>
      <point x="295" y="582" type="qcurve"/>
      <point x="339" y="579"/>
      <point x="408" y="533"/>
    </contour>
    <contour>
      <point x="824" y="792" type="line"/>
      <point x="192" y="-119" type="line"/>
      <point x="156" y="-92" type="line"/>
      <point x="789" y="816" type="line"/>
    </contour>
    <contour>
      <point x="929" y="132" type="qcurve"/>
      <point x="929" y="124"/>
      <point x="918" y="80"/>
      <point x="916" y="69" type="qcurve"/>
      <point x="845" y="69" type="line"/>
      <point x="845" y="-11" type="line"/>
      <point x="845" y="-28"/>
      <point x="866" y="-34"/>
      <point x="894" y="-30"/>
      <point x="915" y="-32"/>
      <point x="915" y="-45" type="qcurve"/>
      <point x="915" y="-58"/>
      <point x="903" y="-58" type="qcurve"/>
      <point x="880" y="-58"/>
      <point x="833" y="-55"/>
      <point x="810" y="-55" type="qcurve"/>
      <point x="787" y="-55"/>
      <point x="740" y="-58"/>
      <point x="717" y="-58" type="qcurve"/>
      <point x="706" y="-58"/>
      <point x="706" y="-45" type="qcurve"/>
      <point x="706" y="-33"/>
      <point x="726" y="-30"/>
      <point x="752" y="-33"/>
      <point x="772" y="-27"/>
      <point x="772" y="-11" type="qcurve"/>
      <point x="772" y="69" type="line"/>
      <point x="593" y="69" type="line"/>
      <point x="589" y="69"/>
      <point x="582" y="77"/>
      <point x="582" y="80" type="qcurve"/>
      <point x="582" y="91"/>
      <point x="588" y="99" type="qcurve"/>
      <point x="638" y="171"/>
      <point x="738" y="315"/>
      <point x="790" y="385" type="qcurve"/>
      <point x="796" y="393"/>
      <point x="816" y="407"/>
      <point x="826" y="407" type="qcurve"/>
      <point x="846" y="407"/>
      <point x="846" y="384" type="qcurve"/>
      <point x="846" y="102" type="line"/>
      <point x="869" y="102" type="line"/>
      <point x="890" y="102"/>
      <point x="906" y="120"/>
      <point x="914" y="139"/>
      <point x="921" y="139" type="qcurve"/>
      <point x="929" y="139"/>
    </contour>
  </outline>
</glyph>
<glyph name="Aring" format="2">
  <advance width="774" height="1000"/>
  <unicode hex="00C5"/>
  <outline>
    <contour>
      <point x="462" y="297" type="line"/>
      <point x="434" y="379"/>
      <point x="375" y="541"/>
      <point x="349" y="623" type="qcurve"/>
      <point x="321" y="541"/>
      <point x="264" y="379"/>
      <point x="235" y="297" type="qcurve"/>
    </contour>
    <contour>
      <point x="446" y="826" type="qcurve"/>
      <point x="446" y="852"/>
      <point x="411" y="885"/>
      <point x="386" y="885" type="qcurve"/>
      <point x="362" y="885"/>
      <point x="325" y="852"/>
      <point x="325" y="826" type="qcurve"/>
      <point x="325" y="801"/>
      <point x="362" y="771"/>
      <point x="386" y="771" type="qcurve"/>
      <point x="410" y="771"/>
      <point x="446" y="801"/>
    </contour>
    <contour>
      <point x="763" y="10" type="qcurve"/>
      <point x="763" y="-5"/>
      <point x="744" y="-5" type="qcurve"/>
      <point x="738" y="-5"/>
      <point x="726" y="-5"/>
      <point x="719" y="-4" type="qcurve"/>
      <point x="694" y="-2"/>
      <point x="641" y="-2"/>
      <point x="615" y="-2" type="qcurve"/>
      <point x="582" y="-2"/>
      <point x="516" y="-2"/>
      <point x="482" y="-4" type="qcurve"/>
      <point x="478" y="-5"/>
      <point x="470" y="-5"/>
      <point x="466" y="-5" type="qcurve"/>
      <point x="452" y="-5"/>
      <point x="452" y="9" type="qcurve"/>
      <point x="452" y="21"/>
      <point x="469" y="26"/>
      <point x="491" y="24"/>
      <point x="498" y="24" type="qcurve"/>
      <point x="516" y="24"/>
      <point x="533" y="39"/>
      <point x="533" y="58" type="qcurve"/>
      <point x="533" y="69"/>
      <point x="518" y="124"/>
      <point x="497" y="190"/>
      <point x="478" y="247"/>
      <point x="474" y="259" type="qcurve"/>
      <point x="222" y="259" type="line"/>
      <point x="220" y="253"/>
      <point x="205" y="211"/>
      <point x="186" y="155"/>
      <point x="168" y="101"/>
      <point x="156" y="62"/>
      <point x="156" y="58" type="qcurve"/>
      <point x="156" y="39"/>
      <point x="176" y="25"/>
      <point x="206" y="24"/>
      <point x="220" y="24" type="qcurve"/>
      <point x="225" y="24"/>
      <point x="231" y="11"/>
      <point x="231" y="6" type="qcurve"/>
      <point x="231" y="0"/>
      <point x="222" y="-6"/>
      <point x="217" y="-6" type="qcurve"/>
      <point x="184" y="-6"/>
      <point x="119" y="-3"/>
      <point x="87" y="-3" type="qcurve"/>
      <point x="71" y="-3"/>
      <point x="39" y="-5"/>
      <point x="22" y="-5" type="qcurve"/>
      <point x="17" y="-5"/>
      <point x="7" y="3"/>
      <point x="7" y="8" type="qcurve"/>
      <point x="7" y="19"/>
      <point x="23" y="25"/>
      <point x="44" y="24"/>
      <point x="51" y="24" type="qcurve"/>
      <point x="64" y="24"/>
      <point x="81" y="45"/>
      <point x="85" y="55" type="qcurve"/>
      <point x="143" y="200"/>
      <point x="251" y="493"/>
      <point x="300" y="641" type="qcurve"/>
      <point x="304" y="652"/>
      <point x="316" y="692"/>
      <point x="316" y="702" type="qcurve"/>
      <point x="316" y="708"/>
      <point x="311" y="717"/>
      <point x="311" y="721" type="qcurve"/>
      <point x="311" y="726"/>
      <point x="317" y="726" type="qcurve"/>
      <point x="328" y="728"/>
      <point x="350" y="728"/>
      <point x="361" y="729" type="qcurve"/>
      <point x="381" y="731"/>
      <point x="421" y="736"/>
      <point x="440" y="738" type="qcurve"/>
      <point x="684" y="63" type="line"/>
      <point x="692" y="39"/>
      <point x="719" y="26"/>
      <point x="742" y="26" type="qcurve"/>
      <point x="751" y="26"/>
      <point x="763" y="21"/>
    </contour>
    <contour>
      <point x="475" y="826" type="qcurve"/>
      <point x="475" y="789"/>
      <point x="421" y="744"/>
      <point x="386" y="744" type="qcurve"/>
      <point x="350" y="744"/>
      <point x="297" y="789"/>
      <point x="297" y="826" type="qcurve"/>
      <point x="297" y="863"/>
      <point x="350" y="912"/>
      <point x="386" y="912" type="qcurve"/>
      <point x="421" y="912"/>
      <point x="475" y="863"/>
    </contour>
  </outline>
</glyph>
<glyph name="Ccedilla" format="2">
  <advance width="725" height="1000"/>
  <unicode hex="00C7"/>
  <outline>
    <contour>
      <point x="706" y="163" type="qcurve"/>
      <point x="706" y="158"/>
      <point x="697" y="140"/>
      <point x="694" y="135" type="qcurve"/>
      <point x="681" y="112"/>
      <point x="636" y="67"/>
      <point x="614" y="52" type="qcurve"/>
      <point x="568" y="19"/>
      <point x="467" y="-2"/>
      <point x="411" y="-2" type="qcurve"/>
      <point x="399" y="-2"/>
      <point x="374" y="-1"/>
      <point x="362" y="0" type="qcurve"/>
      <point x="353" y="-14"/>
      <point x="332" y="-42"/>
      <point x="323" y="-57" type="qcurve"/>
      <point x="334" y="-55"/>
      <point x="354" y="-55"/>
      <point x="364" y="-55" type="qcurve"/>
      <point x="384" y="-55"/>
      <point x="434" y="-62"/>
      <point x="471" y="-87"/>
      <point x="471" y="-114" type="qcurve"/>
      <point x="471" y="-142"/>
      <point x="441" y="-174"/>
      <point x="394" y="-190"/>
      <point x="343" y="-195"/>
      <point x="323" y="-195" type="qcurve"/>
      <point x="301" y="-195"/>
      <point x="252" y="-181"/>
      <point x="232" y="-171" type="qcurve"/>
      <point x="225" y="-167"/>
      <point x="195" y="-148"/>
      <point x="195" y="-140" type="qcurve"/>
      <point x="195" y="-134"/>
      <point x="211" y="-129"/>
      <point x="215" y="-129" type="qcurve"/>
      <point x="226" y="-129"/>
      <point x="244" y="-137"/>
      <point x="253" y="-140" type="qcurve"/>
      <point x="284" y="-150"/>
      <point x="321" y="-150" type="qcurve"/>
      <point x="331" y="-150"/>
      <point x="362" y="-143"/>
      <point x="388" y="-128"/>
      <point x="388" y="-115" type="qcurve"/>
      <point x="388" y="-100"/>
      <point x="355" y="-85"/>
      <point x="342" y="-85" type="qcurve"/>
      <point x="318" y="-85"/>
      <point x="269" y="-102"/>
      <point x="246" y="-110" type="qcurve"/>
      <point x="260" y="-80"/>
      <point x="287" y="-19"/>
      <point x="300" y="12" type="qcurve"/>
      <point x="219" y="35"/>
      <point x="116" y="138"/>
      <point x="67" y="279"/>
      <point x="67" y="358" type="qcurve"/>
      <point x="67" y="464"/>
      <point x="145" y="636"/>
      <point x="298" y="737"/>
      <point x="409" y="737" type="qcurve"/>
      <point x="442" y="737"/>
      <point x="491" y="726"/>
      <point x="538" y="707"/>
      <point x="567" y="696" type="qcurve"/>
      <point x="588" y="689"/>
      <point x="630" y="683"/>
      <point x="652" y="681" type="qcurve"/>
      <point x="653" y="659"/>
      <point x="657" y="613"/>
      <point x="660" y="591" type="qcurve"/>
      <point x="662" y="571"/>
      <point x="672" y="531"/>
      <point x="672" y="511" type="qcurve"/>
      <point x="672" y="493"/>
      <point x="645" y="475"/>
      <point x="628" y="475" type="qcurve"/>
      <point x="615" y="475"/>
      <point x="594" y="485"/>
      <point x="589" y="498" type="qcurve"/>
      <point x="586" y="506"/>
      <point x="584" y="524"/>
      <point x="582" y="532" type="qcurve"/>
      <point x="575" y="564"/>
      <point x="540" y="638"/>
      <point x="516" y="660" type="qcurve"/>
      <point x="498" y="677"/>
      <point x="437" y="705"/>
      <point x="411" y="705" type="qcurve"/>
      <point x="386" y="705"/>
      <point x="343" y="683"/>
      <point x="323" y="667" type="qcurve"/>
      <point x="280" y="631"/>
      <point x="230" y="530"/>
      <point x="210" y="418"/>
      <point x="210" y="363" type="qcurve"/>
      <point x="210" y="327"/>
      <point x="219" y="255"/>
      <point x="229" y="220" type="qcurve"/>
      <point x="243" y="174"/>
      <point x="296" y="91"/>
      <point x="375" y="40"/>
      <point x="427" y="40" type="qcurve"/>
      <point x="452" y="40"/>
      <point x="509" y="54"/>
      <point x="531" y="64" type="qcurve"/>
      <point x="574" y="83"/>
      <point x="623" y="137"/>
      <point x="649" y="174" type="qcurve"/>
      <point x="656" y="183"/>
      <point x="667" y="193"/>
      <point x="680" y="193" type="qcurve"/>
      <point x="693" y="193"/>
      <point x="706" y="174"/>
    </contour>
  </outline>
</glyph>
<glyph name="Eth" format="2">
  <advance width="821" height="1000"/>
  <unicode hex="00D0"/>
  <outline>
    <contour>
      <point x="615" y="372" type="qcurve"/>
      <point x="615" y="429"/>
      <point x="591" y="542"/>
      <point x="537" y="637"/>
      <point x="446" y="694"/>
      <point x="379" y="694" type="qcurve"/>
      <point x="348" y="694"/>
      <point x="287" y="692"/>
      <point x="256" y="691" type="qcurve"/>
      <point x="256" y="398" type="line"/>
      <point x="368" y="398" type="line"/>
      <point x="368" y="348" type="line"/>
      <point x="256" y="348" type="line"/>
      <point x="256" y="79" type="line"/>
      <point x="256" y="54"/>
      <point x="269" y="31"/>
      <point x="297" y="31" type="qcurve"/>
      <point x="348" y="31"/>
      <point x="458" y="47"/>
      <point x="499" y="79" type="qcurve"/>
      <point x="543" y="114"/>
      <point x="594" y="210"/>
      <point x="615" y="318"/>
    </contour>
    <contour>
      <point x="760" y="386" type="qcurve"/>
      <point x="760" y="323"/>
      <point x="726" y="199"/>
      <point x="657" y="93"/>
      <point x="602" y="57" type="qcurve"/>
      <point x="567" y="34"/>
      <point x="476" y="5"/>
      <point x="381" y="-7"/>
      <point x="339" y="-7" type="qcurve"/>
      <point x="305" y="-7"/>
      <point x="237" y="-2"/>
      <point x="203" y="-2" type="qcurve"/>
      <point x="178" y="-2"/>
      <point x="129" y="-3"/>
      <point x="105" y="-5" type="qcurve"/>
      <point x="95" y="-6"/>
      <point x="77" y="-7"/>
      <point x="68" y="-7" type="qcurve"/>
      <point x="50" y="-7"/>
      <point x="50" y="9" type="qcurve"/>
      <point x="50" y="19"/>
      <point x="69" y="25"/>
      <point x="92" y="28"/>
      <point x="98" y="30" type="qcurve"/>
      <point x="115" y="38"/>
      <point x="121" y="72"/>
      <point x="121" y="88" type="qcurve"/>
      <point x="121" y="153"/>
      <point x="121" y="283"/>
      <point x="121" y="348" type="qcurve"/>
      <point x="46" y="348" type="line"/>
      <point x="46" y="398" type="line"/>
      <point x="121" y="398" type="line"/>
      <point x="121" y="449" type="line"/>
      <point x="121" y="501"/>
      <point x="122" y="604"/>
      <point x="119" y="655" type="qcurve"/>
      <point x="119" y="656"/>
      <point x="118" y="670"/>
      <point x="118" y="671" type="qcurve"/>
      <point x="114" y="687"/>
      <point x="74" y="690"/>
      <point x="60" y="690" type="qcurve"/>
      <point x="52" y="690"/>
      <point x="30" y="695"/>
      <point x="30" y="707" type="qcurve"/>
      <point x="30" y="713"/>
      <point x="42" y="726"/>
      <point x="49" y="726" type="qcurve"/>
      <point x="72" y="726"/>
      <point x="120" y="723"/>
      <point x="143" y="723" type="qcurve"/>
      <point x="213" y="723"/>
      <point x="351" y="733"/>
      <point x="421" y="733" type="qcurve"/>
      <point x="530" y="733"/>
      <point x="681" y="649"/>
      <point x="760" y="494"/>
    </contour>
  </outline>
</glyph>
<glyph name="Ntilde" format="2">
  <advance width="780" height="1000"/>
  <unicode hex="00D1"/>
  <outline>
    <contour>
      <point x="766" y="718" type="qcurve"/>
      <point x="766" y="699"/>
      <point x="747" y="699" type="qcurve"/>
      <point x="739" y="699"/>
      <point x="723" y="701"/>
      <point x="715" y="701" type="qcurve"/>
      <point x="711" y="701"/>
      <point x="701" y="700"/>
      <point x="696" y="700" type="qcurve"/>
      <point x="686" y="700"/>
      <point x="680" y="675"/>
      <point x="680" y="646"/>
      <point x="680" y="640" type="qcurve"/>
      <point x="680" y="17" type="line"/>
      <point x="680" y="10"/>
      <point x="677" y="0"/>
      <point x="668" y="-1" type="qcurve"/>
      <point x="654" y="-3"/>
      <point x="622" y="-2"/>
      <point x="608" y="-3" type="qcurve"/>
      <point x="600" y="23"/>
      <point x="571" y="71"/>
      <point x="555" y="93" type="qcurve"/>
      <point x="463" y="227"/>
      <point x="258" y="477"/>
      <point x="164" y="609" type="qcurve"/>
      <point x="164" y="474"/>
      <point x="163" y="205"/>
      <point x="163" y="70" type="qcurve"/>
      <point x="163" y="61"/>
      <point x="168" y="34"/>
      <point x="180" y="34" type="qcurve"/>
      <point x="194" y="34"/>
      <point x="223" y="36"/>
      <point x="236" y="36" type="qcurve"/>
      <point x="244" y="36"/>
      <point x="249" y="21"/>
      <point x="249" y="16" type="qcurve"/>
      <point x="249" y="9"/>
      <point x="242" y="-3"/>
      <point x="234" y="-3" type="qcurve"/>
      <point x="217" y="-3"/>
      <point x="183" y="1"/>
      <point x="166" y="1" type="qcurve"/>
      <point x="143" y="1"/>
      <point x="95" y="0"/>
      <point x="72" y="-2" type="qcurve"/>
      <point x="63" y="-3"/>
      <point x="46" y="-4"/>
      <point x="38" y="-4" type="qcurve"/>
      <point x="18" y="-4"/>
      <point x="18" y="17" type="qcurve"/>
      <point x="18" y="25"/>
      <point x="30" y="36"/>
      <point x="37" y="36" type="qcurve"/>
      <point x="47" y="36"/>
      <point x="65" y="33"/>
      <point x="75" y="33" type="qcurve"/>
      <point x="90" y="33"/>
      <point x="105" y="42"/>
      <point x="105" y="60" type="qcurve"/>
      <point x="105" y="198"/>
      <point x="110" y="474"/>
      <point x="110" y="612" type="qcurve"/>
      <point x="110" y="625"/>
      <point x="110" y="649"/>
      <point x="110" y="662" type="qcurve"/>
      <point x="110" y="675"/>
      <point x="101" y="701"/>
      <point x="85" y="701" type="qcurve"/>
      <point x="73" y="701"/>
      <point x="48" y="699"/>
      <point x="35" y="699" type="qcurve"/>
      <point x="18" y="699"/>
      <point x="18" y="718" type="qcurve"/>
      <point x="18" y="736"/>
      <point x="36" y="736" type="qcurve"/>
      <point x="62" y="736"/>
      <point x="114" y="734"/>
      <point x="139" y="734" type="qcurve"/>
      <point x="162" y="734"/>
      <point x="209" y="735"/>
      <point x="232" y="735" type="qcurve"/>
      <point x="291" y="655"/>
      <point x="422" y="506"/>
      <point x="482" y="427" type="qcurve"/>
      <point x="517" y="380"/>
      <point x="589" y="286"/>
      <point x="626" y="240" type="qcurve"/>
      <point x="626" y="346"/>
      <point x="627" y="558"/>
      <point x="627" y="664" type="qcurve"/>
      <point x="627" y="673"/>
      <point x="622" y="700"/>
      <point x="609" y="700" type="qcurve"/>
      <point x="582" y="700" type="line"/>
      <point x="576" y="700"/>
      <point x="564" y="697"/>
      <point x="558" y="697" type="qcurve"/>
      <point x="539" y="697"/>
      <point x="539" y="718" type="qcurve"/>
      <point x="539" y="730"/>
      <point x="553" y="735"/>
      <point x="563" y="735" type="qcurve"/>
      <point x="583" y="735"/>
      <point x="622" y="733"/>
      <point x="641" y="733" type="qcurve"/>
      <point x="667" y="733"/>
      <point x="720" y="737"/>
      <point x="746" y="737" type="qcurve"/>
      <point x="754" y="737"/>
      <point x="766" y="726"/>
    </contour>
    <contour>
      <point x="554" y="862" type="line"/>
      <point x="531" y="837"/>
      <point x="488" y="793"/>
      <point x="450" y="793" type="qcurve"/>
      <point x="423" y="793"/>
      <point x="376" y="815"/>
      <point x="338" y="837"/>
      <point x="322" y="837" type="qcurve"/>
      <point x="314" y="837"/>
      <point x="288" y="817"/>
      <point x="265" y="794"/>
      <point x="259" y="787" type="qcurve"/>
      <point x="226" y="807" type="line"/>
      <point x="249" y="840"/>
      <point x="297" y="891"/>
      <point x="341" y="891" type="qcurve"/>
      <point x="366" y="891"/>
      <point x="408" y="871"/>
      <point x="446" y="850"/>
      <point x="465" y="850" type="qcurve"/>
      <point x="480" y="850"/>
      <point x="516" y="879"/>
      <point x="524" y="890" type="qcurve"/>
    </contour>
  </outline>
</glyph>
<glyph name="Ocircumflex" format="2">
  <advance width="820" height="1000"/>
  <unicode hex="00D4"/>
  <outline>
    <contour>
      <point x="617" y="363" type="qcurve"/>
      <point x="617" y="401"/>
      <point x="605" y="494"/>
      <point x="577" y="586"/>
      <point x="529" y="663"/>
      <point x="458" y="710"/>
      <point x="409" y="710" type="qcurve"/>
      <point x="360" y="710"/>
      <point x="288" y="663"/>
      <point x="239" y="586"/>
      <point x="209" y="494"/>
      <point x="196" y="401"/>
      <point x="196" y="363" type="qcurve"/>
      <point x="196" y="325"/>
      <point x="210" y="234"/>
      <point x="240" y="143"/>
      <point x="289" y="68"/>
      <point x="361" y="23"/>
      <point x="409" y="23" type="qcurve"/>
      <point x="459" y="23"/>
      <point x="530" y="68"/>
      <point x="577" y="142"/>
      <point x="605" y="232"/>
      <point x="617" y="324"/>
    </contour>
    <contour>
      <point x="762" y="365" type="qcurve"/>
      <point x="762" y="252"/>
      <point x="682" y="84"/>
      <point x="525" y="-8"/>
      <point x="409" y="-8" type="qcurve"/>
      <point x="295" y="-8"/>
      <point x="137" y="85"/>
      <point x="55" y="252"/>
      <point x="55" y="363" type="qcurve"/>
      <point x="55" y="441"/>
      <point x="104" y="578"/>
      <point x="197" y="682"/>
      <point x="328" y="740"/>
      <point x="409" y="740" type="qcurve"/>
      <point x="523" y="740"/>
      <point x="681" y="645"/>
      <point x="762" y="476"/>
    </contour>
    <contour>
      <point x="587" y="816" type="line"/>
      <point x="577" y="771" type="line"/>
      <point x="408" y="826" type="line"/>
      <point x="244" y="773" type="line"/>
      <point x="233" y="818" type="line"/>
      <point x="410" y="901" type="line"/>
    </contour>
  </outline>
</glyph>
<glyph name="Otilde" format="2">
  <advance width="820" height="1000"/>
  <unicode hex="00D5"/>
  <outline>
    <contour>
      <point x="617" y="363" type="qcurve"/>
      <point x="617" y="401"/>
      <point x="605" y="494"/>
      <point x="577" y="586"/>
      <point x="529" y="663"/>
      <point x="458" y="710"/>
      <point x="409" y="710" type="qcurve"/>
      <point x="360" y="710"/>
      <point x="288" y="663"/>
      <point x="239" y="586"/>
      <point x="209" y="494"/>
      <point x="196" y="401"/>
      <point x="196" y="363" type="qcurve"/>
      <point x="196" y="325"/>
      <point x="210" y="234"/>
      <point x="240" y="143"/>
      <point x="289" y="68"/>
      <point x="361" y="23"/>
      <point x="409" y="23" type="qcurve"/>
      <point x="459" y="23"/>
      <point x="530" y="68"/>
      <point x="577" y="142"/>
      <point x="605" y="232"/>
      <point x="617" y="324"/>
    </contour>
    <contour>
      <point x="762" y="365" type="qcurve"/>
      <point x="762" y="252"/>
      <point x="682" y="84"/>
      <point x="525" y="-8"/>
      <point x="409" y="-8" type="qcurve"/>
      <point x="295" y="-8"/>
      <point x="137" y="85"/>
      <point x="55" y="252"/>
      <point x="55" y="363" type="qcurve"/>
      <point x="55" y="441"/>
      <point x="104" y="578"/>
      <point x="197" y="682"/>
      <point x="328" y="740"/>
      <point x="409" y="740" type="qcurve"/>
      <point x="523" y="740"/>
      <point x="681" y="645"/>
      <point x="762" y="476"/>
    </contour>
    <contour>
      <point x="574" y="859" type="line"/>
      <point x="551" y="834"/>
      <point x="508" y="790"/>
      <point x="470" y="790" type="qcurve"/>
      <point x="443" y="790"/>
      <point x="396" y="812"/>
      <point x="358" y="834"/>
      <point x="342" y="834" type="qcurve"/>
      <point x="334" y="834"/>
      <point x="311" y="813"/>
      <point x="289" y="788"/>
      <point x="284" y="781" type="qcurve"/>
      <point x="246" y="807" type="line"/>
      <point x="269" y="840"/>
      <point x="317" y="892"/>
      <point x="361" y="892" type="qcurve"/>
      <point x="386" y="892"/>
      <point x="428" y="871"/>
      <point x="466" y="850"/>
      <point x="485" y="850" type="qcurve"/>
      <point x="499" y="850"/>
      <point x="533" y="885"/>
      <point x="542" y="895" type="qcurve"/>
    </contour>
  </outline>
</glyph>
<glyph name="Odieresis" format="2">
  <advance width="820" height="1000"/>
  <unicode hex="00D6"/>
  <outline>
    <contour>
      <point x="617" y="363" type="qcurve"/>
      <point x="617" y="401"/>
      <point x="605" y="494"/>
      <point x="577" y="586"/>
      <point x="529" y="663"/>
      <point x="458" y="710"/>
      <point x="409" y="710" type="qcurve"/>
      <point x="360" y="710"/>
      <point x="288" y="663"/>
      <point x="239" y="586"/>
      <point x="209" y="494"/>
      <point x="196" y="401"/>
      <point x="196" y="363" type="qcurve"/>
      <point x="196" y="325"/>
      <point x="210" y="234"/>
      <point x="240" y="143"/>
      <point x="289" y="68"/>
      <point x="361" y="23"/>
      <point x="409" y="23" type="qcurve"/>
      <point x="459" y="23"/>
      <point x="530" y="68"/>
      <point x="577" y="142"/>
      <point x="605" y="232"/>
      <point x="617" y="324"/>
    </contour>
    <contour>
      <point x="762" y="365" type="qcurve"/>
      <point x="762" y="252"/>
      <point x="682" y="84"/>
      <point x="525" y="-8"/>
      <point x="409" y="-8" type="qcurve"/>
      <point x="295" y="-8"/>
      <point x="137" y="85"/>
      <point x="55" y="252"/>
      <point x="55" y="363" type="qcurve"/>
      <point x="55" y="441"/>
      <point x="104" y="578"/>
      <point x="197" y="682"/>
      <point x="328" y="740"/>
      <point x="409" y="740" type="qcurve"/>
      <point x="523" y="740"/>
      <point x="681" y="645"/>
      <point x="762" y="476"/>
    </contour>
    <contour>
      <point x="364" y="819" type="qcurve"/>
      <point x="364" y="794"/>
      <point x="323" y="762"/>
      <point x="300" y="762" type="qcurve"/>
      <point x="277" y="762"/>
      <point x="235" y="794"/>
      <point x="235" y="819" type="qcurve"/>
      <point x="235" y="843"/>
      <point x="277" y="876"/>
      <point x="300" y="876" type="qcurve"/>
      <point x="323" y="876"/>
      <point x="364" y="843"/>
    </contour>
    <contour>
      <point x="585" y="819" type="qcurve"/>
      <point x="585" y="794"/>
      <point x="543" y="762"/>
      <point x="520" y="762" type="qcurve"/>
      <point x="498" y="762"/>
      <point x="456" y="794"/>
      <point x="456" y="819" type="qcurve"/>
      <point x="456" y="843"/>
      <point x="498" y="876"/>
      <point x="520" y="876" type="qcurve"/>
      <point x="543" y="876"/>
      <point x="585" y="843"/>
    </contour>
  </outline>
</glyph>
<glyph name="multiply" format="2">
  <advance width="750" height="1000"/>
  <unicode hex="00D7"/>
  <outline>
    <contour>
      <point x="642" y="140" type="line"/>
      <point x="601" y="99" type="line"/>
      <point x="377" y="320" type="line"/>
      <point x="149" y="94" type="line"/>
      <point x="109" y="137" type="line"/>
      <point x="336" y="363" type="line"/>
      <point x="116" y="580" type="line"/>
      <point x="156" y="622" type="line"/>
      <point x="376" y="402" type="line"/>
      <point x="595" y="619" type="line"/>
      <point x="637" y="577" type="line"/>
      <point x="418" y="361" type="line"/>
    </contour>
  </outline>
</glyph>
<glyph name="Oslash" format="2">
  <advance width="820" height="1000"/>
  <unicode hex="00D8"/>
  <outline>
    <contour>
      <point x="610" y="369" type="qcurve"/>
      <point x="610" y="412"/>
      <point x="599" y="498"/>
      <point x="587" y="540" type="qcurve"/>
      <point x="253" y="141" type="line"/>
      <point x="277" y="94"/>
      <point x="354" y="32"/>
      <point x="409" y="32" type="qcurve"/>
      <point x="457" y="32"/>
      <point x="526" y="77"/>
      <point x="572" y="152"/>
      <point x="599" y="241"/>
      <point x="610" y="332"/>
    </contour>
    <contour>
      <point x="568" y="593" type="line"/>
      <point x="546" y="644"/>
      <point x="468" y="714"/>
      <point x="409" y="714" type="qcurve"/>
      <point x="368" y="714"/>
      <point x="304" y="674"/>
      <point x="258" y="609"/>
      <point x="228" y="535"/>
      <point x="220" y="501" type="qcurve"/>
      <point x="205" y="435"/>
      <point x="205" y="369" type="qcurve"/>
      <point x="205" y="324"/>
      <point x="219" y="231"/>
      <point x="233" y="189" type="qcurve"/>
    </contour>
    <contour>
      <point x="756" y="369" type="qcurve"/>
      <point x="756" y="257"/>
      <point x="679" y="92"/>
      <point x="525" y="1"/>
      <point x="409" y="1" type="qcurve"/>
      <point x="351" y="1"/>
      <point x="238" y="31"/>
      <point x="191" y="67" type="qcurve"/>
      <point x="119" y="-19" type="line"/>
      <point x="82" y="6" type="line"/>
      <point x="157" y="97" type="line"/>
      <point x="105" y="152"/>
      <point x="65" y="296"/>
      <point x="65" y="369" type="qcurve"/>
      <point x="65" y="446"/>
      <point x="111" y="582"/>
      <point x="200" y="685"/>
      <point x="328" y="744"/>
      <point x="409" y="744" type="qcurve"/>
      <point x="469" y="744"/>
      <point x="586" y="710"/>
      <point x="633" y="671" type="qcurve"/>
      <point x="716" y="770" type="line"/>
      <point x="754" y="738" type="line"/>
      <point x="669" y="637" type="line"/>
      <point x="717" y="582"/>
      <point x="756" y="440"/>
    </contour>
  </outline>
</glyph>
<glyph name="Udieresis" format="2">
  <advance width="756" height="1000"/>
  <unicode hex="00DC"/>
  <outline>
    <contour>
      <point x="743" y="715" type="qcurve"/>
      <point x="743" y="708"/>
      <point x="734" y="695"/>
      <point x="726" y="695" type="qcurve"/>
      <point x="713" y="695"/>
      <point x="687" y="696"/>
      <point x="674" y="696" type="qcurve"/>
      <point x="661" y="696"/>
      <point x="655" y="671"/>
      <point x="655" y="661" type="qcurve"/>
      <point x="655" y="656"/>
      <point x="656" y="645"/>
      <point x="656" y="640" type="qcurve"/>
      <point x="656" y="549"/>
      <point x="657" y="369"/>
      <point x="657" y="279" type="qcurve"/>
      <point x="657" y="147"/>
      <point x="527" y="-6"/>
      <point x="390" y="-6" type="qcurve"/>
      <point x="255" y="-6"/>
      <point x="105" y="124"/>
      <point x="105" y="264" type="qcurve"/>
      <point x="105" y="309" type="line"/>
      <point x="105" y="395"/>
      <point x="106" y="568"/>
      <point x="106" y="655" type="qcurve"/>
      <point x="106" y="664"/>
      <point x="102" y="695"/>
      <point x="90" y="696" type="qcurve"/>
      <point x="77" y="697"/>
      <point x="50" y="695"/>
      <point x="37" y="695" type="qcurve"/>
      <point x="30" y="695"/>
      <point x="18" y="706"/>
      <point x="18" y="713" type="qcurve"/>
      <point x="18" y="721"/>
      <point x="29" y="733"/>
      <point x="37" y="733" type="qcurve"/>
      <point x="49" y="733"/>
      <point x="72" y="731"/>
      <point x="83" y="730" type="qcurve"/>
      <point x="106" y="729"/>
      <point x="152" y="728"/>
      <point x="174" y="728" type="qcurve"/>
      <point x="197" y="728"/>
      <point x="240" y="728"/>
      <point x="262" y="729" type="qcurve"/>
      <point x="276" y="730"/>
      <point x="303" y="733"/>
      <point x="316" y="733" type="qcurve"/>
      <point x="324" y="733"/>
      <point x="333" y="721"/>
      <point x="333" y="713" type="qcurve"/>
      <point x="333" y="706"/>
      <point x="324" y="695"/>
      <point x="316" y="695" type="qcurve"/>
      <point x="303" y="695"/>
      <point x="278" y="697"/>
      <point x="265" y="697" type="qcurve"/>
      <point x="255" y="697"/>
      <point x="249" y="680"/>
      <point x="248" y="672" type="qcurve"/>
      <point x="247" y="656"/>
      <point x="248" y="624"/>
      <point x="248" y="608" type="qcurve"/>
      <point x="248" y="518"/>
      <point x="245" y="339"/>
      <point x="245" y="249" type="qcurve"/>
      <point x="245" y="206"/>
      <point x="252" y="129"/>
      <point x="280" y="69"/>
      <point x="341" y="35"/>
      <point x="395" y="35" type="qcurve"/>
      <point x="467" y="35"/>
      <point x="553" y="102"/>
      <point x="591" y="211"/>
      <point x="591" y="275" type="qcurve"/>
      <point x="591" y="374"/>
      <point x="583" y="572"/>
      <point x="583" y="671" type="qcurve"/>
      <point x="583" y="686"/>
      <point x="569" y="697"/>
      <point x="555" y="697" type="qcurve"/>
      <point x="545" y="697"/>
      <point x="526" y="695"/>
      <point x="515" y="695" type="qcurve"/>
      <point x="508" y="695"/>
      <point x="496" y="705"/>
      <point x="496" y="713" type="qcurve"/>
      <point x="496" y="721"/>
      <point x="507" y="733"/>
      <point x="515" y="733" type="qcurve"/>
      <point x="531" y="733"/>
      <point x="561" y="730"/>
      <point x="577" y="729" type="qcurve"/>
      <point x="587" y="728"/>
      <point x="607" y="728"/>
      <point x="617" y="728" type="qcurve"/>
      <point x="628" y="728"/>
      <point x="651" y="728"/>
      <point x="662" y="729" type="qcurve"/>
      <point x="678" y="729"/>
      <point x="709" y="733"/>
      <point x="725" y="733" type="qcurve"/>
      <point x="743" y="733"/>
    </contour>
    <contour>
      <point x="332" y="819" type="qcurve"/>
      <point x="332" y="794"/>
      <point x="291" y="762"/>
      <point x="268" y="762" type="qcurve"/>
      <point x="245" y="762"/>
      <point x="203" y="794"/>
      <point x="203" y="819" type="qcurve"/>
      <point x="203" y="843"/>
      <point x="245" y="876"/>
      <point x="268" y="876" type="qcurve"/>
      <point x="291" y="876"/>
      <point x="332" y="843"/>
    </contour>
    <contour>
      <point x="553" y="819" type="qcurve"/>
      <point x="553" y="794"/>
      <point x="511" y="762"/>
      <point x="488" y="762" type="qcurve"/>
      <point x="466" y="762"/>
      <point x="424" y="794"/>
      <point x="424" y="819" type="qcurve"/>
      <point x="424" y="843"/>
      <point x="466" y="876"/>
      <point x="488" y="876" type="qcurve"/>
      <point x="511" y="876"/>
      <point x="553" y="843"/>
    </contour>
  </outline>
</glyph>
<glyph name="Yacute" format="2">
  <advance width="693" height="1000"/>
  <unicode hex="00DD"/>
  <outline>
    <contour>
      <point x="704" y="718" type="qcurve"/>
      <point x="704" y="702"/>
      <point x="681" y="701"/>
      <point x="670" y="701" type="qcurve"/>
      <point x="663" y="701"/>
      <point x="645" y="700"/>
      <point x="639" y="697" type="qcurve"/>
      <point x="633" y="695"/>
      <point x="618" y="677"/>
      <point x="615" y="671" type="qcurve"/>
      <point x="563" y="585"/>
      <point x="461" y="412"/>
      <point x="410" y="326" type="qcurve"/>
      <point x="411" y="262"/>
      <point x="410" y="133"/>
      <point x="410" y="69" type="qcurve"/>
      <point x="410" y="56"/>
      <point x="418" y="27"/>
      <point x="434" y="27" type="qcurve"/>
      <point x="448" y="27"/>
      <point x="475" y="29"/>
      <point x="488" y="29" type="qcurve"/>
      <point x="496" y="29"/>
      <point x="505" y="18"/>
      <point x="505" y="11" type="qcurve"/>
      <point x="505" y="4"/>
      <point x="494" y="-5"/>
      <point x="488" y="-5" type="qcurve"/>
      <point x="457" y="-5"/>
      <point x="395" y="-1"/>
      <point x="364" y="-1" type="qcurve"/>
      <point x="334" y="-1"/>
      <point x="275" y="-1"/>
      <point x="246" y="-3" type="qcurve"/>
      <point x="234" y="-4"/>
      <point x="210" y="-5"/>
      <point x="198" y="-5" type="qcurve"/>
      <point x="179" y="-5"/>
      <point x="179" y="12" type="qcurve"/>
      <point x="179" y="30"/>
      <point x="197" y="30" type="qcurve"/>
      <point x="208" y="30"/>
      <point x="228" y="28"/>
      <point x="238" y="28" type="qcurve"/>
      <point x="259" y="28"/>
      <point x="272" y="43"/>
      <point x="271" y="69"/>
      <point x="271" y="84" type="qcurve"/>
      <point x="272" y="267" type="line"/>
      <point x="272" y="298"/>
      <point x="255" y="347"/>
      <point x="243" y="374" type="qcurve"/>
      <point x="225" y="416"/>
      <point x="184" y="498"/>
      <point x="163" y="539" type="qcurve"/>
      <point x="146" y="573"/>
      <point x="109" y="643"/>
      <point x="88" y="674" type="qcurve"/>
      <point x="83" y="682"/>
      <point x="62" y="695"/>
      <point x="52" y="695" type="qcurve"/>
      <point x="45" y="695"/>
      <point x="29" y="692"/>
      <point x="21" y="692" type="qcurve"/>
      <point x="13" y="692"/>
      <point x="0" y="702"/>
      <point x="0" y="710" type="qcurve"/>
      <point x="0" y="726"/>
      <point x="17" y="728" type="qcurve"/>
      <point x="35" y="730"/>
      <point x="71" y="732"/>
      <point x="89" y="733" type="qcurve"/>
      <point x="115" y="736"/>
      <point x="168" y="742"/>
      <point x="194" y="742" type="qcurve"/>
      <point x="206" y="742"/>
      <point x="217" y="733"/>
      <point x="222" y="722" type="qcurve"/>
      <point x="260" y="632"/>
      <point x="339" y="454"/>
      <point x="379" y="365" type="qcurve"/>
      <point x="388" y="379"/>
      <point x="426" y="445"/>
      <point x="471" y="528"/>
      <point x="512" y="611"/>
      <point x="538" y="676"/>
      <point x="538" y="690" type="qcurve"/>
      <point x="538" y="699"/>
      <point x="527" y="704"/>
      <point x="519" y="704" type="qcurve"/>
      <point x="509" y="704"/>
      <point x="490" y="701"/>
      <point x="480" y="701" type="qcurve"/>
      <point x="458" y="701"/>
      <point x="458" y="720" type="qcurve"/>
      <point x="458" y="736"/>
      <point x="476" y="736" type="qcurve"/>
      <point x="505" y="736"/>
      <point x="563" y="733"/>
      <point x="592" y="733" type="qcurve"/>
      <point x="616" y="733"/>
      <point x="664" y="736"/>
      <point x="688" y="736" type="qcurve"/>
      <point x="704" y="736"/>
    </contour>
    <contour>
      <point x="490" y="828" type="line"/>
      <point x="217" y="774" type="line"/>
      <point x="203" y="826" type="line"/>
      <point x="470" y="904" type="line"/>
    </contour>
  </outline>
</glyph>
<glyph name="ae" format="2">
  <advance width="869" height="1000"/>
  <unicode hex="00E6"/>
  <outline>
    <contour>
      <point x="360" y="127" type="qcurve"/>
      <point x="352" y="171"/>
      <point x="351" y="260"/>
      <point x="350" y="304" type="qcurve"/>
      <point x="348" y="304" type="line"/>
      <point x="317" y="304"/>
      <point x="250" y="283"/>
      <point x="191" y="243"/>
      <point x="154" y="187"/>
      <point x="154" y="152" type="qcurve"/>
      <point x="154" y="113"/>
      <point x="195" y="57"/>
      <point x="238" y="57" type="qcurve"/>
      <point x="258" y="57"/>
      <point x="304" y="80"/>
      <point x="347" y="113"/>
    </contour>
    <contour>
      <point x="685" y="364" type="qcurve"/>
      <point x="685" y="388"/>
      <point x="681" y="443"/>
      <point x="665" y="492"/>
      <point x="628" y="524"/>
      <point x="596" y="524" type="qcurve"/>
      <point x="566" y="524"/>
      <point x="522" y="492"/>
      <point x="493" y="442"/>
      <point x="475" y="386"/>
      <point x="470" y="362" type="qcurve"/>
      <point x="490" y="360"/>
      <point x="530" y="359"/>
      <point x="550" y="359" type="qcurve"/>
      <point x="584" y="359"/>
      <point x="651" y="362"/>
    </contour>
    <contour>
      <point x="824" y="128" type="qcurve"/>
      <point x="824" y="127"/>
      <point x="821" y="119"/>
      <point x="820" y="117" type="qcurve"/>
      <point x="810" y="99"/>
      <point x="767" y="58"/>
      <point x="750" y="45" type="qcurve"/>
      <point x="716" y="20"/>
      <point x="637" y="-4"/>
      <point x="595" y="-4" type="qcurve"/>
      <point x="561" y="-4"/>
      <point x="476" y="12"/>
      <point x="403" y="49"/>
      <point x="385" y="82" type="qcurve"/>
      <point x="342" y="48"/>
      <point x="253" y="3"/>
      <point x="197" y="3" type="qcurve"/>
      <point x="157" y="3"/>
      <point x="88" y="32"/>
      <point x="46" y="91"/>
      <point x="46" y="135" type="qcurve"/>
      <point x="46" y="175"/>
      <point x="84" y="236"/>
      <point x="144" y="281"/>
      <point x="178" y="295" type="qcurve"/>
      <point x="219" y="312"/>
      <point x="307" y="329"/>
      <point x="350" y="338" type="qcurve"/>
      <point x="350" y="347" type="line"/>
      <point x="350" y="377"/>
      <point x="345" y="436"/>
      <point x="332" y="463" type="qcurve"/>
      <point x="322" y="483"/>
      <point x="290" y="520"/>
      <point x="265" y="520" type="qcurve"/>
      <point x="225" y="520"/>
      <point x="176" y="466"/>
      <point x="167" y="429" type="qcurve"/>
      <point x="166" y="425"/>
      <point x="164" y="414"/>
      <point x="162" y="410" type="qcurve"/>
      <point x="158" y="403"/>
      <point x="141" y="391"/>
      <point x="132" y="391" type="qcurve"/>
      <point x="112" y="391"/>
      <point x="73" y="408"/>
      <point x="73" y="433" type="qcurve"/>
      <point x="73" y="446"/>
      <point x="77" y="455" type="qcurve"/>
      <point x="86" y="481"/>
      <point x="146" y="526"/>
      <point x="171" y="534" type="qcurve"/>
      <point x="194" y="542"/>
      <point x="251" y="551"/>
      <point x="276" y="551" type="qcurve"/>
      <point x="319" y="551"/>
      <point x="400" y="520"/>
      <point x="426" y="484" type="qcurve"/>
      <point x="461" y="517"/>
      <point x="553" y="553"/>
      <point x="601" y="553" type="qcurve"/>
      <point x="694" y="553"/>
      <point x="804" y="445"/>
      <point x="804" y="351" type="qcurve"/>
      <point x="804" y="332"/>
      <point x="788" y="320"/>
      <point x="771" y="320" type="qcurve"/>
      <point x="749" y="320"/>
      <point x="705" y="323"/>
      <point x="683" y="324" type="qcurve"/>
      <point x="658" y="326"/>
      <point x="608" y="326"/>
      <point x="583" y="326" type="qcurve"/>
      <point x="553" y="326"/>
      <point x="494" y="325"/>
      <point x="464" y="324" type="qcurve"/>
      <point x="463" y="309"/>
      <point x="461" y="279"/>
      <point x="461" y="264" type="qcurve"/>
      <point x="461" y="232"/>
      <point x="475" y="155"/>
      <point x="508" y="84"/>
      <point x="562" y="39"/>
      <point x="602" y="39" type="qcurve"/>
      <point x="650" y="39"/>
      <point x="717" y="73"/>
      <point x="762" y="118"/>
      <point x="791" y="152"/>
      <point x="801" y="152" type="qcurve"/>
      <point x="824" y="152"/>
    </contour>
  </outline>
</glyph>
<glyph name="edieresis" format="2">
  <advance width="545" height="1000"/>
  <unicode hex="00EB"/>
  <outline>
    <contour>
      <point x="378" y="351" type="qcurve"/>
      <point x="378" y="371"/>
      <point x="374" y="427"/>
      <point x="359" y="480"/>
      <point x="327" y="516"/>
      <point x="299" y="516" type="qcurve"/>
      <point x="272" y="516"/>
      <point x="231" y="481"/>
      <point x="203" y="428"/>
      <point x="187" y="371"/>
      <point x="183" y="349" type="qcurve"/>
      <point x="200" y="349"/>
      <point x="233" y="348"/>
      <point x="249" y="348" type="qcurve"/>
      <point x="314" y="348"/>
    </contour>
    <contour>
      <point x="522" y="130" type="qcurve"/>
      <point x="522" y="127"/>
      <point x="519" y="116"/>
      <point x="517" y="113" type="qcurve"/>
      <point x="510" y="97"/>
      <point x="472" y="56"/>
      <point x="457" y="45" type="qcurve"/>
      <point x="390" y="-6"/>
      <point x="302" y="-6" type="qcurve"/>
      <point x="223" y="-6"/>
      <point x="107" y="61"/>
      <point x="45" y="181"/>
      <point x="45" y="259" type="qcurve"/>
      <point x="45" y="337"/>
      <point x="106" y="464"/>
      <point x="221" y="539"/>
      <point x="302" y="539" type="qcurve"/>
      <point x="395" y="539"/>
      <point x="507" y="437"/>
      <point x="507" y="342" type="qcurve"/>
      <point x="507" y="316"/>
      <point x="483" y="316" type="qcurve"/>
      <point x="439" y="316"/>
      <point x="351" y="318"/>
      <point x="307" y="318" type="qcurve"/>
      <point x="275" y="318"/>
      <point x="211" y="318"/>
      <point x="179" y="317" type="qcurve"/>
      <point x="176" y="287"/>
      <point x="176" y="256" type="qcurve"/>
      <point x="176" y="228"/>
      <point x="191" y="152"/>
      <point x="222" y="80"/>
      <point x="272" y="33"/>
      <point x="308" y="33" type="qcurve"/>
      <point x="353" y="33"/>
      <point x="414" y="59"/>
      <point x="462" y="107"/>
      <point x="487" y="140" type="qcurve"/>
      <point x="490" y="144"/>
      <point x="497" y="149"/>
      <point x="502" y="149" type="qcurve"/>
      <point x="509" y="149"/>
      <point x="522" y="138"/>
    </contour>
    <contour>
      <point x="227" y="696" type="qcurve"/>
      <point x="227" y="672"/>
      <point x="187" y="639"/>
      <point x="164" y="639" type="qcurve"/>
      <point x="141" y="639"/>
      <point x="100" y="672"/>
      <point x="100" y="696" type="qcurve"/>
      <point x="100" y="720"/>
      <point x="141" y="753"/>
      <point x="164" y="753" type="qcurve"/>
      <point x="187" y="753"/>
      <point x="227" y="720"/>
    </contour>
    <contour>
      <point x="445" y="696" type="qcurve"/>
      <point x="445" y="672"/>
      <point x="404" y="639"/>
      <point x="381" y="639" type="qcurve"/>
      <point x="359" y="639"/>
      <point x="318" y="672"/>
      <point x="318" y="696" type="qcurve"/>
      <point x="318" y="720"/>
      <point x="359" y="753"/>
      <point x="381" y="753" type="qcurve"/>
      <point x="404" y="753"/>
      <point x="445" y="720"/>
    </contour>
  </outline>
</glyph>
<glyph name="icircumflex" format="2">
  <advance width="344" height="1000"/>
  <unicode hex="00EE"/>
  <outline>
    <contour>
      <point x="314" y="12" type="qcurve"/>
      <point x="314" y="-4"/>
      <point x="298" y="-4" type="qcurve"/>
      <point x="269" y="-4"/>
      <point x="209" y="1"/>
      <point x="179" y="1" type="qcurve"/>
      <point x="149" y="1"/>
      <point x="88" y="-4"/>
      <point x="58" y="-4" type="qcurve"/>
      <point x="51" y="-4"/>
      <point x="45" y="7"/>
      <point x="45" y="12" type="qcurve"/>
      <point x="45" y="28"/>
      <point x="60" y="28" type="qcurve"/>
      <point x="70" y="28"/>
      <point x="88" y="26"/>
      <point x="97" y="26" type="qcurve"/>
      <point x="109" y="26"/>
      <point x="116" y="42"/>
      <point x="116" y="52" type="qcurve"/>
      <point x="116" y="449" type="line"/>
      <point x="116" y="459"/>
      <point x="112" y="484"/>
      <point x="98" y="484" type="qcurve"/>
      <point x="85" y="484"/>
      <point x="57" y="480"/>
      <point x="43" y="480" type="qcurve"/>
      <point x="37" y="480"/>
      <point x="26" y="486"/>
      <point x="26" y="493" type="qcurve"/>
      <point x="26" y="506"/>
      <point x="39" y="510" type="qcurve"/>
      <point x="50" y="512"/>
      <point x="75" y="515"/>
      <point x="86" y="516" type="qcurve"/>
      <point x="121" y="521"/>
      <point x="188" y="536"/>
      <point x="222" y="544" type="qcurve"/>
      <point x="225" y="544"/>
      <point x="231" y="545"/>
      <point x="233" y="545" type="qcurve"/>
      <point x="248" y="545"/>
      <point x="248" y="533" type="qcurve"/>
      <point x="248" y="413"/>
      <point x="246" y="172"/>
      <point x="246" y="52" type="qcurve"/>
      <point x="246" y="34"/>
      <point x="262" y="25"/>
      <point x="287" y="27"/>
      <point x="300" y="27" type="qcurve"/>
      <point x="314" y="27"/>
    </contour>
    <contour>
      <point x="343" y="675" type="line"/>
      <point x="334" y="630" type="line"/>
      <point x="170" y="685" type="line"/>
      <point x="11" y="632" type="line"/>
      <point x="1" y="677" type="line"/>
      <point x="172" y="760" type="line"/>
    </contour>
  </outline>
</glyph>
<glyph name="eth" format="2">
  <advance width="620" height="1000"/>
  <unicode hex="00F0"/>
  <outline>
    <contour>
      <point x="436" y="266" type="qcurve"/>
      <point x="436" y="302"/>
      <point x="427" y="388"/>
      <point x="398" y="466"/>
      <point x="340" y="516"/>
      <point x="292" y="516" type="qcurve"/>
      <point x="248" y="516"/>
      <point x="194" y="463"/>
      <point x="166" y="383"/>
      <point x="157" y="297"/>
      <point x="157" y="264" type="qcurve"/>
      <point x="157" y="228"/>
      <point x="166" y="145"/>
      <point x="195" y="71"/>
      <point x="252" y="24"/>
      <point x="300" y="24" type="qcurve"/>
      <point x="346" y="24"/>
      <point x="401" y="73"/>
      <point x="428" y="148"/>
      <point x="436" y="232"/>
    </contour>
    <contour>
      <point x="558" y="284" type="qcurve"/>
      <point x="558" y="205"/>
      <point x="497" y="71"/>
      <point x="379" y="-10"/>
      <point x="295" y="-10" type="qcurve"/>
      <point x="219" y="-10"/>
      <point x="105" y="64"/>
      <point x="41" y="187"/>
      <point x="41" y="261" type="qcurve"/>
      <point x="41" y="318"/>
      <point x="76" y="421"/>
      <point x="143" y="503"/>
      <point x="239" y="550"/>
      <point x="299" y="550" type="qcurve"/>
      <point x="369" y="550"/>
      <point x="427" y="509" type="qcurve"/>
      <point x="414" y="559"/>
      <point x="355" y="664"/>
      <point x="325" y="705" type="qcurve"/>
      <point x="225" y="637" type="line"/>
      <point x="188" y="681" type="line"/>
      <point x="287" y="752" type="line"/>
      <point x="265" y="775"/>
      <point x="214" y="810"/>
      <point x="188" y="826" type="qcurve"/>
      <point x="182" y="829"/>
      <point x="162" y="841"/>
      <point x="162" y="849" type="qcurve"/>
      <point x="162" y="873"/>
      <point x="185" y="873" type="qcurve"/>
      <point x="210" y="873"/>
      <point x="267" y="844"/>
      <point x="318" y="803"/>
      <point x="335" y="786" type="qcurve"/>
      <point x="429" y="853" type="line"/>
      <point x="466" y="803" type="line"/>
      <point x="377" y="741" type="line"/>
      <point x="459" y="645"/>
      <point x="558" y="412"/>
    </contour>
  </outline>
</glyph>
<glyph name="otilde" format="2">
  <advance width="620" height="1000"/>
  <unicode hex="00F5"/>
  <outline>
    <contour>
      <point x="439" y="263" type="qcurve"/>
      <point x="439" y="296"/>
      <point x="430" y="381"/>
      <point x="402" y="461"/>
      <point x="349" y="514"/>
      <point x="304" y="514" type="qcurve"/>
      <point x="263" y="514"/>
      <point x="213" y="462"/>
      <point x="186" y="384"/>
      <point x="176" y="301"/>
      <point x="176" y="271" type="qcurve"/>
      <point x="176" y="238"/>
      <point x="185" y="153"/>
      <point x="213" y="73"/>
      <point x="267" y="21"/>
      <point x="312" y="21" type="qcurve"/>
      <point x="354" y="21"/>
      <point x="405" y="72"/>
      <point x="431" y="149"/>
      <point x="439" y="232"/>
    </contour>
    <contour>
      <point x="575" y="258" type="qcurve"/>
      <point x="575" y="181"/>
      <point x="505" y="62"/>
      <point x="384" y="-6"/>
      <point x="307" y="-6" type="qcurve"/>
      <point x="230" y="-6"/>
      <point x="112" y="66"/>
      <point x="45" y="188"/>
      <point x="45" y="264" type="qcurve"/>
      <point x="45" y="343"/>
      <point x="111" y="468"/>
      <point x="231" y="541"/>
      <point x="311" y="541" type="qcurve"/>
      <point x="399" y="541"/>
      <point x="516" y="470"/>
      <point x="575" y="343"/>
    </contour>
    <contour>
      <point x="473" y="714" type="line"/>
      <point x="450" y="689"/>
      <point x="407" y="645"/>
      <point x="369" y="645" type="qcurve"/>
      <point x="343" y="645"/>
      <point x="296" y="667"/>
      <point x="258" y="688"/>
      <point x="243" y="688" type="qcurve"/>
      <point x="235" y="688"/>
      <point x="211" y="667"/>
      <point x="190" y="643"/>
      <point x="185" y="636" type="qcurve"/>
      <point x="147" y="661" type="line"/>
      <point x="170" y="694"/>
      <point x="218" y="746"/>
      <point x="262" y="746" type="qcurve"/>
      <point x="287" y="746"/>
      <point x="328" y="725"/>
      <point x="366" y="704"/>
      <point x="384" y="704" type="qcurve"/>
      <point x="399" y="704"/>
      <point x="431" y="739"/>
      <point x="440" y="749" type="qcurve"/>
    </contour>
  </outline>
</glyph>
